G04 #@! TF.GenerationSoftware,KiCad,Pcbnew,(5.1.5)-3*
G04 #@! TF.CreationDate,2020-12-24T17:13:42-08:00*
G04 #@! TF.ProjectId,edge-key-seventeen,65646765-2d6b-4657-992d-736576656e74,v1.0 rev 1*
G04 #@! TF.SameCoordinates,PX7616b68PY2a640d0*
G04 #@! TF.FileFunction,Paste,Top*
G04 #@! TF.FilePolarity,Positive*
%FSLAX46Y46*%
G04 Gerber Fmt 4.6, Leading zero omitted, Abs format (unit mm)*
G04 Created by KiCad (PCBNEW (5.1.5)-3) date 2020-12-24 17:13:42*
%MOMM*%
%LPD*%
G04 APERTURE LIST*
%ADD10R,3.150000X1.000000*%
%ADD11R,1.524000X0.762000*%
%ADD12C,0.100000*%
%ADD13R,2.500000X1.430000*%
%ADD14R,1.650000X0.400000*%
%ADD15R,1.500000X2.000000*%
%ADD16R,0.700000X1.825000*%
%ADD17R,2.000000X1.350000*%
%ADD18R,0.600000X0.900000*%
%ADD19R,1.000000X0.900000*%
%ADD20R,1.500000X0.550000*%
%ADD21R,0.550000X1.500000*%
G04 APERTURE END LIST*
D10*
G04 #@! TO.C,J2*
X8240000Y-76200000D03*
X3190000Y-76200000D03*
X8240000Y-73660000D03*
X3190000Y-73660000D03*
X8240000Y-71120000D03*
X3190000Y-71120000D03*
G04 #@! TD*
D11*
G04 #@! TO.C,S1*
X13589000Y-83439000D03*
X8001000Y-83439000D03*
X13589000Y-79629000D03*
X8001000Y-79629000D03*
G04 #@! TD*
D12*
G04 #@! TO.C,R4*
G36*
X6073505Y-78295204D02*
G01*
X6097773Y-78298804D01*
X6121572Y-78304765D01*
X6144671Y-78313030D01*
X6166850Y-78323520D01*
X6187893Y-78336132D01*
X6207599Y-78350747D01*
X6225777Y-78367223D01*
X6242253Y-78385401D01*
X6256868Y-78405107D01*
X6269480Y-78426150D01*
X6279970Y-78448329D01*
X6288235Y-78471428D01*
X6294196Y-78495227D01*
X6297796Y-78519495D01*
X6299000Y-78543999D01*
X6299000Y-79444001D01*
X6297796Y-79468505D01*
X6294196Y-79492773D01*
X6288235Y-79516572D01*
X6279970Y-79539671D01*
X6269480Y-79561850D01*
X6256868Y-79582893D01*
X6242253Y-79602599D01*
X6225777Y-79620777D01*
X6207599Y-79637253D01*
X6187893Y-79651868D01*
X6166850Y-79664480D01*
X6144671Y-79674970D01*
X6121572Y-79683235D01*
X6097773Y-79689196D01*
X6073505Y-79692796D01*
X6049001Y-79694000D01*
X5398999Y-79694000D01*
X5374495Y-79692796D01*
X5350227Y-79689196D01*
X5326428Y-79683235D01*
X5303329Y-79674970D01*
X5281150Y-79664480D01*
X5260107Y-79651868D01*
X5240401Y-79637253D01*
X5222223Y-79620777D01*
X5205747Y-79602599D01*
X5191132Y-79582893D01*
X5178520Y-79561850D01*
X5168030Y-79539671D01*
X5159765Y-79516572D01*
X5153804Y-79492773D01*
X5150204Y-79468505D01*
X5149000Y-79444001D01*
X5149000Y-78543999D01*
X5150204Y-78519495D01*
X5153804Y-78495227D01*
X5159765Y-78471428D01*
X5168030Y-78448329D01*
X5178520Y-78426150D01*
X5191132Y-78405107D01*
X5205747Y-78385401D01*
X5222223Y-78367223D01*
X5240401Y-78350747D01*
X5260107Y-78336132D01*
X5281150Y-78323520D01*
X5303329Y-78313030D01*
X5326428Y-78304765D01*
X5350227Y-78298804D01*
X5374495Y-78295204D01*
X5398999Y-78294000D01*
X6049001Y-78294000D01*
X6073505Y-78295204D01*
G37*
G36*
X4023505Y-78295204D02*
G01*
X4047773Y-78298804D01*
X4071572Y-78304765D01*
X4094671Y-78313030D01*
X4116850Y-78323520D01*
X4137893Y-78336132D01*
X4157599Y-78350747D01*
X4175777Y-78367223D01*
X4192253Y-78385401D01*
X4206868Y-78405107D01*
X4219480Y-78426150D01*
X4229970Y-78448329D01*
X4238235Y-78471428D01*
X4244196Y-78495227D01*
X4247796Y-78519495D01*
X4249000Y-78543999D01*
X4249000Y-79444001D01*
X4247796Y-79468505D01*
X4244196Y-79492773D01*
X4238235Y-79516572D01*
X4229970Y-79539671D01*
X4219480Y-79561850D01*
X4206868Y-79582893D01*
X4192253Y-79602599D01*
X4175777Y-79620777D01*
X4157599Y-79637253D01*
X4137893Y-79651868D01*
X4116850Y-79664480D01*
X4094671Y-79674970D01*
X4071572Y-79683235D01*
X4047773Y-79689196D01*
X4023505Y-79692796D01*
X3999001Y-79694000D01*
X3348999Y-79694000D01*
X3324495Y-79692796D01*
X3300227Y-79689196D01*
X3276428Y-79683235D01*
X3253329Y-79674970D01*
X3231150Y-79664480D01*
X3210107Y-79651868D01*
X3190401Y-79637253D01*
X3172223Y-79620777D01*
X3155747Y-79602599D01*
X3141132Y-79582893D01*
X3128520Y-79561850D01*
X3118030Y-79539671D01*
X3109765Y-79516572D01*
X3103804Y-79492773D01*
X3100204Y-79468505D01*
X3099000Y-79444001D01*
X3099000Y-78543999D01*
X3100204Y-78519495D01*
X3103804Y-78495227D01*
X3109765Y-78471428D01*
X3118030Y-78448329D01*
X3128520Y-78426150D01*
X3141132Y-78405107D01*
X3155747Y-78385401D01*
X3172223Y-78367223D01*
X3190401Y-78350747D01*
X3210107Y-78336132D01*
X3231150Y-78323520D01*
X3253329Y-78313030D01*
X3276428Y-78304765D01*
X3300227Y-78298804D01*
X3324495Y-78295204D01*
X3348999Y-78294000D01*
X3999001Y-78294000D01*
X4023505Y-78295204D01*
G37*
G04 #@! TD*
D13*
G04 #@! TO.C,J1*
X1409000Y-63292000D03*
X1409000Y-61372000D03*
D14*
X4559000Y-63632000D03*
X4559000Y-62982000D03*
X4559000Y-62332000D03*
X4559000Y-61682000D03*
X4559000Y-61032000D03*
D15*
X4679000Y-65232000D03*
X4659000Y-59482000D03*
D16*
X3359000Y-65332000D03*
X3359000Y-59382000D03*
D17*
X2609000Y-59602000D03*
X2609000Y-65082000D03*
G04 #@! TD*
D18*
G04 #@! TO.C,D8*
X8951000Y-63330000D03*
X7051000Y-61130000D03*
X8951000Y-61130000D03*
D19*
X7251000Y-63330000D03*
G04 #@! TD*
D12*
G04 #@! TO.C,F1*
G36*
X8777504Y-54951204D02*
G01*
X8801773Y-54954804D01*
X8825571Y-54960765D01*
X8848671Y-54969030D01*
X8870849Y-54979520D01*
X8891893Y-54992133D01*
X8911598Y-55006747D01*
X8929777Y-55023223D01*
X8946253Y-55041402D01*
X8960867Y-55061107D01*
X8973480Y-55082151D01*
X8983970Y-55104329D01*
X8992235Y-55127429D01*
X8998196Y-55151227D01*
X9001796Y-55175496D01*
X9003000Y-55200000D01*
X9003000Y-56125000D01*
X9001796Y-56149504D01*
X8998196Y-56173773D01*
X8992235Y-56197571D01*
X8983970Y-56220671D01*
X8973480Y-56242849D01*
X8960867Y-56263893D01*
X8946253Y-56283598D01*
X8929777Y-56301777D01*
X8911598Y-56318253D01*
X8891893Y-56332867D01*
X8870849Y-56345480D01*
X8848671Y-56355970D01*
X8825571Y-56364235D01*
X8801773Y-56370196D01*
X8777504Y-56373796D01*
X8753000Y-56375000D01*
X7503000Y-56375000D01*
X7478496Y-56373796D01*
X7454227Y-56370196D01*
X7430429Y-56364235D01*
X7407329Y-56355970D01*
X7385151Y-56345480D01*
X7364107Y-56332867D01*
X7344402Y-56318253D01*
X7326223Y-56301777D01*
X7309747Y-56283598D01*
X7295133Y-56263893D01*
X7282520Y-56242849D01*
X7272030Y-56220671D01*
X7263765Y-56197571D01*
X7257804Y-56173773D01*
X7254204Y-56149504D01*
X7253000Y-56125000D01*
X7253000Y-55200000D01*
X7254204Y-55175496D01*
X7257804Y-55151227D01*
X7263765Y-55127429D01*
X7272030Y-55104329D01*
X7282520Y-55082151D01*
X7295133Y-55061107D01*
X7309747Y-55041402D01*
X7326223Y-55023223D01*
X7344402Y-55006747D01*
X7364107Y-54992133D01*
X7385151Y-54979520D01*
X7407329Y-54969030D01*
X7430429Y-54960765D01*
X7454227Y-54954804D01*
X7478496Y-54951204D01*
X7503000Y-54950000D01*
X8753000Y-54950000D01*
X8777504Y-54951204D01*
G37*
G36*
X8777504Y-57926204D02*
G01*
X8801773Y-57929804D01*
X8825571Y-57935765D01*
X8848671Y-57944030D01*
X8870849Y-57954520D01*
X8891893Y-57967133D01*
X8911598Y-57981747D01*
X8929777Y-57998223D01*
X8946253Y-58016402D01*
X8960867Y-58036107D01*
X8973480Y-58057151D01*
X8983970Y-58079329D01*
X8992235Y-58102429D01*
X8998196Y-58126227D01*
X9001796Y-58150496D01*
X9003000Y-58175000D01*
X9003000Y-59100000D01*
X9001796Y-59124504D01*
X8998196Y-59148773D01*
X8992235Y-59172571D01*
X8983970Y-59195671D01*
X8973480Y-59217849D01*
X8960867Y-59238893D01*
X8946253Y-59258598D01*
X8929777Y-59276777D01*
X8911598Y-59293253D01*
X8891893Y-59307867D01*
X8870849Y-59320480D01*
X8848671Y-59330970D01*
X8825571Y-59339235D01*
X8801773Y-59345196D01*
X8777504Y-59348796D01*
X8753000Y-59350000D01*
X7503000Y-59350000D01*
X7478496Y-59348796D01*
X7454227Y-59345196D01*
X7430429Y-59339235D01*
X7407329Y-59330970D01*
X7385151Y-59320480D01*
X7364107Y-59307867D01*
X7344402Y-59293253D01*
X7326223Y-59276777D01*
X7309747Y-59258598D01*
X7295133Y-59238893D01*
X7282520Y-59217849D01*
X7272030Y-59195671D01*
X7263765Y-59172571D01*
X7257804Y-59148773D01*
X7254204Y-59124504D01*
X7253000Y-59100000D01*
X7253000Y-58175000D01*
X7254204Y-58150496D01*
X7257804Y-58126227D01*
X7263765Y-58102429D01*
X7272030Y-58079329D01*
X7282520Y-58057151D01*
X7295133Y-58036107D01*
X7309747Y-58016402D01*
X7326223Y-57998223D01*
X7344402Y-57981747D01*
X7364107Y-57967133D01*
X7385151Y-57954520D01*
X7407329Y-57944030D01*
X7430429Y-57935765D01*
X7454227Y-57929804D01*
X7478496Y-57926204D01*
X7503000Y-57925000D01*
X8753000Y-57925000D01*
X8777504Y-57926204D01*
G37*
G04 #@! TD*
D20*
G04 #@! TO.C,U1*
X17160000Y-68390000D03*
X17160000Y-69190000D03*
X17160000Y-69990000D03*
X17160000Y-70790000D03*
X17160000Y-71590000D03*
X17160000Y-72390000D03*
X17160000Y-73190000D03*
X17160000Y-73990000D03*
X17160000Y-74790000D03*
X17160000Y-75590000D03*
X17160000Y-76390000D03*
D21*
X18860000Y-78090000D03*
X19660000Y-78090000D03*
X20460000Y-78090000D03*
X21260000Y-78090000D03*
X22060000Y-78090000D03*
X22860000Y-78090000D03*
X23660000Y-78090000D03*
X24460000Y-78090000D03*
X25260000Y-78090000D03*
X26060000Y-78090000D03*
X26860000Y-78090000D03*
D20*
X28560000Y-76390000D03*
X28560000Y-75590000D03*
X28560000Y-74790000D03*
X28560000Y-73990000D03*
X28560000Y-73190000D03*
X28560000Y-72390000D03*
X28560000Y-71590000D03*
X28560000Y-70790000D03*
X28560000Y-69990000D03*
X28560000Y-69190000D03*
X28560000Y-68390000D03*
D21*
X26860000Y-66690000D03*
X26060000Y-66690000D03*
X25260000Y-66690000D03*
X24460000Y-66690000D03*
X23660000Y-66690000D03*
X22860000Y-66690000D03*
X22060000Y-66690000D03*
X21260000Y-66690000D03*
X20460000Y-66690000D03*
X19660000Y-66690000D03*
X18860000Y-66690000D03*
G04 #@! TD*
D12*
G04 #@! TO.C,R3*
G36*
X12469108Y-62994412D02*
G01*
X12493376Y-62998012D01*
X12517175Y-63003973D01*
X12540274Y-63012238D01*
X12562453Y-63022728D01*
X12583496Y-63035340D01*
X12603202Y-63049955D01*
X12621380Y-63066431D01*
X13081001Y-63526052D01*
X13097477Y-63544230D01*
X13112092Y-63563936D01*
X13124704Y-63584979D01*
X13135194Y-63607158D01*
X13143459Y-63630257D01*
X13149420Y-63654056D01*
X13153020Y-63678324D01*
X13154224Y-63702828D01*
X13153020Y-63727332D01*
X13149420Y-63751600D01*
X13143459Y-63775399D01*
X13135194Y-63798498D01*
X13124704Y-63820677D01*
X13112092Y-63841720D01*
X13097477Y-63861426D01*
X13081001Y-63879604D01*
X12444604Y-64516001D01*
X12426426Y-64532477D01*
X12406720Y-64547092D01*
X12385677Y-64559704D01*
X12363498Y-64570194D01*
X12340399Y-64578459D01*
X12316600Y-64584420D01*
X12292332Y-64588020D01*
X12267828Y-64589224D01*
X12243324Y-64588020D01*
X12219056Y-64584420D01*
X12195257Y-64578459D01*
X12172158Y-64570194D01*
X12149979Y-64559704D01*
X12128936Y-64547092D01*
X12109230Y-64532477D01*
X12091052Y-64516001D01*
X11631431Y-64056380D01*
X11614955Y-64038202D01*
X11600340Y-64018496D01*
X11587728Y-63997453D01*
X11577238Y-63975274D01*
X11568973Y-63952175D01*
X11563012Y-63928376D01*
X11559412Y-63904108D01*
X11558208Y-63879604D01*
X11559412Y-63855100D01*
X11563012Y-63830832D01*
X11568973Y-63807033D01*
X11577238Y-63783934D01*
X11587728Y-63761755D01*
X11600340Y-63740712D01*
X11614955Y-63721006D01*
X11631431Y-63702828D01*
X12267828Y-63066431D01*
X12286006Y-63049955D01*
X12305712Y-63035340D01*
X12326755Y-63022728D01*
X12348934Y-63012238D01*
X12372033Y-63003973D01*
X12395832Y-62998012D01*
X12420100Y-62994412D01*
X12444604Y-62993208D01*
X12469108Y-62994412D01*
G37*
G36*
X13918676Y-64443980D02*
G01*
X13942944Y-64447580D01*
X13966743Y-64453541D01*
X13989842Y-64461806D01*
X14012021Y-64472296D01*
X14033064Y-64484908D01*
X14052770Y-64499523D01*
X14070948Y-64515999D01*
X14530569Y-64975620D01*
X14547045Y-64993798D01*
X14561660Y-65013504D01*
X14574272Y-65034547D01*
X14584762Y-65056726D01*
X14593027Y-65079825D01*
X14598988Y-65103624D01*
X14602588Y-65127892D01*
X14603792Y-65152396D01*
X14602588Y-65176900D01*
X14598988Y-65201168D01*
X14593027Y-65224967D01*
X14584762Y-65248066D01*
X14574272Y-65270245D01*
X14561660Y-65291288D01*
X14547045Y-65310994D01*
X14530569Y-65329172D01*
X13894172Y-65965569D01*
X13875994Y-65982045D01*
X13856288Y-65996660D01*
X13835245Y-66009272D01*
X13813066Y-66019762D01*
X13789967Y-66028027D01*
X13766168Y-66033988D01*
X13741900Y-66037588D01*
X13717396Y-66038792D01*
X13692892Y-66037588D01*
X13668624Y-66033988D01*
X13644825Y-66028027D01*
X13621726Y-66019762D01*
X13599547Y-66009272D01*
X13578504Y-65996660D01*
X13558798Y-65982045D01*
X13540620Y-65965569D01*
X13080999Y-65505948D01*
X13064523Y-65487770D01*
X13049908Y-65468064D01*
X13037296Y-65447021D01*
X13026806Y-65424842D01*
X13018541Y-65401743D01*
X13012580Y-65377944D01*
X13008980Y-65353676D01*
X13007776Y-65329172D01*
X13008980Y-65304668D01*
X13012580Y-65280400D01*
X13018541Y-65256601D01*
X13026806Y-65233502D01*
X13037296Y-65211323D01*
X13049908Y-65190280D01*
X13064523Y-65170574D01*
X13080999Y-65152396D01*
X13717396Y-64515999D01*
X13735574Y-64499523D01*
X13755280Y-64484908D01*
X13776323Y-64472296D01*
X13798502Y-64461806D01*
X13821601Y-64453541D01*
X13845400Y-64447580D01*
X13869668Y-64443980D01*
X13894172Y-64442776D01*
X13918676Y-64443980D01*
G37*
G04 #@! TD*
G04 #@! TO.C,R2*
G36*
X11161892Y-64481196D02*
G01*
X11186160Y-64484796D01*
X11209959Y-64490757D01*
X11233058Y-64499022D01*
X11255237Y-64509512D01*
X11276280Y-64522124D01*
X11295986Y-64536739D01*
X11314164Y-64553215D01*
X11773785Y-65012836D01*
X11790261Y-65031014D01*
X11804876Y-65050720D01*
X11817488Y-65071763D01*
X11827978Y-65093942D01*
X11836243Y-65117041D01*
X11842204Y-65140840D01*
X11845804Y-65165108D01*
X11847008Y-65189612D01*
X11845804Y-65214116D01*
X11842204Y-65238384D01*
X11836243Y-65262183D01*
X11827978Y-65285282D01*
X11817488Y-65307461D01*
X11804876Y-65328504D01*
X11790261Y-65348210D01*
X11773785Y-65366388D01*
X11137388Y-66002785D01*
X11119210Y-66019261D01*
X11099504Y-66033876D01*
X11078461Y-66046488D01*
X11056282Y-66056978D01*
X11033183Y-66065243D01*
X11009384Y-66071204D01*
X10985116Y-66074804D01*
X10960612Y-66076008D01*
X10936108Y-66074804D01*
X10911840Y-66071204D01*
X10888041Y-66065243D01*
X10864942Y-66056978D01*
X10842763Y-66046488D01*
X10821720Y-66033876D01*
X10802014Y-66019261D01*
X10783836Y-66002785D01*
X10324215Y-65543164D01*
X10307739Y-65524986D01*
X10293124Y-65505280D01*
X10280512Y-65484237D01*
X10270022Y-65462058D01*
X10261757Y-65438959D01*
X10255796Y-65415160D01*
X10252196Y-65390892D01*
X10250992Y-65366388D01*
X10252196Y-65341884D01*
X10255796Y-65317616D01*
X10261757Y-65293817D01*
X10270022Y-65270718D01*
X10280512Y-65248539D01*
X10293124Y-65227496D01*
X10307739Y-65207790D01*
X10324215Y-65189612D01*
X10960612Y-64553215D01*
X10978790Y-64536739D01*
X10998496Y-64522124D01*
X11019539Y-64509512D01*
X11041718Y-64499022D01*
X11064817Y-64490757D01*
X11088616Y-64484796D01*
X11112884Y-64481196D01*
X11137388Y-64479992D01*
X11161892Y-64481196D01*
G37*
G36*
X12611460Y-65930764D02*
G01*
X12635728Y-65934364D01*
X12659527Y-65940325D01*
X12682626Y-65948590D01*
X12704805Y-65959080D01*
X12725848Y-65971692D01*
X12745554Y-65986307D01*
X12763732Y-66002783D01*
X13223353Y-66462404D01*
X13239829Y-66480582D01*
X13254444Y-66500288D01*
X13267056Y-66521331D01*
X13277546Y-66543510D01*
X13285811Y-66566609D01*
X13291772Y-66590408D01*
X13295372Y-66614676D01*
X13296576Y-66639180D01*
X13295372Y-66663684D01*
X13291772Y-66687952D01*
X13285811Y-66711751D01*
X13277546Y-66734850D01*
X13267056Y-66757029D01*
X13254444Y-66778072D01*
X13239829Y-66797778D01*
X13223353Y-66815956D01*
X12586956Y-67452353D01*
X12568778Y-67468829D01*
X12549072Y-67483444D01*
X12528029Y-67496056D01*
X12505850Y-67506546D01*
X12482751Y-67514811D01*
X12458952Y-67520772D01*
X12434684Y-67524372D01*
X12410180Y-67525576D01*
X12385676Y-67524372D01*
X12361408Y-67520772D01*
X12337609Y-67514811D01*
X12314510Y-67506546D01*
X12292331Y-67496056D01*
X12271288Y-67483444D01*
X12251582Y-67468829D01*
X12233404Y-67452353D01*
X11773783Y-66992732D01*
X11757307Y-66974554D01*
X11742692Y-66954848D01*
X11730080Y-66933805D01*
X11719590Y-66911626D01*
X11711325Y-66888527D01*
X11705364Y-66864728D01*
X11701764Y-66840460D01*
X11700560Y-66815956D01*
X11701764Y-66791452D01*
X11705364Y-66767184D01*
X11711325Y-66743385D01*
X11719590Y-66720286D01*
X11730080Y-66698107D01*
X11742692Y-66677064D01*
X11757307Y-66657358D01*
X11773783Y-66639180D01*
X12410180Y-66002783D01*
X12428358Y-65986307D01*
X12448064Y-65971692D01*
X12469107Y-65959080D01*
X12491286Y-65948590D01*
X12514385Y-65940325D01*
X12538184Y-65934364D01*
X12562452Y-65930764D01*
X12586956Y-65929560D01*
X12611460Y-65930764D01*
G37*
G04 #@! TD*
G04 #@! TO.C,C2*
G36*
X23835505Y-80263704D02*
G01*
X23859773Y-80267304D01*
X23883572Y-80273265D01*
X23906671Y-80281530D01*
X23928850Y-80292020D01*
X23949893Y-80304632D01*
X23969599Y-80319247D01*
X23987777Y-80335723D01*
X24004253Y-80353901D01*
X24018868Y-80373607D01*
X24031480Y-80394650D01*
X24041970Y-80416829D01*
X24050235Y-80439928D01*
X24056196Y-80463727D01*
X24059796Y-80487995D01*
X24061000Y-80512499D01*
X24061000Y-81412501D01*
X24059796Y-81437005D01*
X24056196Y-81461273D01*
X24050235Y-81485072D01*
X24041970Y-81508171D01*
X24031480Y-81530350D01*
X24018868Y-81551393D01*
X24004253Y-81571099D01*
X23987777Y-81589277D01*
X23969599Y-81605753D01*
X23949893Y-81620368D01*
X23928850Y-81632980D01*
X23906671Y-81643470D01*
X23883572Y-81651735D01*
X23859773Y-81657696D01*
X23835505Y-81661296D01*
X23811001Y-81662500D01*
X23160999Y-81662500D01*
X23136495Y-81661296D01*
X23112227Y-81657696D01*
X23088428Y-81651735D01*
X23065329Y-81643470D01*
X23043150Y-81632980D01*
X23022107Y-81620368D01*
X23002401Y-81605753D01*
X22984223Y-81589277D01*
X22967747Y-81571099D01*
X22953132Y-81551393D01*
X22940520Y-81530350D01*
X22930030Y-81508171D01*
X22921765Y-81485072D01*
X22915804Y-81461273D01*
X22912204Y-81437005D01*
X22911000Y-81412501D01*
X22911000Y-80512499D01*
X22912204Y-80487995D01*
X22915804Y-80463727D01*
X22921765Y-80439928D01*
X22930030Y-80416829D01*
X22940520Y-80394650D01*
X22953132Y-80373607D01*
X22967747Y-80353901D01*
X22984223Y-80335723D01*
X23002401Y-80319247D01*
X23022107Y-80304632D01*
X23043150Y-80292020D01*
X23065329Y-80281530D01*
X23088428Y-80273265D01*
X23112227Y-80267304D01*
X23136495Y-80263704D01*
X23160999Y-80262500D01*
X23811001Y-80262500D01*
X23835505Y-80263704D01*
G37*
G36*
X25885505Y-80263704D02*
G01*
X25909773Y-80267304D01*
X25933572Y-80273265D01*
X25956671Y-80281530D01*
X25978850Y-80292020D01*
X25999893Y-80304632D01*
X26019599Y-80319247D01*
X26037777Y-80335723D01*
X26054253Y-80353901D01*
X26068868Y-80373607D01*
X26081480Y-80394650D01*
X26091970Y-80416829D01*
X26100235Y-80439928D01*
X26106196Y-80463727D01*
X26109796Y-80487995D01*
X26111000Y-80512499D01*
X26111000Y-81412501D01*
X26109796Y-81437005D01*
X26106196Y-81461273D01*
X26100235Y-81485072D01*
X26091970Y-81508171D01*
X26081480Y-81530350D01*
X26068868Y-81551393D01*
X26054253Y-81571099D01*
X26037777Y-81589277D01*
X26019599Y-81605753D01*
X25999893Y-81620368D01*
X25978850Y-81632980D01*
X25956671Y-81643470D01*
X25933572Y-81651735D01*
X25909773Y-81657696D01*
X25885505Y-81661296D01*
X25861001Y-81662500D01*
X25210999Y-81662500D01*
X25186495Y-81661296D01*
X25162227Y-81657696D01*
X25138428Y-81651735D01*
X25115329Y-81643470D01*
X25093150Y-81632980D01*
X25072107Y-81620368D01*
X25052401Y-81605753D01*
X25034223Y-81589277D01*
X25017747Y-81571099D01*
X25003132Y-81551393D01*
X24990520Y-81530350D01*
X24980030Y-81508171D01*
X24971765Y-81485072D01*
X24965804Y-81461273D01*
X24962204Y-81437005D01*
X24961000Y-81412501D01*
X24961000Y-80512499D01*
X24962204Y-80487995D01*
X24965804Y-80463727D01*
X24971765Y-80439928D01*
X24980030Y-80416829D01*
X24990520Y-80394650D01*
X25003132Y-80373607D01*
X25017747Y-80353901D01*
X25034223Y-80335723D01*
X25052401Y-80319247D01*
X25072107Y-80304632D01*
X25093150Y-80292020D01*
X25115329Y-80281530D01*
X25138428Y-80273265D01*
X25162227Y-80267304D01*
X25186495Y-80263704D01*
X25210999Y-80262500D01*
X25861001Y-80262500D01*
X25885505Y-80263704D01*
G37*
G04 #@! TD*
G04 #@! TO.C,C1*
G36*
X21821505Y-80263704D02*
G01*
X21845773Y-80267304D01*
X21869572Y-80273265D01*
X21892671Y-80281530D01*
X21914850Y-80292020D01*
X21935893Y-80304632D01*
X21955599Y-80319247D01*
X21973777Y-80335723D01*
X21990253Y-80353901D01*
X22004868Y-80373607D01*
X22017480Y-80394650D01*
X22027970Y-80416829D01*
X22036235Y-80439928D01*
X22042196Y-80463727D01*
X22045796Y-80487995D01*
X22047000Y-80512499D01*
X22047000Y-81412501D01*
X22045796Y-81437005D01*
X22042196Y-81461273D01*
X22036235Y-81485072D01*
X22027970Y-81508171D01*
X22017480Y-81530350D01*
X22004868Y-81551393D01*
X21990253Y-81571099D01*
X21973777Y-81589277D01*
X21955599Y-81605753D01*
X21935893Y-81620368D01*
X21914850Y-81632980D01*
X21892671Y-81643470D01*
X21869572Y-81651735D01*
X21845773Y-81657696D01*
X21821505Y-81661296D01*
X21797001Y-81662500D01*
X21146999Y-81662500D01*
X21122495Y-81661296D01*
X21098227Y-81657696D01*
X21074428Y-81651735D01*
X21051329Y-81643470D01*
X21029150Y-81632980D01*
X21008107Y-81620368D01*
X20988401Y-81605753D01*
X20970223Y-81589277D01*
X20953747Y-81571099D01*
X20939132Y-81551393D01*
X20926520Y-81530350D01*
X20916030Y-81508171D01*
X20907765Y-81485072D01*
X20901804Y-81461273D01*
X20898204Y-81437005D01*
X20897000Y-81412501D01*
X20897000Y-80512499D01*
X20898204Y-80487995D01*
X20901804Y-80463727D01*
X20907765Y-80439928D01*
X20916030Y-80416829D01*
X20926520Y-80394650D01*
X20939132Y-80373607D01*
X20953747Y-80353901D01*
X20970223Y-80335723D01*
X20988401Y-80319247D01*
X21008107Y-80304632D01*
X21029150Y-80292020D01*
X21051329Y-80281530D01*
X21074428Y-80273265D01*
X21098227Y-80267304D01*
X21122495Y-80263704D01*
X21146999Y-80262500D01*
X21797001Y-80262500D01*
X21821505Y-80263704D01*
G37*
G36*
X19771505Y-80263704D02*
G01*
X19795773Y-80267304D01*
X19819572Y-80273265D01*
X19842671Y-80281530D01*
X19864850Y-80292020D01*
X19885893Y-80304632D01*
X19905599Y-80319247D01*
X19923777Y-80335723D01*
X19940253Y-80353901D01*
X19954868Y-80373607D01*
X19967480Y-80394650D01*
X19977970Y-80416829D01*
X19986235Y-80439928D01*
X19992196Y-80463727D01*
X19995796Y-80487995D01*
X19997000Y-80512499D01*
X19997000Y-81412501D01*
X19995796Y-81437005D01*
X19992196Y-81461273D01*
X19986235Y-81485072D01*
X19977970Y-81508171D01*
X19967480Y-81530350D01*
X19954868Y-81551393D01*
X19940253Y-81571099D01*
X19923777Y-81589277D01*
X19905599Y-81605753D01*
X19885893Y-81620368D01*
X19864850Y-81632980D01*
X19842671Y-81643470D01*
X19819572Y-81651735D01*
X19795773Y-81657696D01*
X19771505Y-81661296D01*
X19747001Y-81662500D01*
X19096999Y-81662500D01*
X19072495Y-81661296D01*
X19048227Y-81657696D01*
X19024428Y-81651735D01*
X19001329Y-81643470D01*
X18979150Y-81632980D01*
X18958107Y-81620368D01*
X18938401Y-81605753D01*
X18920223Y-81589277D01*
X18903747Y-81571099D01*
X18889132Y-81551393D01*
X18876520Y-81530350D01*
X18866030Y-81508171D01*
X18857765Y-81485072D01*
X18851804Y-81461273D01*
X18848204Y-81437005D01*
X18847000Y-81412501D01*
X18847000Y-80512499D01*
X18848204Y-80487995D01*
X18851804Y-80463727D01*
X18857765Y-80439928D01*
X18866030Y-80416829D01*
X18876520Y-80394650D01*
X18889132Y-80373607D01*
X18903747Y-80353901D01*
X18920223Y-80335723D01*
X18938401Y-80319247D01*
X18958107Y-80304632D01*
X18979150Y-80292020D01*
X19001329Y-80281530D01*
X19024428Y-80273265D01*
X19048227Y-80267304D01*
X19072495Y-80263704D01*
X19096999Y-80262500D01*
X19747001Y-80262500D01*
X19771505Y-80263704D01*
G37*
G04 #@! TD*
M02*
