M48
; DRILL file {KiCad (5.1.5)-3} date 12/24/2020 5:13:36 PM
; FORMAT={2:4/ absolute / inch / suppress leading zeros}
; #@! TF.CreationDate,2020-12-24T17:13:36-08:00
; #@! TF.GenerationSoftware,Kicad,Pcbnew,(5.1.5)-3
FMAT,2
INCH,TZ
T1C0.0157
T2C0.0256
T3C0.0276
T4C0.0315
T5C0.0394
T6C0.0579
T7C0.0591
T8C0.0709
T9C0.0669
T10C0.0689
T11C0.1063
T12C0.1200
T13C0.1201
T14C0.1570
T15C0.1575
%
G90
G05
T1
X650Y-26750
X650Y-32359
X1250Y-31700
X1250Y-32550
X1250Y-35400
X1900Y-16696
X2438Y-25300
X2450Y-31750
X3250Y-30301
X3650Y-31350
X4130Y-38530
X4200Y-32850
X4575Y-28575
X4575Y-30075
X4900Y-31350
X5280Y-2130
X5750Y-29000
X5750Y-29750
X6200Y-28500
X6600Y-30750
X6600Y-33050
X6700Y-33850
X6708Y-23042
X6754Y-24246
X7150Y-20550
X7335Y-28185
X7400Y-32450
X7450Y-24300
X7450Y-34400
X7500Y-27250
X7750Y-30000
X8050Y-31300
X8100Y-26850
X8300Y-34950
X9000Y-24500
X9300Y-17450
X9300Y-20700
X9315Y-23500
X9315Y-25185
X9500Y-27000
X9550Y-35000
X9650Y-31350
X9769Y-18231
X9769Y-24731
X10250Y-30100
X10350Y-34500
X10375Y-26875
X10500Y-32500
X10900Y-34100
X10950Y-33000
X11450Y-30400
X11450Y-33500
X11471Y-16619
X11486Y-26083
X11880Y-28130
X12336Y-6300
X12455Y-29445
X12455Y-32831
X12904Y-28484
X13770Y-30177
X15950Y-38850
X21625Y-30196
X22650Y-38850
X24792Y-34500
X26900Y-1950
X27450Y-35131
X27450Y-36000
X29000Y-38350
X43800Y-33088
X44000Y-18648
T3
X11850Y-18365
X11850Y-21435
X19063Y-18465
X19063Y-21535
X19063Y-3152
X19063Y-6223
X11850Y-10565
X11850Y-13635
X42813Y-25965
X42813Y-29035
X42813Y-10652
X42813Y-13723
X26563Y-10652
X26563Y-13723
X19063Y-25965
X19063Y-29035
X22813Y-33465
X22813Y-36535
X34063Y-25965
X34063Y-29035
X34063Y-33465
X34063Y-36535
X26563Y-3152
X26563Y-6223
X41563Y-3152
X41563Y-6223
X19063Y-10652
X19063Y-13723
X34063Y-18465
X34063Y-21535
X34063Y-10652
X34063Y-13723
X26563Y-25965
X26563Y-29035
X26563Y-18465
X26563Y-21535
X34063Y-3152
X34063Y-6223
T4
X7800Y-33375
X9721Y-33375
T5
X7141Y-16619
X7141Y-22328
X8125Y-22328
X9109Y-16619
X9109Y-22328
X7141Y-9119
X7141Y-14828
X8125Y-14828
X9109Y-9119
X9109Y-14828
T6
X14125Y-18375
X16625Y-17375
X29125Y-18375
X31625Y-17375
X21625Y-10875
X24125Y-9875
X14125Y-25875
X16625Y-24875
X29125Y-25875
X31625Y-24875
X21625Y-25875
X24125Y-24875
X14125Y-3375
X16625Y-2375
X29125Y-3375
X31625Y-2375
X29125Y-10875
X31625Y-9875
X17875Y-33375
X20375Y-32375
X29125Y-33375
X31625Y-32375
X36625Y-3375
X39125Y-2375
X21625Y-3375
X24125Y-2375
X14125Y-10875
X16625Y-9875
X21625Y-18375
X24125Y-17375
T7
X36625Y-14625
X39125Y-13625
X36625Y-29625
X39125Y-28625
T9
X36125Y-15625
X40125Y-15625
X36125Y-30625
X40125Y-30625
T10
X28625Y-19375
X32625Y-19375
X21125Y-11875
X25125Y-11875
X13625Y-26875
X17625Y-26875
X28625Y-26875
X32625Y-26875
X21125Y-26875
X25125Y-26875
X13625Y-4375
X17625Y-4375
X28625Y-4375
X32625Y-4375
X28625Y-11875
X32625Y-11875
X17375Y-34375
X21375Y-34375
X28625Y-34375
X32625Y-34375
X36125Y-4375
X40125Y-4375
X21125Y-4375
X25125Y-4375
X13625Y-11875
X17625Y-11875
X21125Y-19375
X25125Y-19375
X13625Y-19375
X17625Y-19375
T11
X9545Y-1697
X43010Y-37130
X1671Y-1697
X9545Y-37130
X1671Y-37130
X43010Y-1697
T12
X14688Y-31625
X24063Y-31625
T13
X35369Y-10940
X35369Y-20310
X35369Y-25940
X35369Y-35310
T14
X30625Y-19375
X23125Y-11875
X15625Y-26875
X30625Y-26875
X23125Y-26875
X15625Y-4375
X30625Y-4375
X30625Y-11875
X14688Y-37625
X19375Y-34375
X24063Y-37625
X30625Y-34375
X38125Y-4375
X23125Y-4375
X15625Y-11875
X23125Y-19375
X15625Y-19375
T15
X38125Y-15625
X41369Y-10940
X41369Y-20310
X38125Y-30625
X41369Y-25940
X41369Y-35310
T2
G00X1763Y-23587
M15
G01X1921Y-23587
M16
G05
G00X1763Y-25493
M15
G01X1921Y-25493
M16
G05
T3
G00X563Y-23465
M15
G01X759Y-23465
M16
G05
G00X563Y-25615
M15
G01X759Y-25615
M16
G05
T8
G00X5881Y-18863
M15
G01X5881Y-19887
M16
G05
G00X10369Y-18863
M15
G01X10369Y-19887
M16
G05
G00X5881Y-11363
M15
G01X5881Y-12387
M16
G05
G00X10369Y-11363
M15
G01X10369Y-12387
M16
G05
T0
M30
