G04 #@! TF.GenerationSoftware,KiCad,Pcbnew,(5.1.5)-3*
G04 #@! TF.CreationDate,2020-12-24T17:13:42-08:00*
G04 #@! TF.ProjectId,edge-key-seventeen,65646765-2d6b-4657-992d-736576656e74,v1.0 rev 1*
G04 #@! TF.SameCoordinates,PX7616b68PY2a640d0*
G04 #@! TF.FileFunction,Legend,Top*
G04 #@! TF.FilePolarity,Positive*
%FSLAX46Y46*%
G04 Gerber Fmt 4.6, Leading zero omitted, Abs format (unit mm)*
G04 Created by KiCad (PCBNEW (5.1.5)-3) date 2020-12-24 17:13:42*
%MOMM*%
%LPD*%
G04 APERTURE LIST*
%ADD10C,0.150000*%
%ADD11C,0.100000*%
%ADD12C,0.010000*%
%ADD13C,0.250000*%
%ADD14C,0.120000*%
%ADD15C,0.203200*%
%ADD16C,0.127000*%
G04 APERTURE END LIST*
D10*
X10723571Y-47870000D02*
X10771190Y-47727142D01*
X10818809Y-47679523D01*
X10914047Y-47631904D01*
X11056904Y-47631904D01*
X11152142Y-47679523D01*
X11199761Y-47727142D01*
X11247380Y-47822380D01*
X11247380Y-48203333D01*
X10247380Y-48203333D01*
X10247380Y-47870000D01*
X10295000Y-47774761D01*
X10342619Y-47727142D01*
X10437857Y-47679523D01*
X10533095Y-47679523D01*
X10628333Y-47727142D01*
X10675952Y-47774761D01*
X10723571Y-47870000D01*
X10723571Y-48203333D01*
X11247380Y-47060476D02*
X11199761Y-47155714D01*
X11152142Y-47203333D01*
X11056904Y-47250952D01*
X10771190Y-47250952D01*
X10675952Y-47203333D01*
X10628333Y-47155714D01*
X10580714Y-47060476D01*
X10580714Y-46917619D01*
X10628333Y-46822380D01*
X10675952Y-46774761D01*
X10771190Y-46727142D01*
X11056904Y-46727142D01*
X11152142Y-46774761D01*
X11199761Y-46822380D01*
X11247380Y-46917619D01*
X11247380Y-47060476D01*
X10580714Y-45870000D02*
X11247380Y-45870000D01*
X10580714Y-46298571D02*
X11104523Y-46298571D01*
X11199761Y-46250952D01*
X11247380Y-46155714D01*
X11247380Y-46012857D01*
X11199761Y-45917619D01*
X11152142Y-45870000D01*
X11247380Y-45393809D02*
X10580714Y-45393809D01*
X10771190Y-45393809D02*
X10675952Y-45346190D01*
X10628333Y-45298571D01*
X10580714Y-45203333D01*
X10580714Y-45108095D01*
X10580714Y-44774761D02*
X11247380Y-44774761D01*
X10675952Y-44774761D02*
X10628333Y-44727142D01*
X10580714Y-44631904D01*
X10580714Y-44489047D01*
X10628333Y-44393809D01*
X10723571Y-44346190D01*
X11247380Y-44346190D01*
X11199761Y-43917619D02*
X11247380Y-43822380D01*
X11247380Y-43631904D01*
X11199761Y-43536666D01*
X11104523Y-43489047D01*
X11056904Y-43489047D01*
X10961666Y-43536666D01*
X10914047Y-43631904D01*
X10914047Y-43774761D01*
X10866428Y-43870000D01*
X10771190Y-43917619D01*
X10723571Y-43917619D01*
X10628333Y-43870000D01*
X10580714Y-43774761D01*
X10580714Y-43631904D01*
X10628333Y-43536666D01*
X11247380Y-42298571D02*
X10247380Y-42298571D01*
X10247380Y-41917619D01*
X10295000Y-41822380D01*
X10342619Y-41774761D01*
X10437857Y-41727142D01*
X10580714Y-41727142D01*
X10675952Y-41774761D01*
X10723571Y-41822380D01*
X10771190Y-41917619D01*
X10771190Y-42298571D01*
X10723571Y-41298571D02*
X10723571Y-40965238D01*
X11247380Y-40822380D02*
X11247380Y-41298571D01*
X10247380Y-41298571D01*
X10247380Y-40822380D01*
X11152142Y-39822380D02*
X11199761Y-39870000D01*
X11247380Y-40012857D01*
X11247380Y-40108095D01*
X11199761Y-40250952D01*
X11104523Y-40346190D01*
X11009285Y-40393809D01*
X10818809Y-40441428D01*
X10675952Y-40441428D01*
X10485476Y-40393809D01*
X10390238Y-40346190D01*
X10295000Y-40250952D01*
X10247380Y-40108095D01*
X10247380Y-40012857D01*
X10295000Y-39870000D01*
X10342619Y-39822380D01*
X11247380Y-38870000D02*
X11247380Y-39441428D01*
X11247380Y-39155714D02*
X10247380Y-39155714D01*
X10390238Y-39250952D01*
X10485476Y-39346190D01*
X10533095Y-39441428D01*
X11247380Y-37917619D02*
X11247380Y-38489047D01*
X11247380Y-38203333D02*
X10247380Y-38203333D01*
X10390238Y-38298571D01*
X10485476Y-38393809D01*
X10533095Y-38489047D01*
X10866428Y-37489047D02*
X10866428Y-36727142D01*
X11247380Y-35679523D02*
X10771190Y-36012857D01*
X11247380Y-36250952D02*
X10247380Y-36250952D01*
X10247380Y-35870000D01*
X10295000Y-35774761D01*
X10342619Y-35727142D01*
X10437857Y-35679523D01*
X10580714Y-35679523D01*
X10675952Y-35727142D01*
X10723571Y-35774761D01*
X10771190Y-35870000D01*
X10771190Y-36250952D01*
X11199761Y-34536666D02*
X11247380Y-34441428D01*
X11247380Y-34250952D01*
X11199761Y-34155714D01*
X11104523Y-34108095D01*
X11056904Y-34108095D01*
X10961666Y-34155714D01*
X10914047Y-34250952D01*
X10914047Y-34393809D01*
X10866428Y-34489047D01*
X10771190Y-34536666D01*
X10723571Y-34536666D01*
X10628333Y-34489047D01*
X10580714Y-34393809D01*
X10580714Y-34250952D01*
X10628333Y-34155714D01*
X11199761Y-33298571D02*
X11247380Y-33393809D01*
X11247380Y-33584285D01*
X11199761Y-33679523D01*
X11104523Y-33727142D01*
X10723571Y-33727142D01*
X10628333Y-33679523D01*
X10580714Y-33584285D01*
X10580714Y-33393809D01*
X10628333Y-33298571D01*
X10723571Y-33250952D01*
X10818809Y-33250952D01*
X10914047Y-33727142D01*
X11247380Y-32822380D02*
X10580714Y-32822380D01*
X10771190Y-32822380D02*
X10675952Y-32774761D01*
X10628333Y-32727142D01*
X10580714Y-32631904D01*
X10580714Y-32536666D01*
X11247380Y-32203333D02*
X10580714Y-32203333D01*
X10247380Y-32203333D02*
X10295000Y-32250952D01*
X10342619Y-32203333D01*
X10295000Y-32155714D01*
X10247380Y-32203333D01*
X10342619Y-32203333D01*
X11199761Y-31346190D02*
X11247380Y-31441428D01*
X11247380Y-31631904D01*
X11199761Y-31727142D01*
X11104523Y-31774761D01*
X10723571Y-31774761D01*
X10628333Y-31727142D01*
X10580714Y-31631904D01*
X10580714Y-31441428D01*
X10628333Y-31346190D01*
X10723571Y-31298571D01*
X10818809Y-31298571D01*
X10914047Y-31774761D01*
X11199761Y-30917619D02*
X11247380Y-30822380D01*
X11247380Y-30631904D01*
X11199761Y-30536666D01*
X11104523Y-30489047D01*
X11056904Y-30489047D01*
X10961666Y-30536666D01*
X10914047Y-30631904D01*
X10914047Y-30774761D01*
X10866428Y-30870000D01*
X10771190Y-30917619D01*
X10723571Y-30917619D01*
X10628333Y-30870000D01*
X10580714Y-30774761D01*
X10580714Y-30631904D01*
X10628333Y-30536666D01*
X14844047Y-16058571D02*
X15177380Y-16058571D01*
X15320238Y-16582380D02*
X14844047Y-16582380D01*
X14844047Y-15582380D01*
X15320238Y-15582380D01*
X16177380Y-16582380D02*
X16177380Y-15582380D01*
X16177380Y-16534761D02*
X16082142Y-16582380D01*
X15891666Y-16582380D01*
X15796428Y-16534761D01*
X15748809Y-16487142D01*
X15701190Y-16391904D01*
X15701190Y-16106190D01*
X15748809Y-16010952D01*
X15796428Y-15963333D01*
X15891666Y-15915714D01*
X16082142Y-15915714D01*
X16177380Y-15963333D01*
X17082142Y-15915714D02*
X17082142Y-16725238D01*
X17034523Y-16820476D01*
X16986904Y-16868095D01*
X16891666Y-16915714D01*
X16748809Y-16915714D01*
X16653571Y-16868095D01*
X17082142Y-16534761D02*
X16986904Y-16582380D01*
X16796428Y-16582380D01*
X16701190Y-16534761D01*
X16653571Y-16487142D01*
X16605952Y-16391904D01*
X16605952Y-16106190D01*
X16653571Y-16010952D01*
X16701190Y-15963333D01*
X16796428Y-15915714D01*
X16986904Y-15915714D01*
X17082142Y-15963333D01*
X17939285Y-16534761D02*
X17844047Y-16582380D01*
X17653571Y-16582380D01*
X17558333Y-16534761D01*
X17510714Y-16439523D01*
X17510714Y-16058571D01*
X17558333Y-15963333D01*
X17653571Y-15915714D01*
X17844047Y-15915714D01*
X17939285Y-15963333D01*
X17986904Y-16058571D01*
X17986904Y-16153809D01*
X17510714Y-16249047D01*
X19177380Y-16582380D02*
X19177380Y-15582380D01*
X19748809Y-16582380D02*
X19320238Y-16010952D01*
X19748809Y-15582380D02*
X19177380Y-16153809D01*
X20558333Y-16534761D02*
X20463095Y-16582380D01*
X20272619Y-16582380D01*
X20177380Y-16534761D01*
X20129761Y-16439523D01*
X20129761Y-16058571D01*
X20177380Y-15963333D01*
X20272619Y-15915714D01*
X20463095Y-15915714D01*
X20558333Y-15963333D01*
X20605952Y-16058571D01*
X20605952Y-16153809D01*
X20129761Y-16249047D01*
X20939285Y-15915714D02*
X21177380Y-16582380D01*
X21415476Y-15915714D02*
X21177380Y-16582380D01*
X21082142Y-16820476D01*
X21034523Y-16868095D01*
X20939285Y-16915714D01*
X22510714Y-16534761D02*
X22653571Y-16582380D01*
X22891666Y-16582380D01*
X22986904Y-16534761D01*
X23034523Y-16487142D01*
X23082142Y-16391904D01*
X23082142Y-16296666D01*
X23034523Y-16201428D01*
X22986904Y-16153809D01*
X22891666Y-16106190D01*
X22701190Y-16058571D01*
X22605952Y-16010952D01*
X22558333Y-15963333D01*
X22510714Y-15868095D01*
X22510714Y-15772857D01*
X22558333Y-15677619D01*
X22605952Y-15630000D01*
X22701190Y-15582380D01*
X22939285Y-15582380D01*
X23082142Y-15630000D01*
X23891666Y-16534761D02*
X23796428Y-16582380D01*
X23605952Y-16582380D01*
X23510714Y-16534761D01*
X23463095Y-16439523D01*
X23463095Y-16058571D01*
X23510714Y-15963333D01*
X23605952Y-15915714D01*
X23796428Y-15915714D01*
X23891666Y-15963333D01*
X23939285Y-16058571D01*
X23939285Y-16153809D01*
X23463095Y-16249047D01*
X24272619Y-15915714D02*
X24510714Y-16582380D01*
X24748809Y-15915714D01*
X25510714Y-16534761D02*
X25415476Y-16582380D01*
X25225000Y-16582380D01*
X25129761Y-16534761D01*
X25082142Y-16439523D01*
X25082142Y-16058571D01*
X25129761Y-15963333D01*
X25225000Y-15915714D01*
X25415476Y-15915714D01*
X25510714Y-15963333D01*
X25558333Y-16058571D01*
X25558333Y-16153809D01*
X25082142Y-16249047D01*
X25986904Y-15915714D02*
X25986904Y-16582380D01*
X25986904Y-16010952D02*
X26034523Y-15963333D01*
X26129761Y-15915714D01*
X26272619Y-15915714D01*
X26367857Y-15963333D01*
X26415476Y-16058571D01*
X26415476Y-16582380D01*
X26748809Y-15915714D02*
X27129761Y-15915714D01*
X26891666Y-15582380D02*
X26891666Y-16439523D01*
X26939285Y-16534761D01*
X27034523Y-16582380D01*
X27129761Y-16582380D01*
X27844047Y-16534761D02*
X27748809Y-16582380D01*
X27558333Y-16582380D01*
X27463095Y-16534761D01*
X27415476Y-16439523D01*
X27415476Y-16058571D01*
X27463095Y-15963333D01*
X27558333Y-15915714D01*
X27748809Y-15915714D01*
X27844047Y-15963333D01*
X27891666Y-16058571D01*
X27891666Y-16153809D01*
X27415476Y-16249047D01*
X28701190Y-16534761D02*
X28605952Y-16582380D01*
X28415476Y-16582380D01*
X28320238Y-16534761D01*
X28272619Y-16439523D01*
X28272619Y-16058571D01*
X28320238Y-15963333D01*
X28415476Y-15915714D01*
X28605952Y-15915714D01*
X28701190Y-15963333D01*
X28748809Y-16058571D01*
X28748809Y-16153809D01*
X28272619Y-16249047D01*
X29177380Y-15915714D02*
X29177380Y-16582380D01*
X29177380Y-16010952D02*
X29225000Y-15963333D01*
X29320238Y-15915714D01*
X29463095Y-15915714D01*
X29558333Y-15963333D01*
X29605952Y-16058571D01*
X29605952Y-16582380D01*
X16367857Y-18232380D02*
X16367857Y-17232380D01*
X16939285Y-18232380D01*
X16939285Y-17232380D01*
X17844047Y-17565714D02*
X17844047Y-18232380D01*
X17415476Y-17565714D02*
X17415476Y-18089523D01*
X17463095Y-18184761D01*
X17558333Y-18232380D01*
X17701190Y-18232380D01*
X17796428Y-18184761D01*
X17844047Y-18137142D01*
X18320238Y-18232380D02*
X18320238Y-17565714D01*
X18320238Y-17660952D02*
X18367857Y-17613333D01*
X18463095Y-17565714D01*
X18605952Y-17565714D01*
X18701190Y-17613333D01*
X18748809Y-17708571D01*
X18748809Y-18232380D01*
X18748809Y-17708571D02*
X18796428Y-17613333D01*
X18891666Y-17565714D01*
X19034523Y-17565714D01*
X19129761Y-17613333D01*
X19177380Y-17708571D01*
X19177380Y-18232380D01*
X20034523Y-18184761D02*
X19939285Y-18232380D01*
X19748809Y-18232380D01*
X19653571Y-18184761D01*
X19605952Y-18089523D01*
X19605952Y-17708571D01*
X19653571Y-17613333D01*
X19748809Y-17565714D01*
X19939285Y-17565714D01*
X20034523Y-17613333D01*
X20082142Y-17708571D01*
X20082142Y-17803809D01*
X19605952Y-17899047D01*
X20510714Y-18232380D02*
X20510714Y-17565714D01*
X20510714Y-17756190D02*
X20558333Y-17660952D01*
X20605952Y-17613333D01*
X20701190Y-17565714D01*
X20796428Y-17565714D01*
X21129761Y-18232380D02*
X21129761Y-17565714D01*
X21129761Y-17232380D02*
X21082142Y-17280000D01*
X21129761Y-17327619D01*
X21177380Y-17280000D01*
X21129761Y-17232380D01*
X21129761Y-17327619D01*
X22034523Y-18184761D02*
X21939285Y-18232380D01*
X21748809Y-18232380D01*
X21653571Y-18184761D01*
X21605952Y-18137142D01*
X21558333Y-18041904D01*
X21558333Y-17756190D01*
X21605952Y-17660952D01*
X21653571Y-17613333D01*
X21748809Y-17565714D01*
X21939285Y-17565714D01*
X22034523Y-17613333D01*
X23225000Y-18232380D02*
X23225000Y-17232380D01*
X23796428Y-18232380D02*
X23367857Y-17660952D01*
X23796428Y-17232380D02*
X23225000Y-17803809D01*
X24605952Y-18184761D02*
X24510714Y-18232380D01*
X24320238Y-18232380D01*
X24225000Y-18184761D01*
X24177380Y-18089523D01*
X24177380Y-17708571D01*
X24225000Y-17613333D01*
X24320238Y-17565714D01*
X24510714Y-17565714D01*
X24605952Y-17613333D01*
X24653571Y-17708571D01*
X24653571Y-17803809D01*
X24177380Y-17899047D01*
X24986904Y-17565714D02*
X25225000Y-18232380D01*
X25463095Y-17565714D02*
X25225000Y-18232380D01*
X25129761Y-18470476D01*
X25082142Y-18518095D01*
X24986904Y-18565714D01*
X25844047Y-17565714D02*
X25844047Y-18565714D01*
X25844047Y-17613333D02*
X25939285Y-17565714D01*
X26129761Y-17565714D01*
X26225000Y-17613333D01*
X26272619Y-17660952D01*
X26320238Y-17756190D01*
X26320238Y-18041904D01*
X26272619Y-18137142D01*
X26225000Y-18184761D01*
X26129761Y-18232380D01*
X25939285Y-18232380D01*
X25844047Y-18184761D01*
X27177380Y-18232380D02*
X27177380Y-17708571D01*
X27129761Y-17613333D01*
X27034523Y-17565714D01*
X26844047Y-17565714D01*
X26748809Y-17613333D01*
X27177380Y-18184761D02*
X27082142Y-18232380D01*
X26844047Y-18232380D01*
X26748809Y-18184761D01*
X26701190Y-18089523D01*
X26701190Y-17994285D01*
X26748809Y-17899047D01*
X26844047Y-17851428D01*
X27082142Y-17851428D01*
X27177380Y-17803809D01*
X28082142Y-18232380D02*
X28082142Y-17232380D01*
X28082142Y-18184761D02*
X27986904Y-18232380D01*
X27796428Y-18232380D01*
X27701190Y-18184761D01*
X27653571Y-18137142D01*
X27605952Y-18041904D01*
X27605952Y-17756190D01*
X27653571Y-17660952D01*
X27701190Y-17613333D01*
X27796428Y-17565714D01*
X27986904Y-17565714D01*
X28082142Y-17613333D01*
X18439285Y-19215714D02*
X18677380Y-19882380D01*
X18915476Y-19215714D01*
X19820238Y-19882380D02*
X19248809Y-19882380D01*
X19534523Y-19882380D02*
X19534523Y-18882380D01*
X19439285Y-19025238D01*
X19344047Y-19120476D01*
X19248809Y-19168095D01*
X20248809Y-19787142D02*
X20296428Y-19834761D01*
X20248809Y-19882380D01*
X20201190Y-19834761D01*
X20248809Y-19787142D01*
X20248809Y-19882380D01*
X20915476Y-18882380D02*
X21010714Y-18882380D01*
X21105952Y-18930000D01*
X21153571Y-18977619D01*
X21201190Y-19072857D01*
X21248809Y-19263333D01*
X21248809Y-19501428D01*
X21201190Y-19691904D01*
X21153571Y-19787142D01*
X21105952Y-19834761D01*
X21010714Y-19882380D01*
X20915476Y-19882380D01*
X20820238Y-19834761D01*
X20772619Y-19787142D01*
X20725000Y-19691904D01*
X20677380Y-19501428D01*
X20677380Y-19263333D01*
X20725000Y-19072857D01*
X20772619Y-18977619D01*
X20820238Y-18930000D01*
X20915476Y-18882380D01*
X22439285Y-19882380D02*
X22439285Y-19215714D01*
X22439285Y-19406190D02*
X22486904Y-19310952D01*
X22534523Y-19263333D01*
X22629761Y-19215714D01*
X22725000Y-19215714D01*
X23439285Y-19834761D02*
X23344047Y-19882380D01*
X23153571Y-19882380D01*
X23058333Y-19834761D01*
X23010714Y-19739523D01*
X23010714Y-19358571D01*
X23058333Y-19263333D01*
X23153571Y-19215714D01*
X23344047Y-19215714D01*
X23439285Y-19263333D01*
X23486904Y-19358571D01*
X23486904Y-19453809D01*
X23010714Y-19549047D01*
X23820238Y-19215714D02*
X24058333Y-19882380D01*
X24296428Y-19215714D01*
X25963095Y-19882380D02*
X25391666Y-19882380D01*
X25677380Y-19882380D02*
X25677380Y-18882380D01*
X25582142Y-19025238D01*
X25486904Y-19120476D01*
X25391666Y-19168095D01*
X10509285Y-70667619D02*
X10556904Y-70620000D01*
X10652142Y-70572380D01*
X10890238Y-70572380D01*
X10985476Y-70620000D01*
X11033095Y-70667619D01*
X11080714Y-70762857D01*
X11080714Y-70858095D01*
X11033095Y-71000952D01*
X10461666Y-71572380D01*
X11080714Y-71572380D01*
X920714Y-71572380D02*
X349285Y-71572380D01*
X635000Y-71572380D02*
X635000Y-70572380D01*
X539761Y-70715238D01*
X444523Y-70810476D01*
X349285Y-70858095D01*
X13230333Y-78040666D02*
X12997000Y-77707333D01*
X12830333Y-78040666D02*
X12830333Y-77340666D01*
X13097000Y-77340666D01*
X13163666Y-77374000D01*
X13197000Y-77407333D01*
X13230333Y-77474000D01*
X13230333Y-77574000D01*
X13197000Y-77640666D01*
X13163666Y-77674000D01*
X13097000Y-77707333D01*
X12830333Y-77707333D01*
X13797000Y-78007333D02*
X13730333Y-78040666D01*
X13597000Y-78040666D01*
X13530333Y-78007333D01*
X13497000Y-77940666D01*
X13497000Y-77674000D01*
X13530333Y-77607333D01*
X13597000Y-77574000D01*
X13730333Y-77574000D01*
X13797000Y-77607333D01*
X13830333Y-77674000D01*
X13830333Y-77740666D01*
X13497000Y-77807333D01*
X14097000Y-78007333D02*
X14163666Y-78040666D01*
X14297000Y-78040666D01*
X14363666Y-78007333D01*
X14397000Y-77940666D01*
X14397000Y-77907333D01*
X14363666Y-77840666D01*
X14297000Y-77807333D01*
X14197000Y-77807333D01*
X14130333Y-77774000D01*
X14097000Y-77707333D01*
X14097000Y-77674000D01*
X14130333Y-77607333D01*
X14197000Y-77574000D01*
X14297000Y-77574000D01*
X14363666Y-77607333D01*
X14963666Y-78007333D02*
X14897000Y-78040666D01*
X14763666Y-78040666D01*
X14697000Y-78007333D01*
X14663666Y-77940666D01*
X14663666Y-77674000D01*
X14697000Y-77607333D01*
X14763666Y-77574000D01*
X14897000Y-77574000D01*
X14963666Y-77607333D01*
X14997000Y-77674000D01*
X14997000Y-77740666D01*
X14663666Y-77807333D01*
X15197000Y-77574000D02*
X15463666Y-77574000D01*
X15297000Y-77340666D02*
X15297000Y-77940666D01*
X15330333Y-78007333D01*
X15397000Y-78040666D01*
X15463666Y-78040666D01*
D11*
G36*
X16383000Y-67564000D02*
G01*
X16383000Y-66040000D01*
X17907000Y-66040000D01*
X16383000Y-67564000D01*
G37*
X16383000Y-67564000D02*
X16383000Y-66040000D01*
X17907000Y-66040000D01*
X16383000Y-67564000D01*
D10*
X3841000Y-55143333D02*
X3807666Y-55210000D01*
X3807666Y-55310000D01*
X3841000Y-55410000D01*
X3907666Y-55476666D01*
X3974333Y-55510000D01*
X4107666Y-55543333D01*
X4207666Y-55543333D01*
X4341000Y-55510000D01*
X4407666Y-55476666D01*
X4474333Y-55410000D01*
X4507666Y-55310000D01*
X4507666Y-55243333D01*
X4474333Y-55143333D01*
X4441000Y-55110000D01*
X4207666Y-55110000D01*
X4207666Y-55243333D01*
X4507666Y-54810000D02*
X3807666Y-54810000D01*
X4507666Y-54410000D01*
X3807666Y-54410000D01*
X4507666Y-54076666D02*
X3807666Y-54076666D01*
X3807666Y-53910000D01*
X3841000Y-53810000D01*
X3907666Y-53743333D01*
X3974333Y-53710000D01*
X4107666Y-53676666D01*
X4207666Y-53676666D01*
X4341000Y-53710000D01*
X4407666Y-53743333D01*
X4474333Y-53810000D01*
X4507666Y-53910000D01*
X4507666Y-54076666D01*
X3807666Y-52408000D02*
X4507666Y-52174666D01*
X3807666Y-51941333D01*
X4474333Y-51408000D02*
X4507666Y-51474666D01*
X4507666Y-51608000D01*
X4474333Y-51674666D01*
X4441000Y-51708000D01*
X4374333Y-51741333D01*
X4174333Y-51741333D01*
X4107666Y-51708000D01*
X4074333Y-51674666D01*
X4041000Y-51608000D01*
X4041000Y-51474666D01*
X4074333Y-51408000D01*
X4474333Y-50808000D02*
X4507666Y-50874666D01*
X4507666Y-51008000D01*
X4474333Y-51074666D01*
X4441000Y-51108000D01*
X4374333Y-51141333D01*
X4174333Y-51141333D01*
X4107666Y-51108000D01*
X4074333Y-51074666D01*
X4041000Y-51008000D01*
X4041000Y-50874666D01*
X4074333Y-50808000D01*
X421095Y-57729380D02*
X421095Y-56729380D01*
X754428Y-57443666D01*
X1087761Y-56729380D01*
X1087761Y-57729380D01*
X1563952Y-57729380D02*
X1563952Y-57062714D01*
X1563952Y-56729380D02*
X1516333Y-56777000D01*
X1563952Y-56824619D01*
X1611571Y-56777000D01*
X1563952Y-56729380D01*
X1563952Y-56824619D01*
X2468714Y-57681761D02*
X2373476Y-57729380D01*
X2183000Y-57729380D01*
X2087761Y-57681761D01*
X2040142Y-57634142D01*
X1992523Y-57538904D01*
X1992523Y-57253190D01*
X2040142Y-57157952D01*
X2087761Y-57110333D01*
X2183000Y-57062714D01*
X2373476Y-57062714D01*
X2468714Y-57110333D01*
X2897285Y-57729380D02*
X2897285Y-57062714D01*
X2897285Y-57253190D02*
X2944904Y-57157952D01*
X2992523Y-57110333D01*
X3087761Y-57062714D01*
X3183000Y-57062714D01*
X3659190Y-57729380D02*
X3563952Y-57681761D01*
X3516333Y-57634142D01*
X3468714Y-57538904D01*
X3468714Y-57253190D01*
X3516333Y-57157952D01*
X3563952Y-57110333D01*
X3659190Y-57062714D01*
X3802047Y-57062714D01*
X3897285Y-57110333D01*
X3944904Y-57157952D01*
X3992523Y-57253190D01*
X3992523Y-57538904D01*
X3944904Y-57634142D01*
X3897285Y-57681761D01*
X3802047Y-57729380D01*
X3659190Y-57729380D01*
X4421095Y-56729380D02*
X4421095Y-57538904D01*
X4468714Y-57634142D01*
X4516333Y-57681761D01*
X4611571Y-57729380D01*
X4802047Y-57729380D01*
X4897285Y-57681761D01*
X4944904Y-57634142D01*
X4992523Y-57538904D01*
X4992523Y-56729380D01*
X5421095Y-57681761D02*
X5563952Y-57729380D01*
X5802047Y-57729380D01*
X5897285Y-57681761D01*
X5944904Y-57634142D01*
X5992523Y-57538904D01*
X5992523Y-57443666D01*
X5944904Y-57348428D01*
X5897285Y-57300809D01*
X5802047Y-57253190D01*
X5611571Y-57205571D01*
X5516333Y-57157952D01*
X5468714Y-57110333D01*
X5421095Y-57015095D01*
X5421095Y-56919857D01*
X5468714Y-56824619D01*
X5516333Y-56777000D01*
X5611571Y-56729380D01*
X5849666Y-56729380D01*
X5992523Y-56777000D01*
X6754428Y-57205571D02*
X6897285Y-57253190D01*
X6944904Y-57300809D01*
X6992523Y-57396047D01*
X6992523Y-57538904D01*
X6944904Y-57634142D01*
X6897285Y-57681761D01*
X6802047Y-57729380D01*
X6421095Y-57729380D01*
X6421095Y-56729380D01*
X6754428Y-56729380D01*
X6849666Y-56777000D01*
X6897285Y-56824619D01*
X6944904Y-56919857D01*
X6944904Y-57015095D01*
X6897285Y-57110333D01*
X6849666Y-57157952D01*
X6754428Y-57205571D01*
X6421095Y-57205571D01*
D12*
G04 #@! TO.C,Ref\002A\002A*
G36*
X72771000Y-1925446D02*
G01*
X72934912Y-1943255D01*
X73092732Y-1960734D01*
X73237327Y-1977067D01*
X73361564Y-1991440D01*
X73458310Y-2003036D01*
X73520432Y-2011042D01*
X73522417Y-2011321D01*
X73579066Y-2018789D01*
X73672478Y-2030437D01*
X73797356Y-2045647D01*
X73948404Y-2063799D01*
X74120323Y-2084276D01*
X74307818Y-2106456D01*
X74505591Y-2129723D01*
X74708345Y-2153455D01*
X74910783Y-2177036D01*
X75107607Y-2199845D01*
X75293522Y-2221263D01*
X75463229Y-2240672D01*
X75611432Y-2257452D01*
X75732833Y-2270984D01*
X75822136Y-2280650D01*
X75861334Y-2284651D01*
X75917873Y-2290584D01*
X76011601Y-2300971D01*
X76137669Y-2315252D01*
X76291230Y-2332869D01*
X76467437Y-2353263D01*
X76661441Y-2375874D01*
X76868396Y-2400143D01*
X77083454Y-2425511D01*
X77120750Y-2429925D01*
X77333615Y-2455073D01*
X77536688Y-2478946D01*
X77725511Y-2501027D01*
X77895630Y-2520802D01*
X78042587Y-2537754D01*
X78161927Y-2551368D01*
X78249193Y-2561128D01*
X78299929Y-2566519D01*
X78306084Y-2567097D01*
X78347456Y-2571404D01*
X78426429Y-2580261D01*
X78538575Y-2593150D01*
X78679466Y-2609552D01*
X78844673Y-2628950D01*
X79029769Y-2650823D01*
X79230325Y-2674654D01*
X79441913Y-2699925D01*
X79502000Y-2707125D01*
X79719381Y-2733102D01*
X79929817Y-2758085D01*
X80128437Y-2781507D01*
X80310374Y-2802800D01*
X80470757Y-2821397D01*
X80604716Y-2836732D01*
X80707381Y-2848239D01*
X80773884Y-2855349D01*
X80782584Y-2856209D01*
X80915287Y-2869726D01*
X81066313Y-2886310D01*
X81230256Y-2905256D01*
X81401710Y-2925861D01*
X81575269Y-2947418D01*
X81745527Y-2969222D01*
X81907078Y-2990570D01*
X82054517Y-3010756D01*
X82182438Y-3029075D01*
X82285435Y-3044822D01*
X82358102Y-3057292D01*
X82395033Y-3065781D01*
X82397367Y-3066777D01*
X82439355Y-3102811D01*
X82476840Y-3155646D01*
X82477859Y-3157590D01*
X82491282Y-3187517D01*
X82499136Y-3220069D01*
X82501441Y-3263458D01*
X82498215Y-3325894D01*
X82489475Y-3415587D01*
X82478640Y-3511504D01*
X82464937Y-3633515D01*
X82451968Y-3755589D01*
X82441157Y-3863914D01*
X82433927Y-3944677D01*
X82433698Y-3947584D01*
X82424305Y-4042628D01*
X82411715Y-4138654D01*
X82401118Y-4201584D01*
X82395063Y-4240785D01*
X82384672Y-4318182D01*
X82370416Y-4429909D01*
X82352765Y-4572102D01*
X82332189Y-4740895D01*
X82309158Y-4932426D01*
X82284142Y-5142828D01*
X82257612Y-5368237D01*
X82230037Y-5604788D01*
X82222172Y-5672667D01*
X82193899Y-5916504D01*
X82166239Y-6154043D01*
X82139708Y-6380910D01*
X82114824Y-6592731D01*
X82092104Y-6785131D01*
X82072064Y-6953737D01*
X82055220Y-7094174D01*
X82042091Y-7202068D01*
X82033192Y-7273044D01*
X82032110Y-7281334D01*
X82019792Y-7377089D01*
X82003876Y-7504507D01*
X81984894Y-7659076D01*
X81963376Y-7836286D01*
X81939854Y-8031628D01*
X81914857Y-8240591D01*
X81888916Y-8458664D01*
X81862563Y-8681338D01*
X81836328Y-8904103D01*
X81810741Y-9122448D01*
X81786334Y-9331863D01*
X81763637Y-9527838D01*
X81743180Y-9705863D01*
X81725495Y-9861428D01*
X81711113Y-9990022D01*
X81700563Y-10087135D01*
X81694378Y-10148258D01*
X81693366Y-10160000D01*
X81684090Y-10256498D01*
X81671881Y-10353165D01*
X81660191Y-10424584D01*
X81654152Y-10463785D01*
X81643776Y-10541182D01*
X81629535Y-10652909D01*
X81611896Y-10795101D01*
X81591332Y-10963895D01*
X81568310Y-11155425D01*
X81543302Y-11365826D01*
X81516776Y-11591235D01*
X81489203Y-11827786D01*
X81481339Y-11895667D01*
X81453066Y-12139504D01*
X81425405Y-12377043D01*
X81398875Y-12603910D01*
X81373991Y-12815731D01*
X81351271Y-13008131D01*
X81331230Y-13176737D01*
X81314387Y-13317174D01*
X81301258Y-13425068D01*
X81292359Y-13496044D01*
X81291277Y-13504334D01*
X81277834Y-13608672D01*
X81260917Y-13743845D01*
X81241058Y-13905337D01*
X81218785Y-14088630D01*
X81194629Y-14289208D01*
X81169122Y-14502556D01*
X81142793Y-14724157D01*
X81116172Y-14949494D01*
X81089790Y-15174051D01*
X81064178Y-15393312D01*
X81039865Y-15602760D01*
X81017383Y-15797880D01*
X80997262Y-15974154D01*
X80980031Y-16127066D01*
X80966222Y-16252101D01*
X80956365Y-16344741D01*
X80950989Y-16400470D01*
X80950641Y-16404855D01*
X80943420Y-16488313D01*
X80935955Y-16555032D01*
X80929524Y-16594170D01*
X80927742Y-16599364D01*
X80923794Y-16622248D01*
X80915411Y-16683003D01*
X80903095Y-16777459D01*
X80887350Y-16901442D01*
X80868679Y-17050781D01*
X80847586Y-17221304D01*
X80824574Y-17408838D01*
X80800146Y-17609212D01*
X80774804Y-17818253D01*
X80749054Y-18031789D01*
X80723397Y-18245647D01*
X80698337Y-18455657D01*
X80674377Y-18657645D01*
X80652021Y-18847440D01*
X80631771Y-19020870D01*
X80614131Y-19173761D01*
X80599605Y-19301943D01*
X80588695Y-19401243D01*
X80582357Y-19462750D01*
X80574211Y-19540321D01*
X80561698Y-19650749D01*
X80545898Y-19784912D01*
X80527894Y-19933686D01*
X80508766Y-20087948D01*
X80500849Y-20150667D01*
X80482040Y-20299228D01*
X80464172Y-20441084D01*
X80448225Y-20568387D01*
X80435181Y-20673291D01*
X80426021Y-20747950D01*
X80423216Y-20771385D01*
X80405130Y-20864214D01*
X80372978Y-20931144D01*
X80352236Y-20957083D01*
X80333752Y-20976015D01*
X80312724Y-20991872D01*
X80284016Y-21005967D01*
X80242486Y-21019612D01*
X80182998Y-21034120D01*
X80100410Y-21050804D01*
X79989585Y-21070975D01*
X79845383Y-21095948D01*
X79734834Y-21114779D01*
X79578229Y-21141711D01*
X79428587Y-21168051D01*
X79293055Y-21192494D01*
X79178781Y-21213735D01*
X79092910Y-21230470D01*
X79046917Y-21240337D01*
X78952978Y-21259966D01*
X78852994Y-21276756D01*
X78803500Y-21283184D01*
X78758702Y-21289387D01*
X78676517Y-21302167D01*
X78561254Y-21320785D01*
X78417224Y-21344502D01*
X78248735Y-21372578D01*
X78060097Y-21404274D01*
X77855620Y-21438850D01*
X77639612Y-21475566D01*
X77416384Y-21513683D01*
X77190244Y-21552461D01*
X76965502Y-21591162D01*
X76746468Y-21629044D01*
X76537451Y-21665370D01*
X76342760Y-21699399D01*
X76166705Y-21730391D01*
X76013595Y-21757608D01*
X75887740Y-21780310D01*
X75793449Y-21797757D01*
X75735031Y-21809209D01*
X75723750Y-21811690D01*
X75632698Y-21830633D01*
X75538283Y-21846479D01*
X75490615Y-21852583D01*
X75447724Y-21858477D01*
X75367409Y-21870954D01*
X75253945Y-21889281D01*
X75111604Y-21912725D01*
X74944659Y-21940552D01*
X74757385Y-21972029D01*
X74554053Y-22006421D01*
X74338938Y-22042995D01*
X74116311Y-22081017D01*
X73890448Y-22119755D01*
X73665620Y-22158474D01*
X73446101Y-22196440D01*
X73236164Y-22232921D01*
X73040082Y-22267181D01*
X72862128Y-22298489D01*
X72706576Y-22326110D01*
X72577699Y-22349310D01*
X72479770Y-22367356D01*
X72417062Y-22379515D01*
X72400584Y-22383078D01*
X72307500Y-22402366D01*
X72209174Y-22418678D01*
X72160206Y-22424890D01*
X72100985Y-22432558D01*
X72009886Y-22446199D01*
X71896689Y-22464266D01*
X71771176Y-22485210D01*
X71684511Y-22500178D01*
X71559055Y-22521184D01*
X71441966Y-22538995D01*
X71342184Y-22552386D01*
X71268647Y-22560131D01*
X71236971Y-22561525D01*
X71208609Y-22558241D01*
X71140207Y-22548960D01*
X71033592Y-22533949D01*
X70890593Y-22513477D01*
X70713037Y-22487815D01*
X70502751Y-22457230D01*
X70261562Y-22421992D01*
X69991298Y-22382369D01*
X69693786Y-22338631D01*
X69370854Y-22291047D01*
X69024329Y-22239886D01*
X68656038Y-22185417D01*
X68267809Y-22127909D01*
X67861468Y-22067630D01*
X67438845Y-22004850D01*
X67001765Y-21939839D01*
X66552056Y-21872864D01*
X66091546Y-21804195D01*
X66006862Y-21791558D01*
X65545127Y-21722567D01*
X65094171Y-21655024D01*
X64655804Y-21589207D01*
X64231833Y-21525393D01*
X63824066Y-21463858D01*
X63434312Y-21404881D01*
X63064378Y-21348737D01*
X62716074Y-21295704D01*
X62391207Y-21246060D01*
X62091586Y-21200080D01*
X61819018Y-21158042D01*
X61575313Y-21120222D01*
X61362278Y-21086899D01*
X61181721Y-21058349D01*
X61035451Y-21034848D01*
X60925277Y-21016674D01*
X60853005Y-21004104D01*
X60820445Y-20997415D01*
X60818871Y-20996816D01*
X60772158Y-20956389D01*
X60747682Y-20925408D01*
X60744865Y-20912422D01*
X60741433Y-20880817D01*
X60737344Y-20829636D01*
X60732558Y-20757924D01*
X60727032Y-20664724D01*
X60720727Y-20549080D01*
X60713602Y-20410035D01*
X60705614Y-20246633D01*
X60696724Y-20057918D01*
X60686890Y-19842933D01*
X60676072Y-19600722D01*
X60664228Y-19330328D01*
X60651317Y-19030797D01*
X60637298Y-18701170D01*
X60622131Y-18340491D01*
X60605774Y-17947805D01*
X60588186Y-17522155D01*
X60569326Y-17062585D01*
X60549154Y-16568138D01*
X60527629Y-16037858D01*
X60504708Y-15470789D01*
X60480352Y-14865974D01*
X60454519Y-14222457D01*
X60427168Y-13539282D01*
X60398259Y-12815492D01*
X60375088Y-12234334D01*
X60351023Y-11629895D01*
X60327386Y-11035337D01*
X60304233Y-10452107D01*
X60281622Y-9881650D01*
X60259608Y-9325409D01*
X60238248Y-8784832D01*
X60217598Y-8261363D01*
X60197715Y-7756446D01*
X60178655Y-7271529D01*
X60160474Y-6808055D01*
X60143229Y-6367470D01*
X60126976Y-5951219D01*
X60111772Y-5560748D01*
X60097672Y-5197502D01*
X60084734Y-4862925D01*
X60073014Y-4558464D01*
X60062568Y-4285563D01*
X60053453Y-4045668D01*
X60045725Y-3840223D01*
X60039440Y-3670675D01*
X60034655Y-3538468D01*
X60033391Y-3501897D01*
X60499584Y-3501897D01*
X60501123Y-3564277D01*
X60504228Y-3665517D01*
X60508834Y-3803901D01*
X60514871Y-3977707D01*
X60522273Y-4185218D01*
X60530972Y-4424715D01*
X60540901Y-4694479D01*
X60551991Y-4992790D01*
X60564175Y-5317930D01*
X60577387Y-5668181D01*
X60591557Y-6041822D01*
X60606619Y-6437136D01*
X60622504Y-6852403D01*
X60639146Y-7285904D01*
X60656477Y-7735921D01*
X60674429Y-8200735D01*
X60692935Y-8678626D01*
X60711927Y-9167876D01*
X60731337Y-9666765D01*
X60751099Y-10173576D01*
X60771143Y-10686589D01*
X60791404Y-11204085D01*
X60811812Y-11724345D01*
X60832301Y-12245650D01*
X60852804Y-12766282D01*
X60873252Y-13284521D01*
X60893577Y-13798649D01*
X60913713Y-14306947D01*
X60933592Y-14807696D01*
X60953146Y-15299176D01*
X60972308Y-15779669D01*
X60991009Y-16247457D01*
X61009184Y-16700819D01*
X61026763Y-17138038D01*
X61043679Y-17557394D01*
X61059865Y-17957169D01*
X61075254Y-18335643D01*
X61089777Y-18691098D01*
X61103367Y-19021814D01*
X61115956Y-19326074D01*
X61127477Y-19602157D01*
X61137863Y-19848345D01*
X61147045Y-20062920D01*
X61154957Y-20244161D01*
X61161530Y-20390351D01*
X61166697Y-20499770D01*
X61170391Y-20570700D01*
X61172543Y-20601421D01*
X61172800Y-20602610D01*
X61194065Y-20606317D01*
X61254970Y-20615924D01*
X61353281Y-20631096D01*
X61486766Y-20651500D01*
X61653193Y-20676801D01*
X61850327Y-20706666D01*
X62075937Y-20740761D01*
X62327790Y-20778752D01*
X62603653Y-20820304D01*
X62901294Y-20865084D01*
X63218479Y-20912759D01*
X63552976Y-20962994D01*
X63902552Y-21015454D01*
X64264976Y-21069808D01*
X64638012Y-21125719D01*
X65019430Y-21182855D01*
X65406997Y-21240882D01*
X65798479Y-21299465D01*
X66191644Y-21358271D01*
X66584259Y-21416966D01*
X66974092Y-21475216D01*
X67358910Y-21532686D01*
X67736479Y-21589044D01*
X68104568Y-21643955D01*
X68460944Y-21697085D01*
X68803373Y-21748100D01*
X69129624Y-21796667D01*
X69437463Y-21842451D01*
X69724658Y-21885119D01*
X69988976Y-21924336D01*
X70228185Y-21959769D01*
X70440050Y-21991084D01*
X70622341Y-22017947D01*
X70772824Y-22040023D01*
X70889266Y-22056980D01*
X70969435Y-22068483D01*
X71011099Y-22074198D01*
X71016362Y-22074782D01*
X71028693Y-22070799D01*
X71038318Y-22053546D01*
X71044949Y-22022256D01*
X71504177Y-22022256D01*
X71508263Y-22054054D01*
X71518517Y-22065757D01*
X71535911Y-22064738D01*
X71536457Y-22064611D01*
X71566552Y-22058713D01*
X71632757Y-22046483D01*
X71729486Y-22028928D01*
X71851157Y-22007053D01*
X71992187Y-21981867D01*
X72146991Y-21954375D01*
X72188917Y-21946954D01*
X72351918Y-21918179D01*
X72507590Y-21890798D01*
X72649275Y-21865975D01*
X72770314Y-21844874D01*
X72864048Y-21828658D01*
X72923817Y-21818491D01*
X72929750Y-21817508D01*
X73023897Y-21801881D01*
X73150403Y-21780656D01*
X73305008Y-21754560D01*
X73483454Y-21724325D01*
X73681484Y-21690678D01*
X73894837Y-21654350D01*
X74119256Y-21616070D01*
X74350483Y-21576567D01*
X74584259Y-21536570D01*
X74816325Y-21496809D01*
X75042423Y-21458013D01*
X75258295Y-21420911D01*
X75459682Y-21386233D01*
X75642325Y-21354708D01*
X75801967Y-21327064D01*
X75934349Y-21304033D01*
X76035211Y-21286342D01*
X76100297Y-21274721D01*
X76115334Y-21271941D01*
X76174941Y-21261090D01*
X76272093Y-21243933D01*
X76402590Y-21221191D01*
X76562229Y-21193586D01*
X76746810Y-21161841D01*
X76952132Y-21126678D01*
X77173994Y-21088817D01*
X77408196Y-21048983D01*
X77650535Y-21007895D01*
X77724000Y-20995466D01*
X77969088Y-20953925D01*
X78208159Y-20913221D01*
X78436895Y-20874102D01*
X78650979Y-20837313D01*
X78846091Y-20803601D01*
X79017913Y-20773713D01*
X79162128Y-20748396D01*
X79274416Y-20728397D01*
X79350460Y-20714463D01*
X79364417Y-20711798D01*
X79486172Y-20689151D01*
X79614750Y-20666790D01*
X79732445Y-20647722D01*
X79801097Y-20637640D01*
X79983776Y-20612701D01*
X79996790Y-20492809D01*
X80005697Y-20405080D01*
X80015388Y-20301114D01*
X80021979Y-20224750D01*
X80030954Y-20134701D01*
X80042155Y-20048323D01*
X80051718Y-19991917D01*
X80057130Y-19956658D01*
X80066903Y-19883080D01*
X80080584Y-19774921D01*
X80097722Y-19635919D01*
X80117864Y-19469815D01*
X80140559Y-19280346D01*
X80165353Y-19071253D01*
X80191795Y-18846273D01*
X80219432Y-18609145D01*
X80230892Y-18510250D01*
X80259400Y-18264511D01*
X80287253Y-18025750D01*
X80313947Y-17798193D01*
X80338979Y-17586065D01*
X80361848Y-17393593D01*
X80382051Y-17225002D01*
X80399084Y-17084517D01*
X80412446Y-16976364D01*
X80421633Y-16904770D01*
X80423507Y-16891000D01*
X80433205Y-16818020D01*
X80446877Y-16710097D01*
X80463981Y-16571854D01*
X80483972Y-16407915D01*
X80506307Y-16222902D01*
X80530442Y-16021439D01*
X80555834Y-15808150D01*
X80581939Y-15587656D01*
X80608213Y-15364583D01*
X80634113Y-15143552D01*
X80659095Y-14929187D01*
X80682615Y-14726112D01*
X80704130Y-14538949D01*
X80723097Y-14372321D01*
X80738971Y-14230853D01*
X80751209Y-14119167D01*
X80759267Y-14041886D01*
X80762003Y-14012334D01*
X80770921Y-13920474D01*
X80781909Y-13832817D01*
X80792481Y-13768917D01*
X80797905Y-13733658D01*
X80807689Y-13660080D01*
X80821381Y-13551920D01*
X80838529Y-13412919D01*
X80858679Y-13246814D01*
X80881381Y-13057346D01*
X80906180Y-12848252D01*
X80932626Y-12623271D01*
X80960266Y-12386144D01*
X80971725Y-12287250D01*
X81000234Y-12041511D01*
X81028086Y-11802750D01*
X81054780Y-11575193D01*
X81079813Y-11363065D01*
X81102682Y-11170593D01*
X81122884Y-11002002D01*
X81139918Y-10861517D01*
X81153279Y-10753364D01*
X81162466Y-10681770D01*
X81164341Y-10668000D01*
X81174038Y-10595020D01*
X81187711Y-10487097D01*
X81204814Y-10348854D01*
X81224805Y-10184915D01*
X81247140Y-9999902D01*
X81271275Y-9798439D01*
X81296667Y-9585150D01*
X81322772Y-9364656D01*
X81349046Y-9141583D01*
X81374946Y-8920552D01*
X81399928Y-8706187D01*
X81423448Y-8503112D01*
X81444964Y-8315949D01*
X81463930Y-8149321D01*
X81479804Y-8007853D01*
X81492042Y-7896167D01*
X81500100Y-7818886D01*
X81502836Y-7789334D01*
X81511754Y-7697474D01*
X81522742Y-7609817D01*
X81533314Y-7545917D01*
X81538738Y-7510658D01*
X81548523Y-7437080D01*
X81562215Y-7328920D01*
X81579362Y-7189919D01*
X81599513Y-7023814D01*
X81622214Y-6834346D01*
X81647014Y-6625252D01*
X81673459Y-6400271D01*
X81701099Y-6163144D01*
X81712559Y-6064250D01*
X81741067Y-5818511D01*
X81768919Y-5579750D01*
X81795612Y-5352193D01*
X81820643Y-5140066D01*
X81843510Y-4947593D01*
X81863711Y-4779002D01*
X81880743Y-4638517D01*
X81894102Y-4530365D01*
X81903287Y-4458770D01*
X81905160Y-4445000D01*
X81928659Y-4271096D01*
X81950142Y-4101766D01*
X81969074Y-3942201D01*
X81984919Y-3797590D01*
X81997141Y-3673124D01*
X82005205Y-3573994D01*
X82008576Y-3505388D01*
X82006718Y-3472497D01*
X82005693Y-3470680D01*
X81981401Y-3464946D01*
X81920016Y-3455440D01*
X81826545Y-3442795D01*
X81705997Y-3427647D01*
X81563383Y-3410631D01*
X81403711Y-3392382D01*
X81280000Y-3378726D01*
X81104306Y-3359468D01*
X80936044Y-3340752D01*
X80781407Y-3323286D01*
X80646587Y-3307780D01*
X80537777Y-3294942D01*
X80461169Y-3285483D01*
X80433334Y-3281738D01*
X80389820Y-3276064D01*
X80309173Y-3266149D01*
X80196315Y-3252566D01*
X80056171Y-3235888D01*
X79893666Y-3216687D01*
X79713724Y-3195537D01*
X79521270Y-3173009D01*
X79321226Y-3149676D01*
X79118519Y-3126112D01*
X78918072Y-3102888D01*
X78724809Y-3080578D01*
X78543656Y-3059754D01*
X78379536Y-3040988D01*
X78237373Y-3024854D01*
X78122092Y-3011924D01*
X78038618Y-3002771D01*
X77999167Y-2998662D01*
X77945174Y-2992962D01*
X77855301Y-2983007D01*
X77734432Y-2969367D01*
X77587449Y-2952609D01*
X77419234Y-2933304D01*
X77234671Y-2912019D01*
X77038640Y-2889324D01*
X76836025Y-2865788D01*
X76631709Y-2841980D01*
X76430573Y-2818468D01*
X76237501Y-2795822D01*
X76057375Y-2774610D01*
X75895076Y-2755402D01*
X75755489Y-2738765D01*
X75643495Y-2725270D01*
X75563976Y-2715485D01*
X75522667Y-2710101D01*
X75478395Y-2704343D01*
X75397006Y-2694352D01*
X75283441Y-2680699D01*
X75142642Y-2663961D01*
X74979551Y-2644711D01*
X74799109Y-2623523D01*
X74606258Y-2600971D01*
X74405940Y-2577629D01*
X74203097Y-2554072D01*
X74002670Y-2530873D01*
X73809602Y-2508607D01*
X73628834Y-2487848D01*
X73465307Y-2469169D01*
X73323964Y-2453146D01*
X73209747Y-2440352D01*
X73127596Y-2431360D01*
X73088500Y-2427312D01*
X73031089Y-2421122D01*
X72943208Y-2410880D01*
X72836371Y-2397959D01*
X72722093Y-2383731D01*
X72710767Y-2382298D01*
X72606298Y-2369858D01*
X72517730Y-2360830D01*
X72453087Y-2355916D01*
X72420389Y-2355821D01*
X72418158Y-2356620D01*
X72414466Y-2379797D01*
X72409725Y-2439121D01*
X72404294Y-2528431D01*
X72398529Y-2641562D01*
X72392787Y-2772355D01*
X72390142Y-2839665D01*
X72385465Y-2956577D01*
X72378954Y-3109368D01*
X72370903Y-3291637D01*
X72361605Y-3496982D01*
X72351352Y-3719003D01*
X72340439Y-3951299D01*
X72329156Y-4187468D01*
X72317799Y-4421109D01*
X72317146Y-4434417D01*
X72306266Y-4657616D01*
X72295806Y-4875491D01*
X72285999Y-5082949D01*
X72277079Y-5274897D01*
X72269280Y-5446245D01*
X72262836Y-5591899D01*
X72257979Y-5706768D01*
X72254944Y-5785759D01*
X72254487Y-5799667D01*
X72252127Y-5864319D01*
X72247926Y-5966796D01*
X72242086Y-6102639D01*
X72234808Y-6267387D01*
X72226292Y-6456582D01*
X72216738Y-6665764D01*
X72206349Y-6890475D01*
X72195325Y-7126253D01*
X72183866Y-7368641D01*
X72182985Y-7387167D01*
X72171814Y-7622358D01*
X72161254Y-7845444D01*
X72151478Y-8052762D01*
X72142655Y-8240649D01*
X72134956Y-8405444D01*
X72128554Y-8543483D01*
X72123618Y-8651102D01*
X72120320Y-8724641D01*
X72118830Y-8760435D01*
X72118761Y-8763000D01*
X72117718Y-8789653D01*
X72114822Y-8854577D01*
X72110261Y-8953758D01*
X72104225Y-9083183D01*
X72096900Y-9238838D01*
X72088476Y-9416710D01*
X72079142Y-9612785D01*
X72069085Y-9823051D01*
X72064089Y-9927167D01*
X72052858Y-10161994D01*
X72041562Y-10400101D01*
X72030501Y-10635059D01*
X72019972Y-10860440D01*
X72010276Y-11069813D01*
X72001710Y-11256750D01*
X71994575Y-11414822D01*
X71989168Y-11537600D01*
X71988789Y-11546417D01*
X71982964Y-11679204D01*
X71975444Y-11846170D01*
X71966605Y-12039209D01*
X71956822Y-12250218D01*
X71946472Y-12471093D01*
X71935930Y-12693728D01*
X71925573Y-12910020D01*
X71924473Y-12932834D01*
X71914207Y-13147943D01*
X71903806Y-13370278D01*
X71893634Y-13591734D01*
X71884056Y-13804208D01*
X71875438Y-13999595D01*
X71868143Y-14169791D01*
X71862538Y-14306693D01*
X71862044Y-14319250D01*
X71857120Y-14439666D01*
X71850387Y-14595817D01*
X71842146Y-14781155D01*
X71832697Y-14989136D01*
X71822340Y-15213213D01*
X71811375Y-15446838D01*
X71800103Y-15683467D01*
X71788822Y-15916553D01*
X71788784Y-15917334D01*
X71777972Y-16140473D01*
X71767532Y-16359076D01*
X71757704Y-16567901D01*
X71748728Y-16761702D01*
X71740844Y-16935237D01*
X71734293Y-17083260D01*
X71729315Y-17200529D01*
X71726150Y-17281799D01*
X71725759Y-17293167D01*
X71723167Y-17361936D01*
X71718742Y-17468420D01*
X71712691Y-17608048D01*
X71705219Y-17776249D01*
X71696533Y-17968454D01*
X71686840Y-18180093D01*
X71676346Y-18406596D01*
X71665258Y-18643392D01*
X71653783Y-18885911D01*
X71653529Y-18891250D01*
X71642406Y-19125500D01*
X71631902Y-19347637D01*
X71622188Y-19553984D01*
X71613435Y-19740861D01*
X71605815Y-19904592D01*
X71599498Y-20041496D01*
X71594655Y-20147898D01*
X71591458Y-20220118D01*
X71590078Y-20254477D01*
X71590035Y-20256500D01*
X71588979Y-20289420D01*
X71586040Y-20358732D01*
X71581508Y-20458551D01*
X71575673Y-20582991D01*
X71568824Y-20726166D01*
X71561253Y-20882192D01*
X71553248Y-21045182D01*
X71545099Y-21209251D01*
X71537097Y-21368514D01*
X71529532Y-21517085D01*
X71522692Y-21649079D01*
X71516869Y-21758610D01*
X71512352Y-21839793D01*
X71510612Y-21868891D01*
X71505284Y-21962992D01*
X71504177Y-22022256D01*
X71044949Y-22022256D01*
X71045938Y-22017591D01*
X71052255Y-21957504D01*
X71057969Y-21867852D01*
X71063783Y-21743204D01*
X71065961Y-21690542D01*
X71072152Y-21538006D01*
X71077634Y-21403785D01*
X71082649Y-21282533D01*
X71087433Y-21168903D01*
X71092226Y-21057552D01*
X71097268Y-20943134D01*
X71102796Y-20820303D01*
X71109051Y-20683715D01*
X71116270Y-20528023D01*
X71124694Y-20347883D01*
X71134561Y-20137949D01*
X71146110Y-19892877D01*
X71150424Y-19801417D01*
X71161424Y-19567461D01*
X71172522Y-19330085D01*
X71183418Y-19095774D01*
X71193811Y-18871018D01*
X71203405Y-18662304D01*
X71211899Y-18476120D01*
X71218994Y-18318954D01*
X71224391Y-18197292D01*
X71224589Y-18192750D01*
X71230487Y-18059962D01*
X71238064Y-17892994D01*
X71246945Y-17699953D01*
X71256752Y-17488941D01*
X71267108Y-17268065D01*
X71277636Y-17045428D01*
X71287960Y-16829135D01*
X71289055Y-16806334D01*
X71299308Y-16590621D01*
X71309732Y-16367169D01*
X71319955Y-16144180D01*
X71329610Y-15929856D01*
X71338328Y-15732401D01*
X71345738Y-15560015D01*
X71351472Y-15420903D01*
X71351931Y-15409334D01*
X71356985Y-15286625D01*
X71363829Y-15128248D01*
X71372161Y-14940815D01*
X71381679Y-14730940D01*
X71392080Y-14505236D01*
X71403061Y-14270316D01*
X71414321Y-14032792D01*
X71425489Y-13800667D01*
X71436218Y-13577978D01*
X71446575Y-13360193D01*
X71456323Y-13152498D01*
X71465224Y-12960079D01*
X71473040Y-12788123D01*
X71479535Y-12641815D01*
X71484470Y-12526343D01*
X71487608Y-12446892D01*
X71488012Y-12435417D01*
X71490563Y-12368617D01*
X71494927Y-12264060D01*
X71500902Y-12126273D01*
X71508282Y-11959782D01*
X71516864Y-11769116D01*
X71526444Y-11558803D01*
X71536819Y-11333369D01*
X71547785Y-11097342D01*
X71559137Y-10855250D01*
X71559483Y-10847917D01*
X71570519Y-10613297D01*
X71580958Y-10390505D01*
X71590629Y-10183259D01*
X71599359Y-9995274D01*
X71606979Y-9830268D01*
X71613315Y-9691957D01*
X71618197Y-9584058D01*
X71621453Y-9510287D01*
X71622911Y-9474361D01*
X71622971Y-9472084D01*
X71624094Y-9441982D01*
X71627042Y-9373618D01*
X71631628Y-9271016D01*
X71637663Y-9138199D01*
X71644958Y-8979190D01*
X71653324Y-8798013D01*
X71662573Y-8598691D01*
X71672516Y-8385247D01*
X71682964Y-8161706D01*
X71693729Y-7932090D01*
X71704621Y-7700422D01*
X71715453Y-7470727D01*
X71726035Y-7247027D01*
X71736179Y-7033347D01*
X71745696Y-6833708D01*
X71754398Y-6652136D01*
X71762095Y-6492653D01*
X71768599Y-6359283D01*
X71773722Y-6256048D01*
X71774858Y-6233584D01*
X71780340Y-6121982D01*
X71787271Y-5974846D01*
X71795347Y-5798937D01*
X71804267Y-5601016D01*
X71813726Y-5387846D01*
X71823421Y-5166189D01*
X71833049Y-4942807D01*
X71838918Y-4804834D01*
X71848283Y-4586417D01*
X71857893Y-4367652D01*
X71867452Y-4154928D01*
X71876665Y-3954631D01*
X71885234Y-3773149D01*
X71892864Y-3616871D01*
X71899258Y-3492183D01*
X71902731Y-3429000D01*
X71911377Y-3270856D01*
X71920437Y-3092194D01*
X71928993Y-2911939D01*
X71936125Y-2749015D01*
X71937940Y-2704042D01*
X71942821Y-2574077D01*
X71945373Y-2480465D01*
X71945153Y-2417268D01*
X71941722Y-2378547D01*
X71934638Y-2358364D01*
X71923462Y-2350780D01*
X71911645Y-2349792D01*
X71882076Y-2351910D01*
X71812876Y-2357995D01*
X71706138Y-2367839D01*
X71563954Y-2381236D01*
X71388420Y-2397977D01*
X71181628Y-2417856D01*
X70945671Y-2440665D01*
X70682644Y-2466197D01*
X70394639Y-2494244D01*
X70083750Y-2524599D01*
X69752072Y-2557055D01*
X69401696Y-2591405D01*
X69034717Y-2627440D01*
X68653228Y-2664954D01*
X68259322Y-2703739D01*
X67855094Y-2743588D01*
X67442636Y-2784294D01*
X67024042Y-2825649D01*
X66601406Y-2867446D01*
X66176821Y-2909477D01*
X65752380Y-2951536D01*
X65330177Y-2993414D01*
X64912306Y-3034905D01*
X64500860Y-3075801D01*
X64097932Y-3115895D01*
X63705616Y-3154980D01*
X63326005Y-3192847D01*
X62961194Y-3229290D01*
X62613275Y-3264102D01*
X62284341Y-3297074D01*
X61976487Y-3328001D01*
X61691806Y-3356673D01*
X61432391Y-3382885D01*
X61200336Y-3406428D01*
X60997735Y-3427095D01*
X60826680Y-3444680D01*
X60689265Y-3458974D01*
X60587584Y-3469770D01*
X60523731Y-3476861D01*
X60499798Y-3480040D01*
X60499680Y-3480098D01*
X60499584Y-3501897D01*
X60033391Y-3501897D01*
X60031426Y-3445048D01*
X60029809Y-3391860D01*
X60029624Y-3381709D01*
X60029892Y-3285598D01*
X60033268Y-3221248D01*
X60042004Y-3178096D01*
X60058349Y-3145579D01*
X60084553Y-3113132D01*
X60087551Y-3109766D01*
X60146434Y-3043863D01*
X66157092Y-2452212D01*
X72167750Y-1860560D01*
X72771000Y-1925446D01*
G37*
X72771000Y-1925446D02*
X72934912Y-1943255D01*
X73092732Y-1960734D01*
X73237327Y-1977067D01*
X73361564Y-1991440D01*
X73458310Y-2003036D01*
X73520432Y-2011042D01*
X73522417Y-2011321D01*
X73579066Y-2018789D01*
X73672478Y-2030437D01*
X73797356Y-2045647D01*
X73948404Y-2063799D01*
X74120323Y-2084276D01*
X74307818Y-2106456D01*
X74505591Y-2129723D01*
X74708345Y-2153455D01*
X74910783Y-2177036D01*
X75107607Y-2199845D01*
X75293522Y-2221263D01*
X75463229Y-2240672D01*
X75611432Y-2257452D01*
X75732833Y-2270984D01*
X75822136Y-2280650D01*
X75861334Y-2284651D01*
X75917873Y-2290584D01*
X76011601Y-2300971D01*
X76137669Y-2315252D01*
X76291230Y-2332869D01*
X76467437Y-2353263D01*
X76661441Y-2375874D01*
X76868396Y-2400143D01*
X77083454Y-2425511D01*
X77120750Y-2429925D01*
X77333615Y-2455073D01*
X77536688Y-2478946D01*
X77725511Y-2501027D01*
X77895630Y-2520802D01*
X78042587Y-2537754D01*
X78161927Y-2551368D01*
X78249193Y-2561128D01*
X78299929Y-2566519D01*
X78306084Y-2567097D01*
X78347456Y-2571404D01*
X78426429Y-2580261D01*
X78538575Y-2593150D01*
X78679466Y-2609552D01*
X78844673Y-2628950D01*
X79029769Y-2650823D01*
X79230325Y-2674654D01*
X79441913Y-2699925D01*
X79502000Y-2707125D01*
X79719381Y-2733102D01*
X79929817Y-2758085D01*
X80128437Y-2781507D01*
X80310374Y-2802800D01*
X80470757Y-2821397D01*
X80604716Y-2836732D01*
X80707381Y-2848239D01*
X80773884Y-2855349D01*
X80782584Y-2856209D01*
X80915287Y-2869726D01*
X81066313Y-2886310D01*
X81230256Y-2905256D01*
X81401710Y-2925861D01*
X81575269Y-2947418D01*
X81745527Y-2969222D01*
X81907078Y-2990570D01*
X82054517Y-3010756D01*
X82182438Y-3029075D01*
X82285435Y-3044822D01*
X82358102Y-3057292D01*
X82395033Y-3065781D01*
X82397367Y-3066777D01*
X82439355Y-3102811D01*
X82476840Y-3155646D01*
X82477859Y-3157590D01*
X82491282Y-3187517D01*
X82499136Y-3220069D01*
X82501441Y-3263458D01*
X82498215Y-3325894D01*
X82489475Y-3415587D01*
X82478640Y-3511504D01*
X82464937Y-3633515D01*
X82451968Y-3755589D01*
X82441157Y-3863914D01*
X82433927Y-3944677D01*
X82433698Y-3947584D01*
X82424305Y-4042628D01*
X82411715Y-4138654D01*
X82401118Y-4201584D01*
X82395063Y-4240785D01*
X82384672Y-4318182D01*
X82370416Y-4429909D01*
X82352765Y-4572102D01*
X82332189Y-4740895D01*
X82309158Y-4932426D01*
X82284142Y-5142828D01*
X82257612Y-5368237D01*
X82230037Y-5604788D01*
X82222172Y-5672667D01*
X82193899Y-5916504D01*
X82166239Y-6154043D01*
X82139708Y-6380910D01*
X82114824Y-6592731D01*
X82092104Y-6785131D01*
X82072064Y-6953737D01*
X82055220Y-7094174D01*
X82042091Y-7202068D01*
X82033192Y-7273044D01*
X82032110Y-7281334D01*
X82019792Y-7377089D01*
X82003876Y-7504507D01*
X81984894Y-7659076D01*
X81963376Y-7836286D01*
X81939854Y-8031628D01*
X81914857Y-8240591D01*
X81888916Y-8458664D01*
X81862563Y-8681338D01*
X81836328Y-8904103D01*
X81810741Y-9122448D01*
X81786334Y-9331863D01*
X81763637Y-9527838D01*
X81743180Y-9705863D01*
X81725495Y-9861428D01*
X81711113Y-9990022D01*
X81700563Y-10087135D01*
X81694378Y-10148258D01*
X81693366Y-10160000D01*
X81684090Y-10256498D01*
X81671881Y-10353165D01*
X81660191Y-10424584D01*
X81654152Y-10463785D01*
X81643776Y-10541182D01*
X81629535Y-10652909D01*
X81611896Y-10795101D01*
X81591332Y-10963895D01*
X81568310Y-11155425D01*
X81543302Y-11365826D01*
X81516776Y-11591235D01*
X81489203Y-11827786D01*
X81481339Y-11895667D01*
X81453066Y-12139504D01*
X81425405Y-12377043D01*
X81398875Y-12603910D01*
X81373991Y-12815731D01*
X81351271Y-13008131D01*
X81331230Y-13176737D01*
X81314387Y-13317174D01*
X81301258Y-13425068D01*
X81292359Y-13496044D01*
X81291277Y-13504334D01*
X81277834Y-13608672D01*
X81260917Y-13743845D01*
X81241058Y-13905337D01*
X81218785Y-14088630D01*
X81194629Y-14289208D01*
X81169122Y-14502556D01*
X81142793Y-14724157D01*
X81116172Y-14949494D01*
X81089790Y-15174051D01*
X81064178Y-15393312D01*
X81039865Y-15602760D01*
X81017383Y-15797880D01*
X80997262Y-15974154D01*
X80980031Y-16127066D01*
X80966222Y-16252101D01*
X80956365Y-16344741D01*
X80950989Y-16400470D01*
X80950641Y-16404855D01*
X80943420Y-16488313D01*
X80935955Y-16555032D01*
X80929524Y-16594170D01*
X80927742Y-16599364D01*
X80923794Y-16622248D01*
X80915411Y-16683003D01*
X80903095Y-16777459D01*
X80887350Y-16901442D01*
X80868679Y-17050781D01*
X80847586Y-17221304D01*
X80824574Y-17408838D01*
X80800146Y-17609212D01*
X80774804Y-17818253D01*
X80749054Y-18031789D01*
X80723397Y-18245647D01*
X80698337Y-18455657D01*
X80674377Y-18657645D01*
X80652021Y-18847440D01*
X80631771Y-19020870D01*
X80614131Y-19173761D01*
X80599605Y-19301943D01*
X80588695Y-19401243D01*
X80582357Y-19462750D01*
X80574211Y-19540321D01*
X80561698Y-19650749D01*
X80545898Y-19784912D01*
X80527894Y-19933686D01*
X80508766Y-20087948D01*
X80500849Y-20150667D01*
X80482040Y-20299228D01*
X80464172Y-20441084D01*
X80448225Y-20568387D01*
X80435181Y-20673291D01*
X80426021Y-20747950D01*
X80423216Y-20771385D01*
X80405130Y-20864214D01*
X80372978Y-20931144D01*
X80352236Y-20957083D01*
X80333752Y-20976015D01*
X80312724Y-20991872D01*
X80284016Y-21005967D01*
X80242486Y-21019612D01*
X80182998Y-21034120D01*
X80100410Y-21050804D01*
X79989585Y-21070975D01*
X79845383Y-21095948D01*
X79734834Y-21114779D01*
X79578229Y-21141711D01*
X79428587Y-21168051D01*
X79293055Y-21192494D01*
X79178781Y-21213735D01*
X79092910Y-21230470D01*
X79046917Y-21240337D01*
X78952978Y-21259966D01*
X78852994Y-21276756D01*
X78803500Y-21283184D01*
X78758702Y-21289387D01*
X78676517Y-21302167D01*
X78561254Y-21320785D01*
X78417224Y-21344502D01*
X78248735Y-21372578D01*
X78060097Y-21404274D01*
X77855620Y-21438850D01*
X77639612Y-21475566D01*
X77416384Y-21513683D01*
X77190244Y-21552461D01*
X76965502Y-21591162D01*
X76746468Y-21629044D01*
X76537451Y-21665370D01*
X76342760Y-21699399D01*
X76166705Y-21730391D01*
X76013595Y-21757608D01*
X75887740Y-21780310D01*
X75793449Y-21797757D01*
X75735031Y-21809209D01*
X75723750Y-21811690D01*
X75632698Y-21830633D01*
X75538283Y-21846479D01*
X75490615Y-21852583D01*
X75447724Y-21858477D01*
X75367409Y-21870954D01*
X75253945Y-21889281D01*
X75111604Y-21912725D01*
X74944659Y-21940552D01*
X74757385Y-21972029D01*
X74554053Y-22006421D01*
X74338938Y-22042995D01*
X74116311Y-22081017D01*
X73890448Y-22119755D01*
X73665620Y-22158474D01*
X73446101Y-22196440D01*
X73236164Y-22232921D01*
X73040082Y-22267181D01*
X72862128Y-22298489D01*
X72706576Y-22326110D01*
X72577699Y-22349310D01*
X72479770Y-22367356D01*
X72417062Y-22379515D01*
X72400584Y-22383078D01*
X72307500Y-22402366D01*
X72209174Y-22418678D01*
X72160206Y-22424890D01*
X72100985Y-22432558D01*
X72009886Y-22446199D01*
X71896689Y-22464266D01*
X71771176Y-22485210D01*
X71684511Y-22500178D01*
X71559055Y-22521184D01*
X71441966Y-22538995D01*
X71342184Y-22552386D01*
X71268647Y-22560131D01*
X71236971Y-22561525D01*
X71208609Y-22558241D01*
X71140207Y-22548960D01*
X71033592Y-22533949D01*
X70890593Y-22513477D01*
X70713037Y-22487815D01*
X70502751Y-22457230D01*
X70261562Y-22421992D01*
X69991298Y-22382369D01*
X69693786Y-22338631D01*
X69370854Y-22291047D01*
X69024329Y-22239886D01*
X68656038Y-22185417D01*
X68267809Y-22127909D01*
X67861468Y-22067630D01*
X67438845Y-22004850D01*
X67001765Y-21939839D01*
X66552056Y-21872864D01*
X66091546Y-21804195D01*
X66006862Y-21791558D01*
X65545127Y-21722567D01*
X65094171Y-21655024D01*
X64655804Y-21589207D01*
X64231833Y-21525393D01*
X63824066Y-21463858D01*
X63434312Y-21404881D01*
X63064378Y-21348737D01*
X62716074Y-21295704D01*
X62391207Y-21246060D01*
X62091586Y-21200080D01*
X61819018Y-21158042D01*
X61575313Y-21120222D01*
X61362278Y-21086899D01*
X61181721Y-21058349D01*
X61035451Y-21034848D01*
X60925277Y-21016674D01*
X60853005Y-21004104D01*
X60820445Y-20997415D01*
X60818871Y-20996816D01*
X60772158Y-20956389D01*
X60747682Y-20925408D01*
X60744865Y-20912422D01*
X60741433Y-20880817D01*
X60737344Y-20829636D01*
X60732558Y-20757924D01*
X60727032Y-20664724D01*
X60720727Y-20549080D01*
X60713602Y-20410035D01*
X60705614Y-20246633D01*
X60696724Y-20057918D01*
X60686890Y-19842933D01*
X60676072Y-19600722D01*
X60664228Y-19330328D01*
X60651317Y-19030797D01*
X60637298Y-18701170D01*
X60622131Y-18340491D01*
X60605774Y-17947805D01*
X60588186Y-17522155D01*
X60569326Y-17062585D01*
X60549154Y-16568138D01*
X60527629Y-16037858D01*
X60504708Y-15470789D01*
X60480352Y-14865974D01*
X60454519Y-14222457D01*
X60427168Y-13539282D01*
X60398259Y-12815492D01*
X60375088Y-12234334D01*
X60351023Y-11629895D01*
X60327386Y-11035337D01*
X60304233Y-10452107D01*
X60281622Y-9881650D01*
X60259608Y-9325409D01*
X60238248Y-8784832D01*
X60217598Y-8261363D01*
X60197715Y-7756446D01*
X60178655Y-7271529D01*
X60160474Y-6808055D01*
X60143229Y-6367470D01*
X60126976Y-5951219D01*
X60111772Y-5560748D01*
X60097672Y-5197502D01*
X60084734Y-4862925D01*
X60073014Y-4558464D01*
X60062568Y-4285563D01*
X60053453Y-4045668D01*
X60045725Y-3840223D01*
X60039440Y-3670675D01*
X60034655Y-3538468D01*
X60033391Y-3501897D01*
X60499584Y-3501897D01*
X60501123Y-3564277D01*
X60504228Y-3665517D01*
X60508834Y-3803901D01*
X60514871Y-3977707D01*
X60522273Y-4185218D01*
X60530972Y-4424715D01*
X60540901Y-4694479D01*
X60551991Y-4992790D01*
X60564175Y-5317930D01*
X60577387Y-5668181D01*
X60591557Y-6041822D01*
X60606619Y-6437136D01*
X60622504Y-6852403D01*
X60639146Y-7285904D01*
X60656477Y-7735921D01*
X60674429Y-8200735D01*
X60692935Y-8678626D01*
X60711927Y-9167876D01*
X60731337Y-9666765D01*
X60751099Y-10173576D01*
X60771143Y-10686589D01*
X60791404Y-11204085D01*
X60811812Y-11724345D01*
X60832301Y-12245650D01*
X60852804Y-12766282D01*
X60873252Y-13284521D01*
X60893577Y-13798649D01*
X60913713Y-14306947D01*
X60933592Y-14807696D01*
X60953146Y-15299176D01*
X60972308Y-15779669D01*
X60991009Y-16247457D01*
X61009184Y-16700819D01*
X61026763Y-17138038D01*
X61043679Y-17557394D01*
X61059865Y-17957169D01*
X61075254Y-18335643D01*
X61089777Y-18691098D01*
X61103367Y-19021814D01*
X61115956Y-19326074D01*
X61127477Y-19602157D01*
X61137863Y-19848345D01*
X61147045Y-20062920D01*
X61154957Y-20244161D01*
X61161530Y-20390351D01*
X61166697Y-20499770D01*
X61170391Y-20570700D01*
X61172543Y-20601421D01*
X61172800Y-20602610D01*
X61194065Y-20606317D01*
X61254970Y-20615924D01*
X61353281Y-20631096D01*
X61486766Y-20651500D01*
X61653193Y-20676801D01*
X61850327Y-20706666D01*
X62075937Y-20740761D01*
X62327790Y-20778752D01*
X62603653Y-20820304D01*
X62901294Y-20865084D01*
X63218479Y-20912759D01*
X63552976Y-20962994D01*
X63902552Y-21015454D01*
X64264976Y-21069808D01*
X64638012Y-21125719D01*
X65019430Y-21182855D01*
X65406997Y-21240882D01*
X65798479Y-21299465D01*
X66191644Y-21358271D01*
X66584259Y-21416966D01*
X66974092Y-21475216D01*
X67358910Y-21532686D01*
X67736479Y-21589044D01*
X68104568Y-21643955D01*
X68460944Y-21697085D01*
X68803373Y-21748100D01*
X69129624Y-21796667D01*
X69437463Y-21842451D01*
X69724658Y-21885119D01*
X69988976Y-21924336D01*
X70228185Y-21959769D01*
X70440050Y-21991084D01*
X70622341Y-22017947D01*
X70772824Y-22040023D01*
X70889266Y-22056980D01*
X70969435Y-22068483D01*
X71011099Y-22074198D01*
X71016362Y-22074782D01*
X71028693Y-22070799D01*
X71038318Y-22053546D01*
X71044949Y-22022256D01*
X71504177Y-22022256D01*
X71508263Y-22054054D01*
X71518517Y-22065757D01*
X71535911Y-22064738D01*
X71536457Y-22064611D01*
X71566552Y-22058713D01*
X71632757Y-22046483D01*
X71729486Y-22028928D01*
X71851157Y-22007053D01*
X71992187Y-21981867D01*
X72146991Y-21954375D01*
X72188917Y-21946954D01*
X72351918Y-21918179D01*
X72507590Y-21890798D01*
X72649275Y-21865975D01*
X72770314Y-21844874D01*
X72864048Y-21828658D01*
X72923817Y-21818491D01*
X72929750Y-21817508D01*
X73023897Y-21801881D01*
X73150403Y-21780656D01*
X73305008Y-21754560D01*
X73483454Y-21724325D01*
X73681484Y-21690678D01*
X73894837Y-21654350D01*
X74119256Y-21616070D01*
X74350483Y-21576567D01*
X74584259Y-21536570D01*
X74816325Y-21496809D01*
X75042423Y-21458013D01*
X75258295Y-21420911D01*
X75459682Y-21386233D01*
X75642325Y-21354708D01*
X75801967Y-21327064D01*
X75934349Y-21304033D01*
X76035211Y-21286342D01*
X76100297Y-21274721D01*
X76115334Y-21271941D01*
X76174941Y-21261090D01*
X76272093Y-21243933D01*
X76402590Y-21221191D01*
X76562229Y-21193586D01*
X76746810Y-21161841D01*
X76952132Y-21126678D01*
X77173994Y-21088817D01*
X77408196Y-21048983D01*
X77650535Y-21007895D01*
X77724000Y-20995466D01*
X77969088Y-20953925D01*
X78208159Y-20913221D01*
X78436895Y-20874102D01*
X78650979Y-20837313D01*
X78846091Y-20803601D01*
X79017913Y-20773713D01*
X79162128Y-20748396D01*
X79274416Y-20728397D01*
X79350460Y-20714463D01*
X79364417Y-20711798D01*
X79486172Y-20689151D01*
X79614750Y-20666790D01*
X79732445Y-20647722D01*
X79801097Y-20637640D01*
X79983776Y-20612701D01*
X79996790Y-20492809D01*
X80005697Y-20405080D01*
X80015388Y-20301114D01*
X80021979Y-20224750D01*
X80030954Y-20134701D01*
X80042155Y-20048323D01*
X80051718Y-19991917D01*
X80057130Y-19956658D01*
X80066903Y-19883080D01*
X80080584Y-19774921D01*
X80097722Y-19635919D01*
X80117864Y-19469815D01*
X80140559Y-19280346D01*
X80165353Y-19071253D01*
X80191795Y-18846273D01*
X80219432Y-18609145D01*
X80230892Y-18510250D01*
X80259400Y-18264511D01*
X80287253Y-18025750D01*
X80313947Y-17798193D01*
X80338979Y-17586065D01*
X80361848Y-17393593D01*
X80382051Y-17225002D01*
X80399084Y-17084517D01*
X80412446Y-16976364D01*
X80421633Y-16904770D01*
X80423507Y-16891000D01*
X80433205Y-16818020D01*
X80446877Y-16710097D01*
X80463981Y-16571854D01*
X80483972Y-16407915D01*
X80506307Y-16222902D01*
X80530442Y-16021439D01*
X80555834Y-15808150D01*
X80581939Y-15587656D01*
X80608213Y-15364583D01*
X80634113Y-15143552D01*
X80659095Y-14929187D01*
X80682615Y-14726112D01*
X80704130Y-14538949D01*
X80723097Y-14372321D01*
X80738971Y-14230853D01*
X80751209Y-14119167D01*
X80759267Y-14041886D01*
X80762003Y-14012334D01*
X80770921Y-13920474D01*
X80781909Y-13832817D01*
X80792481Y-13768917D01*
X80797905Y-13733658D01*
X80807689Y-13660080D01*
X80821381Y-13551920D01*
X80838529Y-13412919D01*
X80858679Y-13246814D01*
X80881381Y-13057346D01*
X80906180Y-12848252D01*
X80932626Y-12623271D01*
X80960266Y-12386144D01*
X80971725Y-12287250D01*
X81000234Y-12041511D01*
X81028086Y-11802750D01*
X81054780Y-11575193D01*
X81079813Y-11363065D01*
X81102682Y-11170593D01*
X81122884Y-11002002D01*
X81139918Y-10861517D01*
X81153279Y-10753364D01*
X81162466Y-10681770D01*
X81164341Y-10668000D01*
X81174038Y-10595020D01*
X81187711Y-10487097D01*
X81204814Y-10348854D01*
X81224805Y-10184915D01*
X81247140Y-9999902D01*
X81271275Y-9798439D01*
X81296667Y-9585150D01*
X81322772Y-9364656D01*
X81349046Y-9141583D01*
X81374946Y-8920552D01*
X81399928Y-8706187D01*
X81423448Y-8503112D01*
X81444964Y-8315949D01*
X81463930Y-8149321D01*
X81479804Y-8007853D01*
X81492042Y-7896167D01*
X81500100Y-7818886D01*
X81502836Y-7789334D01*
X81511754Y-7697474D01*
X81522742Y-7609817D01*
X81533314Y-7545917D01*
X81538738Y-7510658D01*
X81548523Y-7437080D01*
X81562215Y-7328920D01*
X81579362Y-7189919D01*
X81599513Y-7023814D01*
X81622214Y-6834346D01*
X81647014Y-6625252D01*
X81673459Y-6400271D01*
X81701099Y-6163144D01*
X81712559Y-6064250D01*
X81741067Y-5818511D01*
X81768919Y-5579750D01*
X81795612Y-5352193D01*
X81820643Y-5140066D01*
X81843510Y-4947593D01*
X81863711Y-4779002D01*
X81880743Y-4638517D01*
X81894102Y-4530365D01*
X81903287Y-4458770D01*
X81905160Y-4445000D01*
X81928659Y-4271096D01*
X81950142Y-4101766D01*
X81969074Y-3942201D01*
X81984919Y-3797590D01*
X81997141Y-3673124D01*
X82005205Y-3573994D01*
X82008576Y-3505388D01*
X82006718Y-3472497D01*
X82005693Y-3470680D01*
X81981401Y-3464946D01*
X81920016Y-3455440D01*
X81826545Y-3442795D01*
X81705997Y-3427647D01*
X81563383Y-3410631D01*
X81403711Y-3392382D01*
X81280000Y-3378726D01*
X81104306Y-3359468D01*
X80936044Y-3340752D01*
X80781407Y-3323286D01*
X80646587Y-3307780D01*
X80537777Y-3294942D01*
X80461169Y-3285483D01*
X80433334Y-3281738D01*
X80389820Y-3276064D01*
X80309173Y-3266149D01*
X80196315Y-3252566D01*
X80056171Y-3235888D01*
X79893666Y-3216687D01*
X79713724Y-3195537D01*
X79521270Y-3173009D01*
X79321226Y-3149676D01*
X79118519Y-3126112D01*
X78918072Y-3102888D01*
X78724809Y-3080578D01*
X78543656Y-3059754D01*
X78379536Y-3040988D01*
X78237373Y-3024854D01*
X78122092Y-3011924D01*
X78038618Y-3002771D01*
X77999167Y-2998662D01*
X77945174Y-2992962D01*
X77855301Y-2983007D01*
X77734432Y-2969367D01*
X77587449Y-2952609D01*
X77419234Y-2933304D01*
X77234671Y-2912019D01*
X77038640Y-2889324D01*
X76836025Y-2865788D01*
X76631709Y-2841980D01*
X76430573Y-2818468D01*
X76237501Y-2795822D01*
X76057375Y-2774610D01*
X75895076Y-2755402D01*
X75755489Y-2738765D01*
X75643495Y-2725270D01*
X75563976Y-2715485D01*
X75522667Y-2710101D01*
X75478395Y-2704343D01*
X75397006Y-2694352D01*
X75283441Y-2680699D01*
X75142642Y-2663961D01*
X74979551Y-2644711D01*
X74799109Y-2623523D01*
X74606258Y-2600971D01*
X74405940Y-2577629D01*
X74203097Y-2554072D01*
X74002670Y-2530873D01*
X73809602Y-2508607D01*
X73628834Y-2487848D01*
X73465307Y-2469169D01*
X73323964Y-2453146D01*
X73209747Y-2440352D01*
X73127596Y-2431360D01*
X73088500Y-2427312D01*
X73031089Y-2421122D01*
X72943208Y-2410880D01*
X72836371Y-2397959D01*
X72722093Y-2383731D01*
X72710767Y-2382298D01*
X72606298Y-2369858D01*
X72517730Y-2360830D01*
X72453087Y-2355916D01*
X72420389Y-2355821D01*
X72418158Y-2356620D01*
X72414466Y-2379797D01*
X72409725Y-2439121D01*
X72404294Y-2528431D01*
X72398529Y-2641562D01*
X72392787Y-2772355D01*
X72390142Y-2839665D01*
X72385465Y-2956577D01*
X72378954Y-3109368D01*
X72370903Y-3291637D01*
X72361605Y-3496982D01*
X72351352Y-3719003D01*
X72340439Y-3951299D01*
X72329156Y-4187468D01*
X72317799Y-4421109D01*
X72317146Y-4434417D01*
X72306266Y-4657616D01*
X72295806Y-4875491D01*
X72285999Y-5082949D01*
X72277079Y-5274897D01*
X72269280Y-5446245D01*
X72262836Y-5591899D01*
X72257979Y-5706768D01*
X72254944Y-5785759D01*
X72254487Y-5799667D01*
X72252127Y-5864319D01*
X72247926Y-5966796D01*
X72242086Y-6102639D01*
X72234808Y-6267387D01*
X72226292Y-6456582D01*
X72216738Y-6665764D01*
X72206349Y-6890475D01*
X72195325Y-7126253D01*
X72183866Y-7368641D01*
X72182985Y-7387167D01*
X72171814Y-7622358D01*
X72161254Y-7845444D01*
X72151478Y-8052762D01*
X72142655Y-8240649D01*
X72134956Y-8405444D01*
X72128554Y-8543483D01*
X72123618Y-8651102D01*
X72120320Y-8724641D01*
X72118830Y-8760435D01*
X72118761Y-8763000D01*
X72117718Y-8789653D01*
X72114822Y-8854577D01*
X72110261Y-8953758D01*
X72104225Y-9083183D01*
X72096900Y-9238838D01*
X72088476Y-9416710D01*
X72079142Y-9612785D01*
X72069085Y-9823051D01*
X72064089Y-9927167D01*
X72052858Y-10161994D01*
X72041562Y-10400101D01*
X72030501Y-10635059D01*
X72019972Y-10860440D01*
X72010276Y-11069813D01*
X72001710Y-11256750D01*
X71994575Y-11414822D01*
X71989168Y-11537600D01*
X71988789Y-11546417D01*
X71982964Y-11679204D01*
X71975444Y-11846170D01*
X71966605Y-12039209D01*
X71956822Y-12250218D01*
X71946472Y-12471093D01*
X71935930Y-12693728D01*
X71925573Y-12910020D01*
X71924473Y-12932834D01*
X71914207Y-13147943D01*
X71903806Y-13370278D01*
X71893634Y-13591734D01*
X71884056Y-13804208D01*
X71875438Y-13999595D01*
X71868143Y-14169791D01*
X71862538Y-14306693D01*
X71862044Y-14319250D01*
X71857120Y-14439666D01*
X71850387Y-14595817D01*
X71842146Y-14781155D01*
X71832697Y-14989136D01*
X71822340Y-15213213D01*
X71811375Y-15446838D01*
X71800103Y-15683467D01*
X71788822Y-15916553D01*
X71788784Y-15917334D01*
X71777972Y-16140473D01*
X71767532Y-16359076D01*
X71757704Y-16567901D01*
X71748728Y-16761702D01*
X71740844Y-16935237D01*
X71734293Y-17083260D01*
X71729315Y-17200529D01*
X71726150Y-17281799D01*
X71725759Y-17293167D01*
X71723167Y-17361936D01*
X71718742Y-17468420D01*
X71712691Y-17608048D01*
X71705219Y-17776249D01*
X71696533Y-17968454D01*
X71686840Y-18180093D01*
X71676346Y-18406596D01*
X71665258Y-18643392D01*
X71653783Y-18885911D01*
X71653529Y-18891250D01*
X71642406Y-19125500D01*
X71631902Y-19347637D01*
X71622188Y-19553984D01*
X71613435Y-19740861D01*
X71605815Y-19904592D01*
X71599498Y-20041496D01*
X71594655Y-20147898D01*
X71591458Y-20220118D01*
X71590078Y-20254477D01*
X71590035Y-20256500D01*
X71588979Y-20289420D01*
X71586040Y-20358732D01*
X71581508Y-20458551D01*
X71575673Y-20582991D01*
X71568824Y-20726166D01*
X71561253Y-20882192D01*
X71553248Y-21045182D01*
X71545099Y-21209251D01*
X71537097Y-21368514D01*
X71529532Y-21517085D01*
X71522692Y-21649079D01*
X71516869Y-21758610D01*
X71512352Y-21839793D01*
X71510612Y-21868891D01*
X71505284Y-21962992D01*
X71504177Y-22022256D01*
X71044949Y-22022256D01*
X71045938Y-22017591D01*
X71052255Y-21957504D01*
X71057969Y-21867852D01*
X71063783Y-21743204D01*
X71065961Y-21690542D01*
X71072152Y-21538006D01*
X71077634Y-21403785D01*
X71082649Y-21282533D01*
X71087433Y-21168903D01*
X71092226Y-21057552D01*
X71097268Y-20943134D01*
X71102796Y-20820303D01*
X71109051Y-20683715D01*
X71116270Y-20528023D01*
X71124694Y-20347883D01*
X71134561Y-20137949D01*
X71146110Y-19892877D01*
X71150424Y-19801417D01*
X71161424Y-19567461D01*
X71172522Y-19330085D01*
X71183418Y-19095774D01*
X71193811Y-18871018D01*
X71203405Y-18662304D01*
X71211899Y-18476120D01*
X71218994Y-18318954D01*
X71224391Y-18197292D01*
X71224589Y-18192750D01*
X71230487Y-18059962D01*
X71238064Y-17892994D01*
X71246945Y-17699953D01*
X71256752Y-17488941D01*
X71267108Y-17268065D01*
X71277636Y-17045428D01*
X71287960Y-16829135D01*
X71289055Y-16806334D01*
X71299308Y-16590621D01*
X71309732Y-16367169D01*
X71319955Y-16144180D01*
X71329610Y-15929856D01*
X71338328Y-15732401D01*
X71345738Y-15560015D01*
X71351472Y-15420903D01*
X71351931Y-15409334D01*
X71356985Y-15286625D01*
X71363829Y-15128248D01*
X71372161Y-14940815D01*
X71381679Y-14730940D01*
X71392080Y-14505236D01*
X71403061Y-14270316D01*
X71414321Y-14032792D01*
X71425489Y-13800667D01*
X71436218Y-13577978D01*
X71446575Y-13360193D01*
X71456323Y-13152498D01*
X71465224Y-12960079D01*
X71473040Y-12788123D01*
X71479535Y-12641815D01*
X71484470Y-12526343D01*
X71487608Y-12446892D01*
X71488012Y-12435417D01*
X71490563Y-12368617D01*
X71494927Y-12264060D01*
X71500902Y-12126273D01*
X71508282Y-11959782D01*
X71516864Y-11769116D01*
X71526444Y-11558803D01*
X71536819Y-11333369D01*
X71547785Y-11097342D01*
X71559137Y-10855250D01*
X71559483Y-10847917D01*
X71570519Y-10613297D01*
X71580958Y-10390505D01*
X71590629Y-10183259D01*
X71599359Y-9995274D01*
X71606979Y-9830268D01*
X71613315Y-9691957D01*
X71618197Y-9584058D01*
X71621453Y-9510287D01*
X71622911Y-9474361D01*
X71622971Y-9472084D01*
X71624094Y-9441982D01*
X71627042Y-9373618D01*
X71631628Y-9271016D01*
X71637663Y-9138199D01*
X71644958Y-8979190D01*
X71653324Y-8798013D01*
X71662573Y-8598691D01*
X71672516Y-8385247D01*
X71682964Y-8161706D01*
X71693729Y-7932090D01*
X71704621Y-7700422D01*
X71715453Y-7470727D01*
X71726035Y-7247027D01*
X71736179Y-7033347D01*
X71745696Y-6833708D01*
X71754398Y-6652136D01*
X71762095Y-6492653D01*
X71768599Y-6359283D01*
X71773722Y-6256048D01*
X71774858Y-6233584D01*
X71780340Y-6121982D01*
X71787271Y-5974846D01*
X71795347Y-5798937D01*
X71804267Y-5601016D01*
X71813726Y-5387846D01*
X71823421Y-5166189D01*
X71833049Y-4942807D01*
X71838918Y-4804834D01*
X71848283Y-4586417D01*
X71857893Y-4367652D01*
X71867452Y-4154928D01*
X71876665Y-3954631D01*
X71885234Y-3773149D01*
X71892864Y-3616871D01*
X71899258Y-3492183D01*
X71902731Y-3429000D01*
X71911377Y-3270856D01*
X71920437Y-3092194D01*
X71928993Y-2911939D01*
X71936125Y-2749015D01*
X71937940Y-2704042D01*
X71942821Y-2574077D01*
X71945373Y-2480465D01*
X71945153Y-2417268D01*
X71941722Y-2378547D01*
X71934638Y-2358364D01*
X71923462Y-2350780D01*
X71911645Y-2349792D01*
X71882076Y-2351910D01*
X71812876Y-2357995D01*
X71706138Y-2367839D01*
X71563954Y-2381236D01*
X71388420Y-2397977D01*
X71181628Y-2417856D01*
X70945671Y-2440665D01*
X70682644Y-2466197D01*
X70394639Y-2494244D01*
X70083750Y-2524599D01*
X69752072Y-2557055D01*
X69401696Y-2591405D01*
X69034717Y-2627440D01*
X68653228Y-2664954D01*
X68259322Y-2703739D01*
X67855094Y-2743588D01*
X67442636Y-2784294D01*
X67024042Y-2825649D01*
X66601406Y-2867446D01*
X66176821Y-2909477D01*
X65752380Y-2951536D01*
X65330177Y-2993414D01*
X64912306Y-3034905D01*
X64500860Y-3075801D01*
X64097932Y-3115895D01*
X63705616Y-3154980D01*
X63326005Y-3192847D01*
X62961194Y-3229290D01*
X62613275Y-3264102D01*
X62284341Y-3297074D01*
X61976487Y-3328001D01*
X61691806Y-3356673D01*
X61432391Y-3382885D01*
X61200336Y-3406428D01*
X60997735Y-3427095D01*
X60826680Y-3444680D01*
X60689265Y-3458974D01*
X60587584Y-3469770D01*
X60523731Y-3476861D01*
X60499798Y-3480040D01*
X60499680Y-3480098D01*
X60499584Y-3501897D01*
X60033391Y-3501897D01*
X60031426Y-3445048D01*
X60029809Y-3391860D01*
X60029624Y-3381709D01*
X60029892Y-3285598D01*
X60033268Y-3221248D01*
X60042004Y-3178096D01*
X60058349Y-3145579D01*
X60084553Y-3113132D01*
X60087551Y-3109766D01*
X60146434Y-3043863D01*
X66157092Y-2452212D01*
X72167750Y-1860560D01*
X72771000Y-1925446D01*
G36*
X69672401Y-45059287D02*
G01*
X69726361Y-45083080D01*
X69769450Y-45118794D01*
X69792389Y-45139711D01*
X69845165Y-45187471D01*
X69926143Y-45260602D01*
X70033688Y-45357632D01*
X70166167Y-45477089D01*
X70321945Y-45617500D01*
X70499388Y-45777394D01*
X70696863Y-45955299D01*
X70912734Y-46149741D01*
X71145369Y-46359250D01*
X71393133Y-46582354D01*
X71654391Y-46817579D01*
X71927510Y-47063454D01*
X72210855Y-47318507D01*
X72502793Y-47581266D01*
X72633417Y-47698825D01*
X72928443Y-47964356D01*
X73215492Y-48222743D01*
X73492936Y-48472522D01*
X73759151Y-48712227D01*
X74012510Y-48940393D01*
X74251386Y-49155553D01*
X74474152Y-49356243D01*
X74679183Y-49540996D01*
X74864853Y-49708347D01*
X75029534Y-49856831D01*
X75171601Y-49984982D01*
X75289427Y-50091334D01*
X75381386Y-50174422D01*
X75445851Y-50232780D01*
X75481196Y-50264943D01*
X75487140Y-50270453D01*
X75494536Y-50278713D01*
X75502355Y-50290609D01*
X75511022Y-50307838D01*
X75520959Y-50332095D01*
X75532588Y-50365078D01*
X75546334Y-50408482D01*
X75562618Y-50464005D01*
X75581864Y-50533342D01*
X75604494Y-50618191D01*
X75630932Y-50720247D01*
X75661600Y-50841208D01*
X75696921Y-50982769D01*
X75737319Y-51146627D01*
X75783215Y-51334479D01*
X75835034Y-51548021D01*
X75893197Y-51788949D01*
X75958128Y-52058960D01*
X76030250Y-52359751D01*
X76109985Y-52693017D01*
X76197757Y-53060456D01*
X76293988Y-53463764D01*
X76399101Y-53904637D01*
X76513519Y-54384772D01*
X76529681Y-54452604D01*
X76646363Y-54942252D01*
X76753640Y-55392399D01*
X76851868Y-55804735D01*
X76941403Y-56180954D01*
X77022600Y-56522746D01*
X77095816Y-56831803D01*
X77161406Y-57109817D01*
X77219726Y-57358478D01*
X77271132Y-57579479D01*
X77315979Y-57774511D01*
X77354623Y-57945265D01*
X77387421Y-58093434D01*
X77414728Y-58220708D01*
X77436899Y-58328780D01*
X77454290Y-58419340D01*
X77467258Y-58494081D01*
X77476158Y-58554693D01*
X77481346Y-58602868D01*
X77483178Y-58640299D01*
X77482009Y-58668676D01*
X77478195Y-58689690D01*
X77472092Y-58705034D01*
X77464056Y-58716400D01*
X77454442Y-58725477D01*
X77443607Y-58733959D01*
X77432162Y-58743309D01*
X77408169Y-58754067D01*
X77346487Y-58778025D01*
X77249379Y-58814384D01*
X77119107Y-58862342D01*
X76957933Y-58921100D01*
X76768119Y-58989856D01*
X76551928Y-59067812D01*
X76311622Y-59154166D01*
X76049463Y-59248118D01*
X75767713Y-59348867D01*
X75468636Y-59455615D01*
X75154492Y-59567559D01*
X74827545Y-59683900D01*
X74490057Y-59803838D01*
X74144290Y-59926571D01*
X73792506Y-60051301D01*
X73436968Y-60177226D01*
X73079937Y-60303546D01*
X72723677Y-60429461D01*
X72370449Y-60554170D01*
X72022517Y-60676874D01*
X71682141Y-60796771D01*
X71351584Y-60913062D01*
X71033110Y-61024946D01*
X70728979Y-61131623D01*
X70441454Y-61232292D01*
X70172799Y-61326154D01*
X69925274Y-61412407D01*
X69701142Y-61490252D01*
X69502665Y-61558888D01*
X69332107Y-61617515D01*
X69191728Y-61665332D01*
X69083792Y-61701540D01*
X69010560Y-61725338D01*
X68974295Y-61735925D01*
X68971584Y-61736395D01*
X68956841Y-61735558D01*
X68933606Y-61730710D01*
X68900250Y-61721187D01*
X68855144Y-61706326D01*
X68796658Y-61685463D01*
X68723165Y-61657935D01*
X68633034Y-61623078D01*
X68524638Y-61580228D01*
X68396346Y-61528723D01*
X68246530Y-61467897D01*
X68073560Y-61397089D01*
X67875809Y-61315633D01*
X67651647Y-61222868D01*
X67399444Y-61118128D01*
X67117572Y-61000751D01*
X66804402Y-60870072D01*
X66458305Y-60725429D01*
X66077652Y-60566158D01*
X65660814Y-60391595D01*
X65330917Y-60253364D01*
X64879674Y-60064183D01*
X64466021Y-59890607D01*
X64088457Y-59731992D01*
X63745482Y-59587692D01*
X63435596Y-59457063D01*
X63157298Y-59339459D01*
X62909087Y-59234235D01*
X62689464Y-59140746D01*
X62496928Y-59058348D01*
X62329979Y-58986395D01*
X62187116Y-58924241D01*
X62066839Y-58871243D01*
X61967648Y-58826754D01*
X61934674Y-58811584D01*
X63077206Y-58811584D01*
X66013811Y-60042801D01*
X66349365Y-60183422D01*
X66674290Y-60319464D01*
X66986444Y-60450034D01*
X67283681Y-60574241D01*
X67563857Y-60691192D01*
X67824827Y-60799995D01*
X68064447Y-60899759D01*
X68280573Y-60989591D01*
X68471060Y-61068601D01*
X68633764Y-61135894D01*
X68766540Y-61190581D01*
X68867244Y-61231769D01*
X68933732Y-61258566D01*
X68963858Y-61270079D01*
X68965448Y-61270467D01*
X68986682Y-61263142D01*
X69045785Y-61242412D01*
X69140721Y-61208996D01*
X69269450Y-61163615D01*
X69429937Y-61106989D01*
X69620143Y-61039837D01*
X69838031Y-60962879D01*
X70081563Y-60876836D01*
X70348701Y-60782428D01*
X70637408Y-60680373D01*
X70945647Y-60571393D01*
X71271379Y-60456207D01*
X71612568Y-60335535D01*
X71967175Y-60210097D01*
X72333163Y-60080614D01*
X72450066Y-60039250D01*
X75919651Y-58811584D01*
X72703197Y-58806224D01*
X72263333Y-58805580D01*
X71788058Y-58805046D01*
X71284051Y-58804623D01*
X70757993Y-58804311D01*
X70216564Y-58804109D01*
X69666444Y-58804019D01*
X69114314Y-58804039D01*
X68566852Y-58804169D01*
X68030741Y-58804411D01*
X67512659Y-58804763D01*
X67019287Y-58805226D01*
X66557306Y-58805800D01*
X66281974Y-58806224D01*
X63077206Y-58811584D01*
X61934674Y-58811584D01*
X61888042Y-58790131D01*
X61826521Y-58760727D01*
X61781585Y-58737897D01*
X61751732Y-58720997D01*
X61735464Y-58709382D01*
X61732584Y-58706290D01*
X61705786Y-58656456D01*
X61694792Y-58592536D01*
X61694749Y-58529464D01*
X61696868Y-58496311D01*
X61702184Y-58423091D01*
X61708554Y-58338239D01*
X62318195Y-58338239D01*
X62338565Y-58339661D01*
X62399821Y-58341050D01*
X62500515Y-58342404D01*
X62639200Y-58343718D01*
X62814428Y-58344989D01*
X63024751Y-58346213D01*
X63268723Y-58347387D01*
X63544894Y-58348507D01*
X63851819Y-58349569D01*
X64188048Y-58350570D01*
X64552136Y-58351506D01*
X64942633Y-58352373D01*
X65358093Y-58353168D01*
X65797067Y-58353888D01*
X66258109Y-58354527D01*
X66739771Y-58355084D01*
X67240605Y-58355554D01*
X67759164Y-58355934D01*
X68294000Y-58356220D01*
X68843665Y-58356408D01*
X69406712Y-58356494D01*
X69596000Y-58356500D01*
X70168436Y-58356447D01*
X70727262Y-58356292D01*
X71271061Y-58356037D01*
X71798413Y-58355686D01*
X72307900Y-58355243D01*
X72798104Y-58354711D01*
X73267606Y-58354094D01*
X73714988Y-58353396D01*
X74138831Y-58352619D01*
X74537717Y-58351768D01*
X74910228Y-58350847D01*
X75254945Y-58349858D01*
X75570449Y-58348805D01*
X75855322Y-58347693D01*
X76108147Y-58346524D01*
X76327503Y-58345302D01*
X76511973Y-58344030D01*
X76660139Y-58342713D01*
X76770582Y-58341354D01*
X76841883Y-58339956D01*
X76872624Y-58338523D01*
X76873806Y-58338159D01*
X76862177Y-58316998D01*
X76830350Y-58260925D01*
X76779257Y-58171557D01*
X76709832Y-58050507D01*
X76623009Y-57899392D01*
X76519720Y-57719827D01*
X76400899Y-57513426D01*
X76267479Y-57281806D01*
X76120394Y-57026581D01*
X75960576Y-56749367D01*
X75788960Y-56451779D01*
X75606477Y-56135432D01*
X75414062Y-55801941D01*
X75212648Y-55452922D01*
X75003168Y-55089990D01*
X74786556Y-54714761D01*
X74563744Y-54328849D01*
X74335666Y-53933869D01*
X74103255Y-53531438D01*
X73867445Y-53123169D01*
X73629169Y-52710680D01*
X73389360Y-52295583D01*
X73148951Y-51879496D01*
X72908876Y-51464033D01*
X72670068Y-51050810D01*
X72433460Y-50641441D01*
X72199986Y-50237543D01*
X71970579Y-49840729D01*
X71746171Y-49452616D01*
X71527697Y-49074819D01*
X71316090Y-48708953D01*
X71112283Y-48356633D01*
X70917209Y-48019474D01*
X70731801Y-47699093D01*
X70556993Y-47397103D01*
X70393719Y-47115121D01*
X70242910Y-46854761D01*
X70105502Y-46617639D01*
X70023911Y-46476918D01*
X70558115Y-46476918D01*
X70560613Y-46482000D01*
X70574680Y-46506309D01*
X70609058Y-46565804D01*
X70662896Y-46659008D01*
X70735340Y-46784444D01*
X70825538Y-46940635D01*
X70932636Y-47126104D01*
X71055783Y-47339374D01*
X71194125Y-47578969D01*
X71346810Y-47843411D01*
X71512985Y-48131223D01*
X71691797Y-48440928D01*
X71882393Y-48771050D01*
X72083921Y-49120111D01*
X72295528Y-49486635D01*
X72516362Y-49869144D01*
X72745568Y-50266162D01*
X72982296Y-50676211D01*
X73225691Y-51097815D01*
X73474901Y-51529497D01*
X73637244Y-51810709D01*
X73889233Y-52247165D01*
X74135731Y-52674023D01*
X74375898Y-53089833D01*
X74608896Y-53493145D01*
X74833885Y-53882509D01*
X75050027Y-54256476D01*
X75256482Y-54613595D01*
X75452411Y-54952417D01*
X75636976Y-55271491D01*
X75809337Y-55569369D01*
X75968656Y-55844599D01*
X76114092Y-56095733D01*
X76244808Y-56321320D01*
X76359964Y-56519910D01*
X76458721Y-56690054D01*
X76540240Y-56830302D01*
X76603682Y-56939203D01*
X76648208Y-57015309D01*
X76672979Y-57057168D01*
X76678106Y-57065334D01*
X76679521Y-57049460D01*
X76676567Y-57038875D01*
X76670749Y-57015644D01*
X76655683Y-56953455D01*
X76631900Y-56854538D01*
X76599931Y-56721124D01*
X76560310Y-56555442D01*
X76513567Y-56359722D01*
X76460234Y-56136195D01*
X76400843Y-55887092D01*
X76335927Y-55614641D01*
X76266016Y-55321073D01*
X76191643Y-55008619D01*
X76113339Y-54679508D01*
X76031636Y-54335971D01*
X75947066Y-53980237D01*
X75903062Y-53795084D01*
X75799329Y-53358835D01*
X75704832Y-52962027D01*
X75619130Y-52602888D01*
X75541783Y-52279647D01*
X75472350Y-51990531D01*
X75410391Y-51733769D01*
X75355466Y-51507588D01*
X75307135Y-51310217D01*
X75264957Y-51139885D01*
X75228492Y-50994818D01*
X75197300Y-50873246D01*
X75170939Y-50773397D01*
X75148971Y-50693498D01*
X75130955Y-50631778D01*
X75116450Y-50586465D01*
X75105016Y-50555787D01*
X75096213Y-50537973D01*
X75092455Y-50533134D01*
X75070804Y-50513221D01*
X75019764Y-50466875D01*
X74941421Y-50395976D01*
X74837860Y-50302404D01*
X74711163Y-50188037D01*
X74563416Y-50054757D01*
X74396703Y-49904441D01*
X74213108Y-49738972D01*
X74014716Y-49560227D01*
X73803611Y-49370086D01*
X73581877Y-49170430D01*
X73351599Y-48963139D01*
X73321334Y-48935898D01*
X73077746Y-48716643D01*
X72834042Y-48497241D01*
X72593164Y-48280345D01*
X72358053Y-48068606D01*
X72131652Y-47864674D01*
X71916904Y-47671201D01*
X71716751Y-47490837D01*
X71534135Y-47326234D01*
X71371998Y-47180043D01*
X71233284Y-47054915D01*
X71120934Y-46953502D01*
X71056849Y-46895598D01*
X70901708Y-46756254D01*
X70774778Y-46644239D01*
X70676506Y-46559925D01*
X70607341Y-46503685D01*
X70567728Y-46475892D01*
X70558115Y-46476918D01*
X70023911Y-46476918D01*
X69982426Y-46405369D01*
X69874617Y-46219568D01*
X69783007Y-46061851D01*
X69708530Y-45933833D01*
X69652118Y-45837128D01*
X69614707Y-45773353D01*
X69597228Y-45744122D01*
X69596000Y-45742327D01*
X69584967Y-45760391D01*
X69553708Y-45813506D01*
X69503157Y-45900058D01*
X69434248Y-46018429D01*
X69347913Y-46167007D01*
X69245086Y-46344174D01*
X69126699Y-46548316D01*
X68993688Y-46777818D01*
X68846983Y-47031064D01*
X68687520Y-47306440D01*
X68516231Y-47602329D01*
X68334049Y-47917117D01*
X68141908Y-48249188D01*
X67940741Y-48596928D01*
X67731481Y-48958720D01*
X67515061Y-49332950D01*
X67292416Y-49718003D01*
X67064477Y-50112263D01*
X66832179Y-50514114D01*
X66596455Y-50921942D01*
X66358237Y-51334132D01*
X66118460Y-51749068D01*
X65878056Y-52165134D01*
X65637959Y-52580717D01*
X65399102Y-52994200D01*
X65162418Y-53403967D01*
X64928841Y-53808405D01*
X64699304Y-54205898D01*
X64474740Y-54594830D01*
X64256082Y-54973586D01*
X64044264Y-55340551D01*
X63840219Y-55694109D01*
X63644880Y-56032647D01*
X63459180Y-56354547D01*
X63284054Y-56658195D01*
X63120433Y-56941976D01*
X62969252Y-57204274D01*
X62831444Y-57443474D01*
X62707941Y-57657962D01*
X62599677Y-57846121D01*
X62507586Y-58006336D01*
X62432601Y-58136993D01*
X62375655Y-58236475D01*
X62337681Y-58303169D01*
X62319612Y-58335457D01*
X62318195Y-58338239D01*
X61708554Y-58338239D01*
X61710530Y-58311934D01*
X61721739Y-58164974D01*
X61735645Y-57984342D01*
X61752080Y-57772169D01*
X61770866Y-57530750D01*
X62233611Y-57530750D01*
X62233881Y-57543789D01*
X62234820Y-57550212D01*
X62236286Y-57551893D01*
X62238137Y-57550704D01*
X62238430Y-57550403D01*
X62249566Y-57531582D01*
X62281040Y-57477520D01*
X62332027Y-57389640D01*
X62401707Y-57269365D01*
X62489256Y-57118120D01*
X62593852Y-56937328D01*
X62714671Y-56728413D01*
X62850891Y-56492799D01*
X63001689Y-56231909D01*
X63166243Y-55947168D01*
X63343729Y-55639999D01*
X63533326Y-55311825D01*
X63734210Y-54964071D01*
X63945558Y-54598161D01*
X64166548Y-54215517D01*
X64396358Y-53817565D01*
X64634164Y-53405727D01*
X64879143Y-52981428D01*
X65130474Y-52546090D01*
X65387333Y-52101139D01*
X65405307Y-52070000D01*
X65664258Y-51621411D01*
X65918587Y-51180844D01*
X66167421Y-50749810D01*
X66409890Y-50329819D01*
X66645121Y-49922379D01*
X66872241Y-49529002D01*
X67090380Y-49151197D01*
X67298666Y-48790474D01*
X67496225Y-48448343D01*
X67682187Y-48126314D01*
X67855679Y-47825896D01*
X68015830Y-47548600D01*
X68161768Y-47295935D01*
X68292620Y-47069412D01*
X68407514Y-46870539D01*
X68505580Y-46700828D01*
X68585944Y-46561788D01*
X68647735Y-46454928D01*
X68690082Y-46381760D01*
X68711747Y-46344417D01*
X68761662Y-46256557D01*
X68798891Y-46186640D01*
X68820772Y-46140054D01*
X68824645Y-46122184D01*
X68820411Y-46124408D01*
X68799411Y-46140386D01*
X68746056Y-46180133D01*
X68662107Y-46242351D01*
X68549323Y-46325744D01*
X68409464Y-46429015D01*
X68244291Y-46550867D01*
X68055565Y-46690003D01*
X67845044Y-46845127D01*
X67614490Y-47014941D01*
X67365662Y-47198148D01*
X67100320Y-47393452D01*
X66820225Y-47599556D01*
X66527137Y-47815163D01*
X66222816Y-48038976D01*
X65909022Y-48269698D01*
X65807167Y-48344577D01*
X65490925Y-48577080D01*
X65183715Y-48803000D01*
X64887287Y-49021045D01*
X64603392Y-49229927D01*
X64333782Y-49428356D01*
X64080206Y-49615039D01*
X63844417Y-49788689D01*
X63628164Y-49948015D01*
X63433200Y-50091726D01*
X63261274Y-50218533D01*
X63114138Y-50327145D01*
X62993542Y-50416272D01*
X62901238Y-50484625D01*
X62838977Y-50530913D01*
X62808509Y-50553846D01*
X62805742Y-50556058D01*
X62800856Y-50572501D01*
X62794190Y-50615183D01*
X62785645Y-50685254D01*
X62775120Y-50783863D01*
X62762517Y-50912160D01*
X62747734Y-51071293D01*
X62730674Y-51262412D01*
X62711234Y-51486667D01*
X62689317Y-51745206D01*
X62664822Y-52039180D01*
X62637650Y-52369738D01*
X62607700Y-52738028D01*
X62574873Y-53145201D01*
X62539069Y-53592405D01*
X62504245Y-54029723D01*
X62468304Y-54482103D01*
X62435576Y-54894155D01*
X62405921Y-55267753D01*
X62379196Y-55604770D01*
X62355261Y-55907077D01*
X62333974Y-56176549D01*
X62315194Y-56415059D01*
X62298779Y-56624478D01*
X62284588Y-56806680D01*
X62272479Y-56963537D01*
X62262312Y-57096924D01*
X62253944Y-57208711D01*
X62247234Y-57300773D01*
X62242042Y-57374983D01*
X62238224Y-57433212D01*
X62235641Y-57477335D01*
X62234150Y-57509223D01*
X62233611Y-57530750D01*
X61770866Y-57530750D01*
X61770879Y-57530588D01*
X61791874Y-57261730D01*
X61814899Y-56967728D01*
X61839787Y-56650713D01*
X61866371Y-56312817D01*
X61894485Y-55956172D01*
X61923962Y-55582910D01*
X61954635Y-55195162D01*
X61986337Y-54795061D01*
X62017687Y-54400039D01*
X62056792Y-53908165D01*
X62092766Y-53456805D01*
X62125756Y-53044266D01*
X62155910Y-52668857D01*
X62183377Y-52328885D01*
X62208303Y-52022657D01*
X62230838Y-51748483D01*
X62251127Y-51504669D01*
X62269320Y-51289523D01*
X62285564Y-51101352D01*
X62300006Y-50938466D01*
X62312796Y-50799171D01*
X62324079Y-50681774D01*
X62334005Y-50584585D01*
X62342721Y-50505911D01*
X62350375Y-50444058D01*
X62357115Y-50397336D01*
X62363088Y-50364052D01*
X62368442Y-50342513D01*
X62373021Y-50331498D01*
X62393533Y-50313228D01*
X62446622Y-50271075D01*
X62530731Y-50206197D01*
X62644306Y-50119754D01*
X62785790Y-50012903D01*
X62953627Y-49886804D01*
X63146264Y-49742615D01*
X63362143Y-49581495D01*
X63599709Y-49404604D01*
X63857406Y-49213100D01*
X64133680Y-49008141D01*
X64426973Y-48790887D01*
X64735731Y-48562496D01*
X65058399Y-48324127D01*
X65393419Y-48076939D01*
X65739238Y-47822090D01*
X65955334Y-47662992D01*
X66364384Y-47361948D01*
X66740746Y-47084996D01*
X67085822Y-46831131D01*
X67401016Y-46599348D01*
X67687733Y-46388643D01*
X67947374Y-46198010D01*
X68181343Y-46026446D01*
X68391044Y-45872945D01*
X68577880Y-45736502D01*
X68743254Y-45616112D01*
X68888571Y-45510772D01*
X69015233Y-45419475D01*
X69124643Y-45341218D01*
X69218206Y-45274995D01*
X69297324Y-45219802D01*
X69363401Y-45174633D01*
X69417840Y-45138485D01*
X69462045Y-45110352D01*
X69497419Y-45089229D01*
X69525366Y-45074113D01*
X69547288Y-45063997D01*
X69564590Y-45057877D01*
X69578674Y-45054749D01*
X69590945Y-45053607D01*
X69600116Y-45053449D01*
X69672401Y-45059287D01*
G37*
X69672401Y-45059287D02*
X69726361Y-45083080D01*
X69769450Y-45118794D01*
X69792389Y-45139711D01*
X69845165Y-45187471D01*
X69926143Y-45260602D01*
X70033688Y-45357632D01*
X70166167Y-45477089D01*
X70321945Y-45617500D01*
X70499388Y-45777394D01*
X70696863Y-45955299D01*
X70912734Y-46149741D01*
X71145369Y-46359250D01*
X71393133Y-46582354D01*
X71654391Y-46817579D01*
X71927510Y-47063454D01*
X72210855Y-47318507D01*
X72502793Y-47581266D01*
X72633417Y-47698825D01*
X72928443Y-47964356D01*
X73215492Y-48222743D01*
X73492936Y-48472522D01*
X73759151Y-48712227D01*
X74012510Y-48940393D01*
X74251386Y-49155553D01*
X74474152Y-49356243D01*
X74679183Y-49540996D01*
X74864853Y-49708347D01*
X75029534Y-49856831D01*
X75171601Y-49984982D01*
X75289427Y-50091334D01*
X75381386Y-50174422D01*
X75445851Y-50232780D01*
X75481196Y-50264943D01*
X75487140Y-50270453D01*
X75494536Y-50278713D01*
X75502355Y-50290609D01*
X75511022Y-50307838D01*
X75520959Y-50332095D01*
X75532588Y-50365078D01*
X75546334Y-50408482D01*
X75562618Y-50464005D01*
X75581864Y-50533342D01*
X75604494Y-50618191D01*
X75630932Y-50720247D01*
X75661600Y-50841208D01*
X75696921Y-50982769D01*
X75737319Y-51146627D01*
X75783215Y-51334479D01*
X75835034Y-51548021D01*
X75893197Y-51788949D01*
X75958128Y-52058960D01*
X76030250Y-52359751D01*
X76109985Y-52693017D01*
X76197757Y-53060456D01*
X76293988Y-53463764D01*
X76399101Y-53904637D01*
X76513519Y-54384772D01*
X76529681Y-54452604D01*
X76646363Y-54942252D01*
X76753640Y-55392399D01*
X76851868Y-55804735D01*
X76941403Y-56180954D01*
X77022600Y-56522746D01*
X77095816Y-56831803D01*
X77161406Y-57109817D01*
X77219726Y-57358478D01*
X77271132Y-57579479D01*
X77315979Y-57774511D01*
X77354623Y-57945265D01*
X77387421Y-58093434D01*
X77414728Y-58220708D01*
X77436899Y-58328780D01*
X77454290Y-58419340D01*
X77467258Y-58494081D01*
X77476158Y-58554693D01*
X77481346Y-58602868D01*
X77483178Y-58640299D01*
X77482009Y-58668676D01*
X77478195Y-58689690D01*
X77472092Y-58705034D01*
X77464056Y-58716400D01*
X77454442Y-58725477D01*
X77443607Y-58733959D01*
X77432162Y-58743309D01*
X77408169Y-58754067D01*
X77346487Y-58778025D01*
X77249379Y-58814384D01*
X77119107Y-58862342D01*
X76957933Y-58921100D01*
X76768119Y-58989856D01*
X76551928Y-59067812D01*
X76311622Y-59154166D01*
X76049463Y-59248118D01*
X75767713Y-59348867D01*
X75468636Y-59455615D01*
X75154492Y-59567559D01*
X74827545Y-59683900D01*
X74490057Y-59803838D01*
X74144290Y-59926571D01*
X73792506Y-60051301D01*
X73436968Y-60177226D01*
X73079937Y-60303546D01*
X72723677Y-60429461D01*
X72370449Y-60554170D01*
X72022517Y-60676874D01*
X71682141Y-60796771D01*
X71351584Y-60913062D01*
X71033110Y-61024946D01*
X70728979Y-61131623D01*
X70441454Y-61232292D01*
X70172799Y-61326154D01*
X69925274Y-61412407D01*
X69701142Y-61490252D01*
X69502665Y-61558888D01*
X69332107Y-61617515D01*
X69191728Y-61665332D01*
X69083792Y-61701540D01*
X69010560Y-61725338D01*
X68974295Y-61735925D01*
X68971584Y-61736395D01*
X68956841Y-61735558D01*
X68933606Y-61730710D01*
X68900250Y-61721187D01*
X68855144Y-61706326D01*
X68796658Y-61685463D01*
X68723165Y-61657935D01*
X68633034Y-61623078D01*
X68524638Y-61580228D01*
X68396346Y-61528723D01*
X68246530Y-61467897D01*
X68073560Y-61397089D01*
X67875809Y-61315633D01*
X67651647Y-61222868D01*
X67399444Y-61118128D01*
X67117572Y-61000751D01*
X66804402Y-60870072D01*
X66458305Y-60725429D01*
X66077652Y-60566158D01*
X65660814Y-60391595D01*
X65330917Y-60253364D01*
X64879674Y-60064183D01*
X64466021Y-59890607D01*
X64088457Y-59731992D01*
X63745482Y-59587692D01*
X63435596Y-59457063D01*
X63157298Y-59339459D01*
X62909087Y-59234235D01*
X62689464Y-59140746D01*
X62496928Y-59058348D01*
X62329979Y-58986395D01*
X62187116Y-58924241D01*
X62066839Y-58871243D01*
X61967648Y-58826754D01*
X61934674Y-58811584D01*
X63077206Y-58811584D01*
X66013811Y-60042801D01*
X66349365Y-60183422D01*
X66674290Y-60319464D01*
X66986444Y-60450034D01*
X67283681Y-60574241D01*
X67563857Y-60691192D01*
X67824827Y-60799995D01*
X68064447Y-60899759D01*
X68280573Y-60989591D01*
X68471060Y-61068601D01*
X68633764Y-61135894D01*
X68766540Y-61190581D01*
X68867244Y-61231769D01*
X68933732Y-61258566D01*
X68963858Y-61270079D01*
X68965448Y-61270467D01*
X68986682Y-61263142D01*
X69045785Y-61242412D01*
X69140721Y-61208996D01*
X69269450Y-61163615D01*
X69429937Y-61106989D01*
X69620143Y-61039837D01*
X69838031Y-60962879D01*
X70081563Y-60876836D01*
X70348701Y-60782428D01*
X70637408Y-60680373D01*
X70945647Y-60571393D01*
X71271379Y-60456207D01*
X71612568Y-60335535D01*
X71967175Y-60210097D01*
X72333163Y-60080614D01*
X72450066Y-60039250D01*
X75919651Y-58811584D01*
X72703197Y-58806224D01*
X72263333Y-58805580D01*
X71788058Y-58805046D01*
X71284051Y-58804623D01*
X70757993Y-58804311D01*
X70216564Y-58804109D01*
X69666444Y-58804019D01*
X69114314Y-58804039D01*
X68566852Y-58804169D01*
X68030741Y-58804411D01*
X67512659Y-58804763D01*
X67019287Y-58805226D01*
X66557306Y-58805800D01*
X66281974Y-58806224D01*
X63077206Y-58811584D01*
X61934674Y-58811584D01*
X61888042Y-58790131D01*
X61826521Y-58760727D01*
X61781585Y-58737897D01*
X61751732Y-58720997D01*
X61735464Y-58709382D01*
X61732584Y-58706290D01*
X61705786Y-58656456D01*
X61694792Y-58592536D01*
X61694749Y-58529464D01*
X61696868Y-58496311D01*
X61702184Y-58423091D01*
X61708554Y-58338239D01*
X62318195Y-58338239D01*
X62338565Y-58339661D01*
X62399821Y-58341050D01*
X62500515Y-58342404D01*
X62639200Y-58343718D01*
X62814428Y-58344989D01*
X63024751Y-58346213D01*
X63268723Y-58347387D01*
X63544894Y-58348507D01*
X63851819Y-58349569D01*
X64188048Y-58350570D01*
X64552136Y-58351506D01*
X64942633Y-58352373D01*
X65358093Y-58353168D01*
X65797067Y-58353888D01*
X66258109Y-58354527D01*
X66739771Y-58355084D01*
X67240605Y-58355554D01*
X67759164Y-58355934D01*
X68294000Y-58356220D01*
X68843665Y-58356408D01*
X69406712Y-58356494D01*
X69596000Y-58356500D01*
X70168436Y-58356447D01*
X70727262Y-58356292D01*
X71271061Y-58356037D01*
X71798413Y-58355686D01*
X72307900Y-58355243D01*
X72798104Y-58354711D01*
X73267606Y-58354094D01*
X73714988Y-58353396D01*
X74138831Y-58352619D01*
X74537717Y-58351768D01*
X74910228Y-58350847D01*
X75254945Y-58349858D01*
X75570449Y-58348805D01*
X75855322Y-58347693D01*
X76108147Y-58346524D01*
X76327503Y-58345302D01*
X76511973Y-58344030D01*
X76660139Y-58342713D01*
X76770582Y-58341354D01*
X76841883Y-58339956D01*
X76872624Y-58338523D01*
X76873806Y-58338159D01*
X76862177Y-58316998D01*
X76830350Y-58260925D01*
X76779257Y-58171557D01*
X76709832Y-58050507D01*
X76623009Y-57899392D01*
X76519720Y-57719827D01*
X76400899Y-57513426D01*
X76267479Y-57281806D01*
X76120394Y-57026581D01*
X75960576Y-56749367D01*
X75788960Y-56451779D01*
X75606477Y-56135432D01*
X75414062Y-55801941D01*
X75212648Y-55452922D01*
X75003168Y-55089990D01*
X74786556Y-54714761D01*
X74563744Y-54328849D01*
X74335666Y-53933869D01*
X74103255Y-53531438D01*
X73867445Y-53123169D01*
X73629169Y-52710680D01*
X73389360Y-52295583D01*
X73148951Y-51879496D01*
X72908876Y-51464033D01*
X72670068Y-51050810D01*
X72433460Y-50641441D01*
X72199986Y-50237543D01*
X71970579Y-49840729D01*
X71746171Y-49452616D01*
X71527697Y-49074819D01*
X71316090Y-48708953D01*
X71112283Y-48356633D01*
X70917209Y-48019474D01*
X70731801Y-47699093D01*
X70556993Y-47397103D01*
X70393719Y-47115121D01*
X70242910Y-46854761D01*
X70105502Y-46617639D01*
X70023911Y-46476918D01*
X70558115Y-46476918D01*
X70560613Y-46482000D01*
X70574680Y-46506309D01*
X70609058Y-46565804D01*
X70662896Y-46659008D01*
X70735340Y-46784444D01*
X70825538Y-46940635D01*
X70932636Y-47126104D01*
X71055783Y-47339374D01*
X71194125Y-47578969D01*
X71346810Y-47843411D01*
X71512985Y-48131223D01*
X71691797Y-48440928D01*
X71882393Y-48771050D01*
X72083921Y-49120111D01*
X72295528Y-49486635D01*
X72516362Y-49869144D01*
X72745568Y-50266162D01*
X72982296Y-50676211D01*
X73225691Y-51097815D01*
X73474901Y-51529497D01*
X73637244Y-51810709D01*
X73889233Y-52247165D01*
X74135731Y-52674023D01*
X74375898Y-53089833D01*
X74608896Y-53493145D01*
X74833885Y-53882509D01*
X75050027Y-54256476D01*
X75256482Y-54613595D01*
X75452411Y-54952417D01*
X75636976Y-55271491D01*
X75809337Y-55569369D01*
X75968656Y-55844599D01*
X76114092Y-56095733D01*
X76244808Y-56321320D01*
X76359964Y-56519910D01*
X76458721Y-56690054D01*
X76540240Y-56830302D01*
X76603682Y-56939203D01*
X76648208Y-57015309D01*
X76672979Y-57057168D01*
X76678106Y-57065334D01*
X76679521Y-57049460D01*
X76676567Y-57038875D01*
X76670749Y-57015644D01*
X76655683Y-56953455D01*
X76631900Y-56854538D01*
X76599931Y-56721124D01*
X76560310Y-56555442D01*
X76513567Y-56359722D01*
X76460234Y-56136195D01*
X76400843Y-55887092D01*
X76335927Y-55614641D01*
X76266016Y-55321073D01*
X76191643Y-55008619D01*
X76113339Y-54679508D01*
X76031636Y-54335971D01*
X75947066Y-53980237D01*
X75903062Y-53795084D01*
X75799329Y-53358835D01*
X75704832Y-52962027D01*
X75619130Y-52602888D01*
X75541783Y-52279647D01*
X75472350Y-51990531D01*
X75410391Y-51733769D01*
X75355466Y-51507588D01*
X75307135Y-51310217D01*
X75264957Y-51139885D01*
X75228492Y-50994818D01*
X75197300Y-50873246D01*
X75170939Y-50773397D01*
X75148971Y-50693498D01*
X75130955Y-50631778D01*
X75116450Y-50586465D01*
X75105016Y-50555787D01*
X75096213Y-50537973D01*
X75092455Y-50533134D01*
X75070804Y-50513221D01*
X75019764Y-50466875D01*
X74941421Y-50395976D01*
X74837860Y-50302404D01*
X74711163Y-50188037D01*
X74563416Y-50054757D01*
X74396703Y-49904441D01*
X74213108Y-49738972D01*
X74014716Y-49560227D01*
X73803611Y-49370086D01*
X73581877Y-49170430D01*
X73351599Y-48963139D01*
X73321334Y-48935898D01*
X73077746Y-48716643D01*
X72834042Y-48497241D01*
X72593164Y-48280345D01*
X72358053Y-48068606D01*
X72131652Y-47864674D01*
X71916904Y-47671201D01*
X71716751Y-47490837D01*
X71534135Y-47326234D01*
X71371998Y-47180043D01*
X71233284Y-47054915D01*
X71120934Y-46953502D01*
X71056849Y-46895598D01*
X70901708Y-46756254D01*
X70774778Y-46644239D01*
X70676506Y-46559925D01*
X70607341Y-46503685D01*
X70567728Y-46475892D01*
X70558115Y-46476918D01*
X70023911Y-46476918D01*
X69982426Y-46405369D01*
X69874617Y-46219568D01*
X69783007Y-46061851D01*
X69708530Y-45933833D01*
X69652118Y-45837128D01*
X69614707Y-45773353D01*
X69597228Y-45744122D01*
X69596000Y-45742327D01*
X69584967Y-45760391D01*
X69553708Y-45813506D01*
X69503157Y-45900058D01*
X69434248Y-46018429D01*
X69347913Y-46167007D01*
X69245086Y-46344174D01*
X69126699Y-46548316D01*
X68993688Y-46777818D01*
X68846983Y-47031064D01*
X68687520Y-47306440D01*
X68516231Y-47602329D01*
X68334049Y-47917117D01*
X68141908Y-48249188D01*
X67940741Y-48596928D01*
X67731481Y-48958720D01*
X67515061Y-49332950D01*
X67292416Y-49718003D01*
X67064477Y-50112263D01*
X66832179Y-50514114D01*
X66596455Y-50921942D01*
X66358237Y-51334132D01*
X66118460Y-51749068D01*
X65878056Y-52165134D01*
X65637959Y-52580717D01*
X65399102Y-52994200D01*
X65162418Y-53403967D01*
X64928841Y-53808405D01*
X64699304Y-54205898D01*
X64474740Y-54594830D01*
X64256082Y-54973586D01*
X64044264Y-55340551D01*
X63840219Y-55694109D01*
X63644880Y-56032647D01*
X63459180Y-56354547D01*
X63284054Y-56658195D01*
X63120433Y-56941976D01*
X62969252Y-57204274D01*
X62831444Y-57443474D01*
X62707941Y-57657962D01*
X62599677Y-57846121D01*
X62507586Y-58006336D01*
X62432601Y-58136993D01*
X62375655Y-58236475D01*
X62337681Y-58303169D01*
X62319612Y-58335457D01*
X62318195Y-58338239D01*
X61708554Y-58338239D01*
X61710530Y-58311934D01*
X61721739Y-58164974D01*
X61735645Y-57984342D01*
X61752080Y-57772169D01*
X61770866Y-57530750D01*
X62233611Y-57530750D01*
X62233881Y-57543789D01*
X62234820Y-57550212D01*
X62236286Y-57551893D01*
X62238137Y-57550704D01*
X62238430Y-57550403D01*
X62249566Y-57531582D01*
X62281040Y-57477520D01*
X62332027Y-57389640D01*
X62401707Y-57269365D01*
X62489256Y-57118120D01*
X62593852Y-56937328D01*
X62714671Y-56728413D01*
X62850891Y-56492799D01*
X63001689Y-56231909D01*
X63166243Y-55947168D01*
X63343729Y-55639999D01*
X63533326Y-55311825D01*
X63734210Y-54964071D01*
X63945558Y-54598161D01*
X64166548Y-54215517D01*
X64396358Y-53817565D01*
X64634164Y-53405727D01*
X64879143Y-52981428D01*
X65130474Y-52546090D01*
X65387333Y-52101139D01*
X65405307Y-52070000D01*
X65664258Y-51621411D01*
X65918587Y-51180844D01*
X66167421Y-50749810D01*
X66409890Y-50329819D01*
X66645121Y-49922379D01*
X66872241Y-49529002D01*
X67090380Y-49151197D01*
X67298666Y-48790474D01*
X67496225Y-48448343D01*
X67682187Y-48126314D01*
X67855679Y-47825896D01*
X68015830Y-47548600D01*
X68161768Y-47295935D01*
X68292620Y-47069412D01*
X68407514Y-46870539D01*
X68505580Y-46700828D01*
X68585944Y-46561788D01*
X68647735Y-46454928D01*
X68690082Y-46381760D01*
X68711747Y-46344417D01*
X68761662Y-46256557D01*
X68798891Y-46186640D01*
X68820772Y-46140054D01*
X68824645Y-46122184D01*
X68820411Y-46124408D01*
X68799411Y-46140386D01*
X68746056Y-46180133D01*
X68662107Y-46242351D01*
X68549323Y-46325744D01*
X68409464Y-46429015D01*
X68244291Y-46550867D01*
X68055565Y-46690003D01*
X67845044Y-46845127D01*
X67614490Y-47014941D01*
X67365662Y-47198148D01*
X67100320Y-47393452D01*
X66820225Y-47599556D01*
X66527137Y-47815163D01*
X66222816Y-48038976D01*
X65909022Y-48269698D01*
X65807167Y-48344577D01*
X65490925Y-48577080D01*
X65183715Y-48803000D01*
X64887287Y-49021045D01*
X64603392Y-49229927D01*
X64333782Y-49428356D01*
X64080206Y-49615039D01*
X63844417Y-49788689D01*
X63628164Y-49948015D01*
X63433200Y-50091726D01*
X63261274Y-50218533D01*
X63114138Y-50327145D01*
X62993542Y-50416272D01*
X62901238Y-50484625D01*
X62838977Y-50530913D01*
X62808509Y-50553846D01*
X62805742Y-50556058D01*
X62800856Y-50572501D01*
X62794190Y-50615183D01*
X62785645Y-50685254D01*
X62775120Y-50783863D01*
X62762517Y-50912160D01*
X62747734Y-51071293D01*
X62730674Y-51262412D01*
X62711234Y-51486667D01*
X62689317Y-51745206D01*
X62664822Y-52039180D01*
X62637650Y-52369738D01*
X62607700Y-52738028D01*
X62574873Y-53145201D01*
X62539069Y-53592405D01*
X62504245Y-54029723D01*
X62468304Y-54482103D01*
X62435576Y-54894155D01*
X62405921Y-55267753D01*
X62379196Y-55604770D01*
X62355261Y-55907077D01*
X62333974Y-56176549D01*
X62315194Y-56415059D01*
X62298779Y-56624478D01*
X62284588Y-56806680D01*
X62272479Y-56963537D01*
X62262312Y-57096924D01*
X62253944Y-57208711D01*
X62247234Y-57300773D01*
X62242042Y-57374983D01*
X62238224Y-57433212D01*
X62235641Y-57477335D01*
X62234150Y-57509223D01*
X62233611Y-57530750D01*
X61770866Y-57530750D01*
X61770879Y-57530588D01*
X61791874Y-57261730D01*
X61814899Y-56967728D01*
X61839787Y-56650713D01*
X61866371Y-56312817D01*
X61894485Y-55956172D01*
X61923962Y-55582910D01*
X61954635Y-55195162D01*
X61986337Y-54795061D01*
X62017687Y-54400039D01*
X62056792Y-53908165D01*
X62092766Y-53456805D01*
X62125756Y-53044266D01*
X62155910Y-52668857D01*
X62183377Y-52328885D01*
X62208303Y-52022657D01*
X62230838Y-51748483D01*
X62251127Y-51504669D01*
X62269320Y-51289523D01*
X62285564Y-51101352D01*
X62300006Y-50938466D01*
X62312796Y-50799171D01*
X62324079Y-50681774D01*
X62334005Y-50584585D01*
X62342721Y-50505911D01*
X62350375Y-50444058D01*
X62357115Y-50397336D01*
X62363088Y-50364052D01*
X62368442Y-50342513D01*
X62373021Y-50331498D01*
X62393533Y-50313228D01*
X62446622Y-50271075D01*
X62530731Y-50206197D01*
X62644306Y-50119754D01*
X62785790Y-50012903D01*
X62953627Y-49886804D01*
X63146264Y-49742615D01*
X63362143Y-49581495D01*
X63599709Y-49404604D01*
X63857406Y-49213100D01*
X64133680Y-49008141D01*
X64426973Y-48790887D01*
X64735731Y-48562496D01*
X65058399Y-48324127D01*
X65393419Y-48076939D01*
X65739238Y-47822090D01*
X65955334Y-47662992D01*
X66364384Y-47361948D01*
X66740746Y-47084996D01*
X67085822Y-46831131D01*
X67401016Y-46599348D01*
X67687733Y-46388643D01*
X67947374Y-46198010D01*
X68181343Y-46026446D01*
X68391044Y-45872945D01*
X68577880Y-45736502D01*
X68743254Y-45616112D01*
X68888571Y-45510772D01*
X69015233Y-45419475D01*
X69124643Y-45341218D01*
X69218206Y-45274995D01*
X69297324Y-45219802D01*
X69363401Y-45174633D01*
X69417840Y-45138485D01*
X69462045Y-45110352D01*
X69497419Y-45089229D01*
X69525366Y-45074113D01*
X69547288Y-45063997D01*
X69564590Y-45057877D01*
X69578674Y-45054749D01*
X69590945Y-45053607D01*
X69600116Y-45053449D01*
X69672401Y-45059287D01*
G36*
X97455516Y-59148378D02*
G01*
X97517049Y-59174018D01*
X97613811Y-59215848D01*
X97744181Y-59273127D01*
X97906539Y-59345117D01*
X98099265Y-59431077D01*
X98320738Y-59530268D01*
X98569338Y-59641951D01*
X98843443Y-59765385D01*
X99141435Y-59899832D01*
X99461692Y-60044550D01*
X99802594Y-60198802D01*
X100162520Y-60361847D01*
X100539850Y-60532945D01*
X100932963Y-60711357D01*
X101340240Y-60896344D01*
X101760059Y-61087165D01*
X102190800Y-61283082D01*
X102630843Y-61483353D01*
X103078567Y-61687241D01*
X103532352Y-61894004D01*
X103990577Y-62102905D01*
X104451622Y-62313202D01*
X104913867Y-62524156D01*
X105375690Y-62735028D01*
X105835472Y-62945078D01*
X106291592Y-63153567D01*
X106742430Y-63359754D01*
X107186365Y-63562901D01*
X107621776Y-63762267D01*
X108047044Y-63957113D01*
X108460547Y-64146699D01*
X108860666Y-64330285D01*
X109245780Y-64507133D01*
X109614268Y-64676502D01*
X109964510Y-64837653D01*
X110294886Y-64989846D01*
X110603774Y-65132342D01*
X110889555Y-65264400D01*
X111150609Y-65385282D01*
X111385314Y-65494247D01*
X111592050Y-65590556D01*
X111769198Y-65673470D01*
X111915135Y-65742248D01*
X112028243Y-65796151D01*
X112106900Y-65834440D01*
X112149485Y-65856375D01*
X112156875Y-65861114D01*
X112197313Y-65937285D01*
X112204500Y-65989943D01*
X112200601Y-66005705D01*
X112188485Y-66036192D01*
X112167526Y-66082593D01*
X112137100Y-66146097D01*
X112096580Y-66227892D01*
X112045340Y-66329166D01*
X111982755Y-66451110D01*
X111908198Y-66594911D01*
X111821045Y-66761757D01*
X111720669Y-66952839D01*
X111606444Y-67169343D01*
X111477744Y-67412459D01*
X111333945Y-67683376D01*
X111174419Y-67983282D01*
X110998542Y-68313366D01*
X110805687Y-68674817D01*
X110595228Y-69068822D01*
X110366541Y-69496572D01*
X110118998Y-69959253D01*
X109862149Y-70439054D01*
X107519799Y-74813584D01*
X104705304Y-79375000D01*
X104456305Y-79778408D01*
X104212856Y-80172547D01*
X103975910Y-80555887D01*
X103746419Y-80926892D01*
X103525337Y-81284032D01*
X103313618Y-81625772D01*
X103112214Y-81950580D01*
X102922079Y-82256923D01*
X102744167Y-82543268D01*
X102579430Y-82808082D01*
X102428821Y-83049832D01*
X102293294Y-83266986D01*
X102173803Y-83458010D01*
X102071300Y-83621371D01*
X101986739Y-83755537D01*
X101921073Y-83858975D01*
X101875255Y-83930152D01*
X101850239Y-83967534D01*
X101845946Y-83972988D01*
X101784026Y-84000588D01*
X101705834Y-84008579D01*
X101696444Y-84007741D01*
X101684551Y-84004942D01*
X101669094Y-83999494D01*
X101649012Y-83990712D01*
X101623244Y-83977906D01*
X101590730Y-83960390D01*
X101550409Y-83937477D01*
X101501220Y-83908479D01*
X101442101Y-83872707D01*
X101371993Y-83829477D01*
X101289834Y-83778098D01*
X101194563Y-83717885D01*
X101085120Y-83648150D01*
X100960444Y-83568206D01*
X100819474Y-83477364D01*
X100661149Y-83374938D01*
X100484408Y-83260240D01*
X100288191Y-83132583D01*
X100071436Y-82991280D01*
X99833083Y-82835642D01*
X99572071Y-82664983D01*
X99287339Y-82478616D01*
X98977826Y-82275852D01*
X98642472Y-82056004D01*
X98280215Y-81818385D01*
X97889995Y-81562308D01*
X97470750Y-81287085D01*
X97021421Y-80992029D01*
X96540946Y-80676452D01*
X96028264Y-80339667D01*
X95482315Y-79980986D01*
X94912026Y-79606286D01*
X94422291Y-79284424D01*
X93942093Y-78968675D01*
X93472635Y-78659834D01*
X93015119Y-78358696D01*
X92570747Y-78066056D01*
X92140722Y-77782710D01*
X91726246Y-77509454D01*
X91328522Y-77247082D01*
X90948751Y-76996390D01*
X90588136Y-76758174D01*
X90247880Y-76533229D01*
X89929185Y-76322350D01*
X89633252Y-76126333D01*
X89361286Y-75945973D01*
X89114487Y-75782066D01*
X88894058Y-75635406D01*
X88701202Y-75506790D01*
X88537121Y-75397013D01*
X88403017Y-75306870D01*
X88300093Y-75237157D01*
X88229551Y-75188668D01*
X88192593Y-75162200D01*
X88187068Y-75157444D01*
X88167040Y-75100028D01*
X88160104Y-75046417D01*
X88166748Y-75020682D01*
X88186385Y-74956671D01*
X88189415Y-74947164D01*
X88681449Y-74947164D01*
X88700463Y-74961100D01*
X88753320Y-74997200D01*
X88838506Y-75054470D01*
X88954510Y-75131916D01*
X89099818Y-75228545D01*
X89272917Y-75343364D01*
X89472296Y-75475379D01*
X89696441Y-75623597D01*
X89943840Y-75787023D01*
X90212980Y-75964665D01*
X90502348Y-76155529D01*
X90810431Y-76358622D01*
X91135717Y-76572949D01*
X91476693Y-76797518D01*
X91831846Y-77031335D01*
X92199664Y-77273406D01*
X92578634Y-77522738D01*
X92967243Y-77778338D01*
X93363979Y-78039211D01*
X93767328Y-78304365D01*
X94175778Y-78572806D01*
X94587816Y-78843540D01*
X95001930Y-79115574D01*
X95416607Y-79387915D01*
X95830334Y-79659568D01*
X96241599Y-79929540D01*
X96648888Y-80196839D01*
X97050689Y-80460470D01*
X97445490Y-80719439D01*
X97831777Y-80972754D01*
X98208038Y-81219420D01*
X98572760Y-81458445D01*
X98924430Y-81688835D01*
X99261536Y-81909596D01*
X99582565Y-82119734D01*
X99886004Y-82318257D01*
X100170341Y-82504170D01*
X100434063Y-82676481D01*
X100675657Y-82834195D01*
X100893610Y-82976320D01*
X101086410Y-83101861D01*
X101252544Y-83209825D01*
X101390499Y-83299219D01*
X101498763Y-83369050D01*
X101575822Y-83418322D01*
X101620165Y-83446044D01*
X101631032Y-83452098D01*
X101643853Y-83433830D01*
X101677921Y-83381086D01*
X101732267Y-83295425D01*
X101805922Y-83178406D01*
X101897918Y-83031588D01*
X102007286Y-82856531D01*
X102133057Y-82654794D01*
X102274263Y-82427936D01*
X102429934Y-82177517D01*
X102599102Y-81905096D01*
X102780798Y-81612232D01*
X102974054Y-81300485D01*
X103177899Y-80971413D01*
X103391367Y-80626576D01*
X103613487Y-80267534D01*
X103843292Y-79895845D01*
X104079812Y-79513069D01*
X104322079Y-79120765D01*
X104322818Y-79119567D01*
X104564923Y-78727378D01*
X104801096Y-78344729D01*
X105030378Y-77973176D01*
X105251811Y-77614278D01*
X105464436Y-77269589D01*
X105667292Y-76940667D01*
X105859421Y-76629069D01*
X106039864Y-76336350D01*
X106207662Y-76064069D01*
X106361855Y-75813780D01*
X106501485Y-75587042D01*
X106625591Y-75385411D01*
X106733216Y-75210443D01*
X106823399Y-75063694D01*
X106895182Y-74946723D01*
X106947606Y-74861085D01*
X106979711Y-74808337D01*
X106990538Y-74790035D01*
X106990536Y-74790031D01*
X106970133Y-74778520D01*
X106914139Y-74747528D01*
X106824046Y-74697872D01*
X106701344Y-74630367D01*
X106547523Y-74545830D01*
X106364075Y-74445079D01*
X106152489Y-74328928D01*
X105914256Y-74198196D01*
X105650868Y-74053697D01*
X105363813Y-73896250D01*
X105054584Y-73726670D01*
X104724671Y-73545773D01*
X104375563Y-73354377D01*
X104008753Y-73153297D01*
X103625730Y-72943350D01*
X103227985Y-72725354D01*
X102817009Y-72500123D01*
X102394292Y-72268475D01*
X101961324Y-72031226D01*
X101519597Y-71789193D01*
X101070602Y-71543191D01*
X100615827Y-71294039D01*
X100156765Y-71042551D01*
X99694906Y-70789545D01*
X99231740Y-70535837D01*
X98768758Y-70282243D01*
X98307451Y-70029581D01*
X97849308Y-69778666D01*
X97395822Y-69530314D01*
X96948482Y-69285344D01*
X96508779Y-69044570D01*
X96078203Y-68808809D01*
X95658245Y-68578879D01*
X95250396Y-68355595D01*
X94856147Y-68139774D01*
X94476987Y-67932232D01*
X94114408Y-67733786D01*
X93769900Y-67545252D01*
X93444954Y-67367447D01*
X93141060Y-67201187D01*
X92859708Y-67047289D01*
X92602391Y-66906569D01*
X92370597Y-66779844D01*
X92165818Y-66667931D01*
X91989544Y-66571645D01*
X91843266Y-66491803D01*
X91728475Y-66429222D01*
X91646660Y-66384718D01*
X91599313Y-66359107D01*
X91587268Y-66352772D01*
X91577805Y-66371812D01*
X91555697Y-66428771D01*
X91521698Y-66521408D01*
X91476567Y-66647487D01*
X91421060Y-66804770D01*
X91355933Y-66991019D01*
X91281943Y-67203995D01*
X91199847Y-67441460D01*
X91110401Y-67701177D01*
X91014363Y-67980908D01*
X90912488Y-68278414D01*
X90805534Y-68591457D01*
X90694258Y-68917800D01*
X90579415Y-69255205D01*
X90461763Y-69601433D01*
X90342058Y-69954247D01*
X90221057Y-70311408D01*
X90099517Y-70670679D01*
X89978194Y-71029821D01*
X89857845Y-71386596D01*
X89739227Y-71738768D01*
X89623096Y-72084096D01*
X89510210Y-72420344D01*
X89401324Y-72745274D01*
X89297195Y-73056646D01*
X89198581Y-73352225D01*
X89106237Y-73629771D01*
X89020921Y-73887046D01*
X88943390Y-74121813D01*
X88874399Y-74331833D01*
X88814705Y-74514868D01*
X88765066Y-74668681D01*
X88726238Y-74791033D01*
X88698977Y-74879687D01*
X88684041Y-74932404D01*
X88681449Y-74947164D01*
X88189415Y-74947164D01*
X88218409Y-74856196D01*
X88262216Y-74721072D01*
X88317202Y-74553112D01*
X88382762Y-74354130D01*
X88458292Y-74125940D01*
X88543187Y-73870354D01*
X88636843Y-73589188D01*
X88738654Y-73284254D01*
X88848018Y-72957367D01*
X88964328Y-72610339D01*
X89086982Y-72244985D01*
X89215373Y-71863118D01*
X89348898Y-71466552D01*
X89486953Y-71057100D01*
X89628932Y-70636577D01*
X89699229Y-70428573D01*
X91217693Y-65937008D01*
X91825475Y-65937008D01*
X91844089Y-65947974D01*
X91898320Y-65978469D01*
X91986680Y-66027675D01*
X92107681Y-66094776D01*
X92259835Y-66178954D01*
X92441654Y-66279392D01*
X92651650Y-66395274D01*
X92888335Y-66525781D01*
X93150221Y-66670097D01*
X93435820Y-66827405D01*
X93743645Y-66996887D01*
X94072206Y-67177727D01*
X94420017Y-67369108D01*
X94785589Y-67570211D01*
X95167434Y-67780221D01*
X95564065Y-67998319D01*
X95973993Y-68223690D01*
X96395731Y-68455515D01*
X96827789Y-68692978D01*
X97268682Y-68935261D01*
X97716920Y-69181547D01*
X98171015Y-69431020D01*
X98629480Y-69682862D01*
X99090826Y-69936256D01*
X99553566Y-70190385D01*
X100016212Y-70444431D01*
X100477275Y-70697578D01*
X100935268Y-70949009D01*
X101388703Y-71197906D01*
X101836091Y-71443452D01*
X102275946Y-71684830D01*
X102706778Y-71921224D01*
X103127100Y-72151815D01*
X103535424Y-72375787D01*
X103930261Y-72592322D01*
X104310125Y-72800604D01*
X104673527Y-72999815D01*
X105018979Y-73189139D01*
X105344992Y-73367758D01*
X105650080Y-73534854D01*
X105932754Y-73689612D01*
X106191526Y-73831213D01*
X106424909Y-73958841D01*
X106631413Y-74071679D01*
X106809552Y-74168909D01*
X106957837Y-74249714D01*
X107074780Y-74313277D01*
X107158894Y-74358781D01*
X107208690Y-74385409D01*
X107222936Y-74392587D01*
X107233081Y-74373984D01*
X107262306Y-74319738D01*
X107309712Y-74231530D01*
X107374399Y-74111038D01*
X107455467Y-73959943D01*
X107552015Y-73779923D01*
X107663144Y-73572658D01*
X107787954Y-73339826D01*
X107925544Y-73083108D01*
X108075016Y-72804183D01*
X108235467Y-72504730D01*
X108405999Y-72186428D01*
X108585712Y-71850956D01*
X108773706Y-71499995D01*
X108969079Y-71135223D01*
X109170934Y-70758319D01*
X109378368Y-70370963D01*
X109440972Y-70254053D01*
X109649813Y-69863839D01*
X109853169Y-69483469D01*
X110050149Y-69114627D01*
X110239859Y-68758998D01*
X110421408Y-68418266D01*
X110593904Y-68094117D01*
X110756454Y-67788234D01*
X110908168Y-67502304D01*
X111048152Y-67238010D01*
X111175514Y-66997037D01*
X111289363Y-66781070D01*
X111388806Y-66591794D01*
X111472952Y-66430894D01*
X111540908Y-66300054D01*
X111591782Y-66200960D01*
X111624682Y-66135295D01*
X111638716Y-66104745D01*
X111639119Y-66102684D01*
X111618846Y-66092882D01*
X111561402Y-66066141D01*
X111468138Y-66023076D01*
X111340405Y-65964305D01*
X111179554Y-65890445D01*
X110986934Y-65802115D01*
X110763897Y-65699930D01*
X110511792Y-65584508D01*
X110231971Y-65456467D01*
X109925783Y-65316425D01*
X109594580Y-65164997D01*
X109239711Y-65002802D01*
X108862527Y-64830457D01*
X108464378Y-64648578D01*
X108046616Y-64457785D01*
X107610590Y-64258693D01*
X107157650Y-64051921D01*
X106689149Y-63838084D01*
X106206435Y-63617802D01*
X105710859Y-63391690D01*
X105203772Y-63160367D01*
X104686525Y-62924450D01*
X104556118Y-62864978D01*
X103924050Y-62576755D01*
X103329398Y-62305657D01*
X102771082Y-62051195D01*
X102248023Y-61812885D01*
X101759139Y-61590239D01*
X101303351Y-61382771D01*
X100879577Y-61189996D01*
X100486739Y-61011426D01*
X100123755Y-60846576D01*
X99789546Y-60694958D01*
X99483031Y-60556087D01*
X99203129Y-60429477D01*
X98948761Y-60314641D01*
X98718847Y-60211093D01*
X98512305Y-60118346D01*
X98328056Y-60035914D01*
X98165020Y-59963311D01*
X98022116Y-59900050D01*
X97898264Y-59845646D01*
X97792383Y-59799612D01*
X97703394Y-59761461D01*
X97630216Y-59730707D01*
X97571769Y-59706865D01*
X97526973Y-59689446D01*
X97494747Y-59677967D01*
X97474011Y-59671939D01*
X97463684Y-59670877D01*
X97462395Y-59671513D01*
X97418415Y-59718849D01*
X97349587Y-59793898D01*
X97257550Y-59894840D01*
X97143941Y-60019855D01*
X97010398Y-60167122D01*
X96858560Y-60334820D01*
X96690064Y-60521128D01*
X96506548Y-60724226D01*
X96309651Y-60942293D01*
X96101010Y-61173509D01*
X95882264Y-61416052D01*
X95655051Y-61668102D01*
X95421008Y-61927839D01*
X95181774Y-62193440D01*
X94938987Y-62463087D01*
X94694285Y-62734958D01*
X94449305Y-63007233D01*
X94205686Y-63278090D01*
X93965066Y-63545709D01*
X93729083Y-63808270D01*
X93499375Y-64063951D01*
X93277580Y-64310933D01*
X93065336Y-64547393D01*
X92864281Y-64771512D01*
X92676053Y-64981470D01*
X92502290Y-65175444D01*
X92344630Y-65351615D01*
X92204712Y-65508161D01*
X92084173Y-65643263D01*
X91984651Y-65755099D01*
X91907785Y-65841849D01*
X91855212Y-65901692D01*
X91828570Y-65932807D01*
X91825475Y-65937008D01*
X91217693Y-65937008D01*
X91238917Y-65874230D01*
X94270580Y-62519973D01*
X94562169Y-62197471D01*
X94846440Y-61883283D01*
X95122076Y-61578860D01*
X95387758Y-61285646D01*
X95642170Y-61005091D01*
X95883993Y-60738642D01*
X96111909Y-60487746D01*
X96324600Y-60253851D01*
X96520749Y-60038404D01*
X96699038Y-59842853D01*
X96858149Y-59668645D01*
X96996764Y-59517228D01*
X97113566Y-59390049D01*
X97207235Y-59288556D01*
X97276456Y-59214196D01*
X97319909Y-59168418D01*
X97336186Y-59152692D01*
X97382421Y-59142908D01*
X97430832Y-59139667D01*
X97455516Y-59148378D01*
G37*
X97455516Y-59148378D02*
X97517049Y-59174018D01*
X97613811Y-59215848D01*
X97744181Y-59273127D01*
X97906539Y-59345117D01*
X98099265Y-59431077D01*
X98320738Y-59530268D01*
X98569338Y-59641951D01*
X98843443Y-59765385D01*
X99141435Y-59899832D01*
X99461692Y-60044550D01*
X99802594Y-60198802D01*
X100162520Y-60361847D01*
X100539850Y-60532945D01*
X100932963Y-60711357D01*
X101340240Y-60896344D01*
X101760059Y-61087165D01*
X102190800Y-61283082D01*
X102630843Y-61483353D01*
X103078567Y-61687241D01*
X103532352Y-61894004D01*
X103990577Y-62102905D01*
X104451622Y-62313202D01*
X104913867Y-62524156D01*
X105375690Y-62735028D01*
X105835472Y-62945078D01*
X106291592Y-63153567D01*
X106742430Y-63359754D01*
X107186365Y-63562901D01*
X107621776Y-63762267D01*
X108047044Y-63957113D01*
X108460547Y-64146699D01*
X108860666Y-64330285D01*
X109245780Y-64507133D01*
X109614268Y-64676502D01*
X109964510Y-64837653D01*
X110294886Y-64989846D01*
X110603774Y-65132342D01*
X110889555Y-65264400D01*
X111150609Y-65385282D01*
X111385314Y-65494247D01*
X111592050Y-65590556D01*
X111769198Y-65673470D01*
X111915135Y-65742248D01*
X112028243Y-65796151D01*
X112106900Y-65834440D01*
X112149485Y-65856375D01*
X112156875Y-65861114D01*
X112197313Y-65937285D01*
X112204500Y-65989943D01*
X112200601Y-66005705D01*
X112188485Y-66036192D01*
X112167526Y-66082593D01*
X112137100Y-66146097D01*
X112096580Y-66227892D01*
X112045340Y-66329166D01*
X111982755Y-66451110D01*
X111908198Y-66594911D01*
X111821045Y-66761757D01*
X111720669Y-66952839D01*
X111606444Y-67169343D01*
X111477744Y-67412459D01*
X111333945Y-67683376D01*
X111174419Y-67983282D01*
X110998542Y-68313366D01*
X110805687Y-68674817D01*
X110595228Y-69068822D01*
X110366541Y-69496572D01*
X110118998Y-69959253D01*
X109862149Y-70439054D01*
X107519799Y-74813584D01*
X104705304Y-79375000D01*
X104456305Y-79778408D01*
X104212856Y-80172547D01*
X103975910Y-80555887D01*
X103746419Y-80926892D01*
X103525337Y-81284032D01*
X103313618Y-81625772D01*
X103112214Y-81950580D01*
X102922079Y-82256923D01*
X102744167Y-82543268D01*
X102579430Y-82808082D01*
X102428821Y-83049832D01*
X102293294Y-83266986D01*
X102173803Y-83458010D01*
X102071300Y-83621371D01*
X101986739Y-83755537D01*
X101921073Y-83858975D01*
X101875255Y-83930152D01*
X101850239Y-83967534D01*
X101845946Y-83972988D01*
X101784026Y-84000588D01*
X101705834Y-84008579D01*
X101696444Y-84007741D01*
X101684551Y-84004942D01*
X101669094Y-83999494D01*
X101649012Y-83990712D01*
X101623244Y-83977906D01*
X101590730Y-83960390D01*
X101550409Y-83937477D01*
X101501220Y-83908479D01*
X101442101Y-83872707D01*
X101371993Y-83829477D01*
X101289834Y-83778098D01*
X101194563Y-83717885D01*
X101085120Y-83648150D01*
X100960444Y-83568206D01*
X100819474Y-83477364D01*
X100661149Y-83374938D01*
X100484408Y-83260240D01*
X100288191Y-83132583D01*
X100071436Y-82991280D01*
X99833083Y-82835642D01*
X99572071Y-82664983D01*
X99287339Y-82478616D01*
X98977826Y-82275852D01*
X98642472Y-82056004D01*
X98280215Y-81818385D01*
X97889995Y-81562308D01*
X97470750Y-81287085D01*
X97021421Y-80992029D01*
X96540946Y-80676452D01*
X96028264Y-80339667D01*
X95482315Y-79980986D01*
X94912026Y-79606286D01*
X94422291Y-79284424D01*
X93942093Y-78968675D01*
X93472635Y-78659834D01*
X93015119Y-78358696D01*
X92570747Y-78066056D01*
X92140722Y-77782710D01*
X91726246Y-77509454D01*
X91328522Y-77247082D01*
X90948751Y-76996390D01*
X90588136Y-76758174D01*
X90247880Y-76533229D01*
X89929185Y-76322350D01*
X89633252Y-76126333D01*
X89361286Y-75945973D01*
X89114487Y-75782066D01*
X88894058Y-75635406D01*
X88701202Y-75506790D01*
X88537121Y-75397013D01*
X88403017Y-75306870D01*
X88300093Y-75237157D01*
X88229551Y-75188668D01*
X88192593Y-75162200D01*
X88187068Y-75157444D01*
X88167040Y-75100028D01*
X88160104Y-75046417D01*
X88166748Y-75020682D01*
X88186385Y-74956671D01*
X88189415Y-74947164D01*
X88681449Y-74947164D01*
X88700463Y-74961100D01*
X88753320Y-74997200D01*
X88838506Y-75054470D01*
X88954510Y-75131916D01*
X89099818Y-75228545D01*
X89272917Y-75343364D01*
X89472296Y-75475379D01*
X89696441Y-75623597D01*
X89943840Y-75787023D01*
X90212980Y-75964665D01*
X90502348Y-76155529D01*
X90810431Y-76358622D01*
X91135717Y-76572949D01*
X91476693Y-76797518D01*
X91831846Y-77031335D01*
X92199664Y-77273406D01*
X92578634Y-77522738D01*
X92967243Y-77778338D01*
X93363979Y-78039211D01*
X93767328Y-78304365D01*
X94175778Y-78572806D01*
X94587816Y-78843540D01*
X95001930Y-79115574D01*
X95416607Y-79387915D01*
X95830334Y-79659568D01*
X96241599Y-79929540D01*
X96648888Y-80196839D01*
X97050689Y-80460470D01*
X97445490Y-80719439D01*
X97831777Y-80972754D01*
X98208038Y-81219420D01*
X98572760Y-81458445D01*
X98924430Y-81688835D01*
X99261536Y-81909596D01*
X99582565Y-82119734D01*
X99886004Y-82318257D01*
X100170341Y-82504170D01*
X100434063Y-82676481D01*
X100675657Y-82834195D01*
X100893610Y-82976320D01*
X101086410Y-83101861D01*
X101252544Y-83209825D01*
X101390499Y-83299219D01*
X101498763Y-83369050D01*
X101575822Y-83418322D01*
X101620165Y-83446044D01*
X101631032Y-83452098D01*
X101643853Y-83433830D01*
X101677921Y-83381086D01*
X101732267Y-83295425D01*
X101805922Y-83178406D01*
X101897918Y-83031588D01*
X102007286Y-82856531D01*
X102133057Y-82654794D01*
X102274263Y-82427936D01*
X102429934Y-82177517D01*
X102599102Y-81905096D01*
X102780798Y-81612232D01*
X102974054Y-81300485D01*
X103177899Y-80971413D01*
X103391367Y-80626576D01*
X103613487Y-80267534D01*
X103843292Y-79895845D01*
X104079812Y-79513069D01*
X104322079Y-79120765D01*
X104322818Y-79119567D01*
X104564923Y-78727378D01*
X104801096Y-78344729D01*
X105030378Y-77973176D01*
X105251811Y-77614278D01*
X105464436Y-77269589D01*
X105667292Y-76940667D01*
X105859421Y-76629069D01*
X106039864Y-76336350D01*
X106207662Y-76064069D01*
X106361855Y-75813780D01*
X106501485Y-75587042D01*
X106625591Y-75385411D01*
X106733216Y-75210443D01*
X106823399Y-75063694D01*
X106895182Y-74946723D01*
X106947606Y-74861085D01*
X106979711Y-74808337D01*
X106990538Y-74790035D01*
X106990536Y-74790031D01*
X106970133Y-74778520D01*
X106914139Y-74747528D01*
X106824046Y-74697872D01*
X106701344Y-74630367D01*
X106547523Y-74545830D01*
X106364075Y-74445079D01*
X106152489Y-74328928D01*
X105914256Y-74198196D01*
X105650868Y-74053697D01*
X105363813Y-73896250D01*
X105054584Y-73726670D01*
X104724671Y-73545773D01*
X104375563Y-73354377D01*
X104008753Y-73153297D01*
X103625730Y-72943350D01*
X103227985Y-72725354D01*
X102817009Y-72500123D01*
X102394292Y-72268475D01*
X101961324Y-72031226D01*
X101519597Y-71789193D01*
X101070602Y-71543191D01*
X100615827Y-71294039D01*
X100156765Y-71042551D01*
X99694906Y-70789545D01*
X99231740Y-70535837D01*
X98768758Y-70282243D01*
X98307451Y-70029581D01*
X97849308Y-69778666D01*
X97395822Y-69530314D01*
X96948482Y-69285344D01*
X96508779Y-69044570D01*
X96078203Y-68808809D01*
X95658245Y-68578879D01*
X95250396Y-68355595D01*
X94856147Y-68139774D01*
X94476987Y-67932232D01*
X94114408Y-67733786D01*
X93769900Y-67545252D01*
X93444954Y-67367447D01*
X93141060Y-67201187D01*
X92859708Y-67047289D01*
X92602391Y-66906569D01*
X92370597Y-66779844D01*
X92165818Y-66667931D01*
X91989544Y-66571645D01*
X91843266Y-66491803D01*
X91728475Y-66429222D01*
X91646660Y-66384718D01*
X91599313Y-66359107D01*
X91587268Y-66352772D01*
X91577805Y-66371812D01*
X91555697Y-66428771D01*
X91521698Y-66521408D01*
X91476567Y-66647487D01*
X91421060Y-66804770D01*
X91355933Y-66991019D01*
X91281943Y-67203995D01*
X91199847Y-67441460D01*
X91110401Y-67701177D01*
X91014363Y-67980908D01*
X90912488Y-68278414D01*
X90805534Y-68591457D01*
X90694258Y-68917800D01*
X90579415Y-69255205D01*
X90461763Y-69601433D01*
X90342058Y-69954247D01*
X90221057Y-70311408D01*
X90099517Y-70670679D01*
X89978194Y-71029821D01*
X89857845Y-71386596D01*
X89739227Y-71738768D01*
X89623096Y-72084096D01*
X89510210Y-72420344D01*
X89401324Y-72745274D01*
X89297195Y-73056646D01*
X89198581Y-73352225D01*
X89106237Y-73629771D01*
X89020921Y-73887046D01*
X88943390Y-74121813D01*
X88874399Y-74331833D01*
X88814705Y-74514868D01*
X88765066Y-74668681D01*
X88726238Y-74791033D01*
X88698977Y-74879687D01*
X88684041Y-74932404D01*
X88681449Y-74947164D01*
X88189415Y-74947164D01*
X88218409Y-74856196D01*
X88262216Y-74721072D01*
X88317202Y-74553112D01*
X88382762Y-74354130D01*
X88458292Y-74125940D01*
X88543187Y-73870354D01*
X88636843Y-73589188D01*
X88738654Y-73284254D01*
X88848018Y-72957367D01*
X88964328Y-72610339D01*
X89086982Y-72244985D01*
X89215373Y-71863118D01*
X89348898Y-71466552D01*
X89486953Y-71057100D01*
X89628932Y-70636577D01*
X89699229Y-70428573D01*
X91217693Y-65937008D01*
X91825475Y-65937008D01*
X91844089Y-65947974D01*
X91898320Y-65978469D01*
X91986680Y-66027675D01*
X92107681Y-66094776D01*
X92259835Y-66178954D01*
X92441654Y-66279392D01*
X92651650Y-66395274D01*
X92888335Y-66525781D01*
X93150221Y-66670097D01*
X93435820Y-66827405D01*
X93743645Y-66996887D01*
X94072206Y-67177727D01*
X94420017Y-67369108D01*
X94785589Y-67570211D01*
X95167434Y-67780221D01*
X95564065Y-67998319D01*
X95973993Y-68223690D01*
X96395731Y-68455515D01*
X96827789Y-68692978D01*
X97268682Y-68935261D01*
X97716920Y-69181547D01*
X98171015Y-69431020D01*
X98629480Y-69682862D01*
X99090826Y-69936256D01*
X99553566Y-70190385D01*
X100016212Y-70444431D01*
X100477275Y-70697578D01*
X100935268Y-70949009D01*
X101388703Y-71197906D01*
X101836091Y-71443452D01*
X102275946Y-71684830D01*
X102706778Y-71921224D01*
X103127100Y-72151815D01*
X103535424Y-72375787D01*
X103930261Y-72592322D01*
X104310125Y-72800604D01*
X104673527Y-72999815D01*
X105018979Y-73189139D01*
X105344992Y-73367758D01*
X105650080Y-73534854D01*
X105932754Y-73689612D01*
X106191526Y-73831213D01*
X106424909Y-73958841D01*
X106631413Y-74071679D01*
X106809552Y-74168909D01*
X106957837Y-74249714D01*
X107074780Y-74313277D01*
X107158894Y-74358781D01*
X107208690Y-74385409D01*
X107222936Y-74392587D01*
X107233081Y-74373984D01*
X107262306Y-74319738D01*
X107309712Y-74231530D01*
X107374399Y-74111038D01*
X107455467Y-73959943D01*
X107552015Y-73779923D01*
X107663144Y-73572658D01*
X107787954Y-73339826D01*
X107925544Y-73083108D01*
X108075016Y-72804183D01*
X108235467Y-72504730D01*
X108405999Y-72186428D01*
X108585712Y-71850956D01*
X108773706Y-71499995D01*
X108969079Y-71135223D01*
X109170934Y-70758319D01*
X109378368Y-70370963D01*
X109440972Y-70254053D01*
X109649813Y-69863839D01*
X109853169Y-69483469D01*
X110050149Y-69114627D01*
X110239859Y-68758998D01*
X110421408Y-68418266D01*
X110593904Y-68094117D01*
X110756454Y-67788234D01*
X110908168Y-67502304D01*
X111048152Y-67238010D01*
X111175514Y-66997037D01*
X111289363Y-66781070D01*
X111388806Y-66591794D01*
X111472952Y-66430894D01*
X111540908Y-66300054D01*
X111591782Y-66200960D01*
X111624682Y-66135295D01*
X111638716Y-66104745D01*
X111639119Y-66102684D01*
X111618846Y-66092882D01*
X111561402Y-66066141D01*
X111468138Y-66023076D01*
X111340405Y-65964305D01*
X111179554Y-65890445D01*
X110986934Y-65802115D01*
X110763897Y-65699930D01*
X110511792Y-65584508D01*
X110231971Y-65456467D01*
X109925783Y-65316425D01*
X109594580Y-65164997D01*
X109239711Y-65002802D01*
X108862527Y-64830457D01*
X108464378Y-64648578D01*
X108046616Y-64457785D01*
X107610590Y-64258693D01*
X107157650Y-64051921D01*
X106689149Y-63838084D01*
X106206435Y-63617802D01*
X105710859Y-63391690D01*
X105203772Y-63160367D01*
X104686525Y-62924450D01*
X104556118Y-62864978D01*
X103924050Y-62576755D01*
X103329398Y-62305657D01*
X102771082Y-62051195D01*
X102248023Y-61812885D01*
X101759139Y-61590239D01*
X101303351Y-61382771D01*
X100879577Y-61189996D01*
X100486739Y-61011426D01*
X100123755Y-60846576D01*
X99789546Y-60694958D01*
X99483031Y-60556087D01*
X99203129Y-60429477D01*
X98948761Y-60314641D01*
X98718847Y-60211093D01*
X98512305Y-60118346D01*
X98328056Y-60035914D01*
X98165020Y-59963311D01*
X98022116Y-59900050D01*
X97898264Y-59845646D01*
X97792383Y-59799612D01*
X97703394Y-59761461D01*
X97630216Y-59730707D01*
X97571769Y-59706865D01*
X97526973Y-59689446D01*
X97494747Y-59677967D01*
X97474011Y-59671939D01*
X97463684Y-59670877D01*
X97462395Y-59671513D01*
X97418415Y-59718849D01*
X97349587Y-59793898D01*
X97257550Y-59894840D01*
X97143941Y-60019855D01*
X97010398Y-60167122D01*
X96858560Y-60334820D01*
X96690064Y-60521128D01*
X96506548Y-60724226D01*
X96309651Y-60942293D01*
X96101010Y-61173509D01*
X95882264Y-61416052D01*
X95655051Y-61668102D01*
X95421008Y-61927839D01*
X95181774Y-62193440D01*
X94938987Y-62463087D01*
X94694285Y-62734958D01*
X94449305Y-63007233D01*
X94205686Y-63278090D01*
X93965066Y-63545709D01*
X93729083Y-63808270D01*
X93499375Y-64063951D01*
X93277580Y-64310933D01*
X93065336Y-64547393D01*
X92864281Y-64771512D01*
X92676053Y-64981470D01*
X92502290Y-65175444D01*
X92344630Y-65351615D01*
X92204712Y-65508161D01*
X92084173Y-65643263D01*
X91984651Y-65755099D01*
X91907785Y-65841849D01*
X91855212Y-65901692D01*
X91828570Y-65932807D01*
X91825475Y-65937008D01*
X91217693Y-65937008D01*
X91238917Y-65874230D01*
X94270580Y-62519973D01*
X94562169Y-62197471D01*
X94846440Y-61883283D01*
X95122076Y-61578860D01*
X95387758Y-61285646D01*
X95642170Y-61005091D01*
X95883993Y-60738642D01*
X96111909Y-60487746D01*
X96324600Y-60253851D01*
X96520749Y-60038404D01*
X96699038Y-59842853D01*
X96858149Y-59668645D01*
X96996764Y-59517228D01*
X97113566Y-59390049D01*
X97207235Y-59288556D01*
X97276456Y-59214196D01*
X97319909Y-59168418D01*
X97336186Y-59152692D01*
X97382421Y-59142908D01*
X97430832Y-59139667D01*
X97455516Y-59148378D01*
G36*
X43190134Y-59149763D02*
G01*
X43236184Y-59166875D01*
X43256509Y-59183814D01*
X43306251Y-59227900D01*
X43383733Y-59297588D01*
X43487274Y-59391336D01*
X43615196Y-59507599D01*
X43765820Y-59644834D01*
X43937467Y-59801496D01*
X44128458Y-59976043D01*
X44337114Y-60166930D01*
X44561757Y-60372614D01*
X44800707Y-60591551D01*
X45052286Y-60822196D01*
X45314814Y-61063007D01*
X45586613Y-61312440D01*
X45866004Y-61568950D01*
X46151308Y-61830994D01*
X46440846Y-62097028D01*
X46732939Y-62365509D01*
X47025908Y-62634892D01*
X47318075Y-62903634D01*
X47607759Y-63170191D01*
X47893284Y-63433020D01*
X48172969Y-63690576D01*
X48445136Y-63941316D01*
X48708105Y-64183696D01*
X48960199Y-64416172D01*
X49199738Y-64637200D01*
X49425042Y-64845238D01*
X49634434Y-65038740D01*
X49826234Y-65216163D01*
X49998764Y-65375964D01*
X50150344Y-65516599D01*
X50279295Y-65636523D01*
X50383939Y-65734193D01*
X50462597Y-65808066D01*
X50513590Y-65856597D01*
X50535239Y-65878243D01*
X50535762Y-65878924D01*
X50543452Y-65904869D01*
X50558935Y-65970034D01*
X50581744Y-66072117D01*
X50611415Y-66208815D01*
X50647482Y-66377829D01*
X50689479Y-66576857D01*
X50736941Y-66803597D01*
X50789402Y-67055749D01*
X50846398Y-67331011D01*
X50907463Y-67627082D01*
X50972131Y-67941660D01*
X51039938Y-68272444D01*
X51110417Y-68617134D01*
X51183103Y-68973427D01*
X51257531Y-69339022D01*
X51333236Y-69711619D01*
X51409752Y-70088916D01*
X51486613Y-70468611D01*
X51563355Y-70848404D01*
X51639512Y-71225993D01*
X51714618Y-71599077D01*
X51788209Y-71965355D01*
X51859818Y-72322525D01*
X51928981Y-72668286D01*
X51995231Y-73000337D01*
X52058104Y-73316376D01*
X52117134Y-73614103D01*
X52171856Y-73891216D01*
X52221804Y-74145413D01*
X52266513Y-74374394D01*
X52305518Y-74575858D01*
X52338353Y-74747502D01*
X52364553Y-74887026D01*
X52383652Y-74992129D01*
X52395185Y-75060508D01*
X52398686Y-75089864D01*
X52398631Y-75090334D01*
X52374772Y-75149577D01*
X52332586Y-75205416D01*
X52329028Y-75208794D01*
X52307032Y-75225645D01*
X52251147Y-75266949D01*
X52161817Y-75332386D01*
X52039482Y-75421637D01*
X51884583Y-75534382D01*
X51697561Y-75670302D01*
X51478859Y-75829078D01*
X51228917Y-76010390D01*
X50948176Y-76213919D01*
X50637078Y-76439346D01*
X50296065Y-76686351D01*
X49925577Y-76954615D01*
X49526056Y-77243818D01*
X49097943Y-77553642D01*
X48641680Y-77883767D01*
X48157707Y-78233873D01*
X47646466Y-78603642D01*
X47108399Y-78992753D01*
X46543946Y-79400889D01*
X45953549Y-79827728D01*
X45337650Y-80272952D01*
X44696689Y-80736242D01*
X44031108Y-81217278D01*
X43341349Y-81715740D01*
X42627852Y-82231310D01*
X41891059Y-82763669D01*
X41131410Y-83312496D01*
X40481977Y-83781662D01*
X40367753Y-83863547D01*
X40281401Y-83923397D01*
X40216934Y-83964587D01*
X40168363Y-83990489D01*
X40129699Y-84004477D01*
X40094953Y-84009923D01*
X40075699Y-84010500D01*
X39989931Y-83997563D01*
X39932624Y-83962875D01*
X39916038Y-83941377D01*
X39876587Y-83886435D01*
X39815307Y-83799547D01*
X39733230Y-83682211D01*
X39631389Y-83535926D01*
X39510819Y-83362191D01*
X39372552Y-83162505D01*
X39217623Y-82938365D01*
X39047065Y-82691270D01*
X38861911Y-82422720D01*
X38663195Y-82134212D01*
X38451951Y-81827245D01*
X38229212Y-81503318D01*
X37996011Y-81163929D01*
X37753383Y-80810576D01*
X37502361Y-80444759D01*
X37243977Y-80067976D01*
X36979267Y-79681726D01*
X36877897Y-79533750D01*
X33876741Y-75152250D01*
X31733517Y-70618169D01*
X31537633Y-70203620D01*
X31346481Y-69798791D01*
X31160853Y-69405375D01*
X30981544Y-69025063D01*
X30809348Y-68659549D01*
X30645058Y-68310525D01*
X30598339Y-68211183D01*
X31103779Y-68211183D01*
X31115932Y-68242031D01*
X31120750Y-68251917D01*
X31133074Y-68277601D01*
X31162536Y-68339561D01*
X31208189Y-68435796D01*
X31269086Y-68564303D01*
X31344280Y-68723084D01*
X31432824Y-68910135D01*
X31533773Y-69123457D01*
X31646179Y-69361049D01*
X31769096Y-69620909D01*
X31901578Y-69901037D01*
X32042676Y-70199431D01*
X32191446Y-70514090D01*
X32346939Y-70843014D01*
X32508210Y-71184202D01*
X32674312Y-71535652D01*
X32712953Y-71617417D01*
X34273402Y-74919417D01*
X36561482Y-78258459D01*
X36793662Y-78597227D01*
X37019438Y-78926542D01*
X37237648Y-79244714D01*
X37447130Y-79550050D01*
X37646721Y-79840860D01*
X37835259Y-80115453D01*
X38011580Y-80372138D01*
X38174523Y-80609224D01*
X38322924Y-80825020D01*
X38455622Y-81017835D01*
X38571454Y-81185978D01*
X38669256Y-81327758D01*
X38747868Y-81441483D01*
X38806125Y-81525463D01*
X38842866Y-81578008D01*
X38856928Y-81597425D01*
X38857030Y-81597500D01*
X38855524Y-81583682D01*
X38851650Y-81576712D01*
X38841874Y-81555435D01*
X38815896Y-81497403D01*
X38774594Y-81404599D01*
X38718842Y-81279004D01*
X38649519Y-81122600D01*
X38567499Y-80937367D01*
X38473660Y-80725288D01*
X38368876Y-80488345D01*
X38254026Y-80228518D01*
X38129984Y-79947790D01*
X37997628Y-79648142D01*
X37857833Y-79331556D01*
X37711476Y-79000013D01*
X37559432Y-78655495D01*
X37402579Y-78299984D01*
X37351747Y-78184753D01*
X35864692Y-74813584D01*
X35850658Y-74794073D01*
X36367704Y-74794073D01*
X36375613Y-74813460D01*
X36399662Y-74869455D01*
X36438913Y-74959928D01*
X36492429Y-75082750D01*
X36559274Y-75235792D01*
X36638512Y-75416924D01*
X36729205Y-75624017D01*
X36830417Y-75854942D01*
X36941212Y-76107569D01*
X37060653Y-76379770D01*
X37187804Y-76669414D01*
X37321727Y-76974373D01*
X37461486Y-77292517D01*
X37606145Y-77621717D01*
X37754767Y-77959844D01*
X37906416Y-78304768D01*
X38060154Y-78654360D01*
X38215045Y-79006490D01*
X38370153Y-79359031D01*
X38524541Y-79709851D01*
X38677273Y-80056822D01*
X38827411Y-80397815D01*
X38974020Y-80730700D01*
X39116162Y-81053348D01*
X39252902Y-81363629D01*
X39383302Y-81659415D01*
X39506425Y-81938576D01*
X39621336Y-82198982D01*
X39727098Y-82438505D01*
X39822774Y-82655015D01*
X39907427Y-82846383D01*
X39980122Y-83010479D01*
X40039920Y-83145175D01*
X40085887Y-83248341D01*
X40112464Y-83307612D01*
X40172498Y-83440807D01*
X40316291Y-83336255D01*
X40344484Y-83315823D01*
X40405676Y-83271530D01*
X40498561Y-83204319D01*
X40621833Y-83115135D01*
X40774188Y-83004922D01*
X40954319Y-82874624D01*
X41160922Y-82725186D01*
X41392689Y-82557551D01*
X41648317Y-82372664D01*
X41926499Y-82171469D01*
X42225930Y-81954910D01*
X42545304Y-81723932D01*
X42883316Y-81479478D01*
X43238660Y-81222493D01*
X43610031Y-80953922D01*
X43996123Y-80674707D01*
X44395631Y-80385795D01*
X44807248Y-80088127D01*
X45229671Y-79782650D01*
X45661592Y-79470307D01*
X46101706Y-79152043D01*
X46134295Y-79128477D01*
X46573976Y-78810524D01*
X47005092Y-78498759D01*
X47426363Y-78194107D01*
X47836508Y-77897494D01*
X48234247Y-77609847D01*
X48618302Y-77332090D01*
X48987390Y-77065150D01*
X49340234Y-76809953D01*
X49675551Y-76567425D01*
X49992064Y-76338490D01*
X50288491Y-76124077D01*
X50563552Y-75925109D01*
X50815968Y-75742513D01*
X51044458Y-75577216D01*
X51247743Y-75430142D01*
X51424543Y-75302217D01*
X51573577Y-75194368D01*
X51693565Y-75107521D01*
X51783228Y-75042601D01*
X51841285Y-75000534D01*
X51866456Y-74982245D01*
X51867156Y-74981730D01*
X51925806Y-74938210D01*
X51063048Y-70674313D01*
X50978473Y-70256593D01*
X50896024Y-69849885D01*
X50816100Y-69456137D01*
X50739099Y-69077299D01*
X50665422Y-68715317D01*
X50595467Y-68372139D01*
X50529634Y-68049715D01*
X50468321Y-67749991D01*
X50411928Y-67474916D01*
X50360855Y-67226438D01*
X50315499Y-67006505D01*
X50276262Y-66817065D01*
X50243541Y-66660066D01*
X50217736Y-66537456D01*
X50199246Y-66451183D01*
X50188471Y-66403195D01*
X50185795Y-66393458D01*
X50167342Y-66403583D01*
X50114249Y-66434814D01*
X50028027Y-66486233D01*
X49910186Y-66556921D01*
X49762239Y-66645959D01*
X49585697Y-66752427D01*
X49382072Y-66875408D01*
X49152874Y-67013982D01*
X48899616Y-67167230D01*
X48623809Y-67334233D01*
X48326964Y-67514073D01*
X48010593Y-67705831D01*
X47676207Y-67908587D01*
X47325318Y-68121423D01*
X46959438Y-68343421D01*
X46580077Y-68573660D01*
X46188747Y-68811222D01*
X45786960Y-69055189D01*
X45376227Y-69304641D01*
X44958059Y-69558660D01*
X44533969Y-69816326D01*
X44105467Y-70076721D01*
X43674065Y-70338926D01*
X43241275Y-70602022D01*
X42808607Y-70865090D01*
X42377575Y-71127211D01*
X41949687Y-71387467D01*
X41526458Y-71644938D01*
X41109397Y-71898705D01*
X40700016Y-72147850D01*
X40299828Y-72391454D01*
X39910342Y-72628597D01*
X39533071Y-72858362D01*
X39169527Y-73079829D01*
X38821220Y-73292079D01*
X38489662Y-73494193D01*
X38176365Y-73685252D01*
X37882840Y-73864338D01*
X37610598Y-74030532D01*
X37361152Y-74182915D01*
X37136012Y-74320567D01*
X36936690Y-74442570D01*
X36764697Y-74548006D01*
X36621545Y-74635954D01*
X36508746Y-74705497D01*
X36427810Y-74755715D01*
X36380250Y-74785690D01*
X36367704Y-74794073D01*
X35850658Y-74794073D01*
X33497149Y-71522167D01*
X33256875Y-71188169D01*
X33023101Y-70863276D01*
X32797033Y-70549164D01*
X32579881Y-70247511D01*
X32372854Y-69959993D01*
X32177161Y-69688287D01*
X31994010Y-69434071D01*
X31824610Y-69199020D01*
X31670170Y-68984812D01*
X31531898Y-68793123D01*
X31411004Y-68625631D01*
X31308696Y-68484013D01*
X31226183Y-68369945D01*
X31164673Y-68285104D01*
X31125376Y-68231167D01*
X31109500Y-68209811D01*
X31109301Y-68209584D01*
X31103779Y-68211183D01*
X30598339Y-68211183D01*
X30489469Y-67979685D01*
X30343374Y-67668720D01*
X30207567Y-67379323D01*
X30082842Y-67113187D01*
X29969993Y-66872005D01*
X29869814Y-66657469D01*
X29783099Y-66471272D01*
X29710641Y-66315107D01*
X29653235Y-66190665D01*
X29611675Y-66099641D01*
X29603156Y-66080526D01*
X30177008Y-66080526D01*
X30187368Y-66099367D01*
X30221641Y-66151293D01*
X30278951Y-66235073D01*
X30358421Y-66349475D01*
X30459176Y-66493268D01*
X30580338Y-66665221D01*
X30721033Y-66864102D01*
X30880384Y-67088679D01*
X31057514Y-67337722D01*
X31251549Y-67609999D01*
X31461611Y-67904278D01*
X31686825Y-68219328D01*
X31926314Y-68553918D01*
X32179202Y-68906817D01*
X32444614Y-69276792D01*
X32721673Y-69662612D01*
X33009503Y-70063046D01*
X33094525Y-70181259D01*
X33362856Y-70554282D01*
X33625011Y-70918697D01*
X33879890Y-71272976D01*
X34126396Y-71615594D01*
X34363429Y-71945023D01*
X34589889Y-72259737D01*
X34804680Y-72558210D01*
X35006701Y-72838915D01*
X35194854Y-73100325D01*
X35368040Y-73340915D01*
X35525160Y-73559157D01*
X35665116Y-73753524D01*
X35786809Y-73922491D01*
X35889139Y-74064531D01*
X35971009Y-74178117D01*
X36031319Y-74261723D01*
X36068970Y-74313821D01*
X36082460Y-74332356D01*
X36125849Y-74378135D01*
X36158517Y-74386552D01*
X36161032Y-74385273D01*
X36180853Y-74373198D01*
X36235567Y-74339838D01*
X36323929Y-74285952D01*
X36444694Y-74212300D01*
X36596614Y-74119643D01*
X36778444Y-74008739D01*
X36988939Y-73880350D01*
X37226852Y-73735236D01*
X37490937Y-73574156D01*
X37779948Y-73397870D01*
X38092639Y-73207138D01*
X38427765Y-73002721D01*
X38784079Y-72785378D01*
X39160335Y-72555869D01*
X39555288Y-72314955D01*
X39967691Y-72063395D01*
X40396299Y-71801950D01*
X40839864Y-71531378D01*
X41297143Y-71252442D01*
X41766888Y-70965899D01*
X42247853Y-70672512D01*
X42738793Y-70373038D01*
X43071495Y-70170089D01*
X43568123Y-69867093D01*
X44055448Y-69569672D01*
X44532232Y-69278584D01*
X44997236Y-68994588D01*
X45449222Y-68718444D01*
X45886950Y-68450910D01*
X46309184Y-68192746D01*
X46714683Y-67944711D01*
X47102209Y-67707564D01*
X47470525Y-67482064D01*
X47818390Y-67268970D01*
X48144568Y-67069041D01*
X48447818Y-66883036D01*
X48726903Y-66711715D01*
X48980584Y-66555836D01*
X49207623Y-66416159D01*
X49406780Y-66293442D01*
X49576818Y-66188445D01*
X49716497Y-66101927D01*
X49824580Y-66034647D01*
X49899827Y-65987364D01*
X49941000Y-65960837D01*
X49948905Y-65955045D01*
X49932996Y-65939428D01*
X49887618Y-65896768D01*
X49814494Y-65828648D01*
X49715342Y-65736649D01*
X49591883Y-65622354D01*
X49445838Y-65487346D01*
X49278928Y-65333206D01*
X49092873Y-65161516D01*
X48889394Y-64973859D01*
X48670210Y-64771817D01*
X48437043Y-64556971D01*
X48191614Y-64330906D01*
X47935641Y-64095201D01*
X47670847Y-63851440D01*
X47398952Y-63601205D01*
X47121676Y-63346078D01*
X46840740Y-63087641D01*
X46557863Y-62827476D01*
X46274768Y-62567166D01*
X45993174Y-62308292D01*
X45714802Y-62052437D01*
X45441372Y-61801184D01*
X45174605Y-61556113D01*
X44916222Y-61318808D01*
X44667942Y-61090851D01*
X44431487Y-60873823D01*
X44208577Y-60669307D01*
X44000932Y-60478886D01*
X43810274Y-60304140D01*
X43638322Y-60146654D01*
X43486797Y-60008008D01*
X43357420Y-59889784D01*
X43251911Y-59793566D01*
X43171990Y-59720935D01*
X43119379Y-59673474D01*
X43095797Y-59652764D01*
X43094690Y-59651960D01*
X43074878Y-59660815D01*
X43018863Y-59687732D01*
X42928323Y-59731877D01*
X42804937Y-59792413D01*
X42650383Y-59868505D01*
X42466339Y-59959319D01*
X42254483Y-60064019D01*
X42016494Y-60181769D01*
X41754051Y-60311736D01*
X41468831Y-60453082D01*
X41162513Y-60604974D01*
X40836775Y-60766576D01*
X40493296Y-60937053D01*
X40133753Y-61115569D01*
X39759826Y-61301289D01*
X39373192Y-61493378D01*
X38975530Y-61691002D01*
X38568517Y-61893323D01*
X38153834Y-62099508D01*
X37733157Y-62308722D01*
X37308165Y-62520128D01*
X36880536Y-62732891D01*
X36451950Y-62946178D01*
X36024083Y-63159151D01*
X35598614Y-63370977D01*
X35177223Y-63580819D01*
X34761586Y-63787842D01*
X34353382Y-63991212D01*
X33954291Y-64190094D01*
X33565989Y-64383650D01*
X33190155Y-64571048D01*
X32828468Y-64751451D01*
X32482606Y-64924024D01*
X32154247Y-65087932D01*
X31845070Y-65242340D01*
X31556753Y-65386412D01*
X31290974Y-65519314D01*
X31049411Y-65640209D01*
X30833743Y-65748264D01*
X30645649Y-65842642D01*
X30486805Y-65922508D01*
X30358892Y-65987028D01*
X30263587Y-66035365D01*
X30202568Y-66066685D01*
X30177514Y-66080152D01*
X30177008Y-66080526D01*
X29603156Y-66080526D01*
X29586753Y-66043727D01*
X29579233Y-66025002D01*
X29582758Y-65957212D01*
X29606045Y-65893901D01*
X29611136Y-65886607D01*
X29620190Y-65877631D01*
X29634366Y-65866386D01*
X29654825Y-65852287D01*
X29682726Y-65834746D01*
X29719230Y-65813177D01*
X29765495Y-65786992D01*
X29822682Y-65755606D01*
X29891951Y-65718432D01*
X29974462Y-65674883D01*
X30071375Y-65624372D01*
X30183849Y-65566313D01*
X30313044Y-65500119D01*
X30460121Y-65425203D01*
X30626239Y-65340979D01*
X30812558Y-65246861D01*
X31020238Y-65142260D01*
X31250439Y-65026592D01*
X31504320Y-64899269D01*
X31783042Y-64759704D01*
X32087765Y-64607311D01*
X32419648Y-64441504D01*
X32779851Y-64261695D01*
X33169534Y-64067297D01*
X33589858Y-63857725D01*
X34041981Y-63632392D01*
X34527064Y-63390711D01*
X35046267Y-63132094D01*
X35600749Y-62855957D01*
X36191671Y-62561711D01*
X36353750Y-62481010D01*
X37045626Y-62136608D01*
X37699761Y-61811173D01*
X38316238Y-61504664D01*
X38895141Y-61217039D01*
X39436555Y-60948258D01*
X39940563Y-60698279D01*
X40407249Y-60467059D01*
X40836698Y-60254559D01*
X41228994Y-60060736D01*
X41584220Y-59885549D01*
X41902460Y-59728957D01*
X42183799Y-59590918D01*
X42428320Y-59471390D01*
X42636108Y-59370333D01*
X42807246Y-59287705D01*
X42941818Y-59223464D01*
X43039909Y-59177570D01*
X43101602Y-59149979D01*
X43126982Y-59140652D01*
X43127084Y-59140651D01*
X43190134Y-59149763D01*
G37*
X43190134Y-59149763D02*
X43236184Y-59166875D01*
X43256509Y-59183814D01*
X43306251Y-59227900D01*
X43383733Y-59297588D01*
X43487274Y-59391336D01*
X43615196Y-59507599D01*
X43765820Y-59644834D01*
X43937467Y-59801496D01*
X44128458Y-59976043D01*
X44337114Y-60166930D01*
X44561757Y-60372614D01*
X44800707Y-60591551D01*
X45052286Y-60822196D01*
X45314814Y-61063007D01*
X45586613Y-61312440D01*
X45866004Y-61568950D01*
X46151308Y-61830994D01*
X46440846Y-62097028D01*
X46732939Y-62365509D01*
X47025908Y-62634892D01*
X47318075Y-62903634D01*
X47607759Y-63170191D01*
X47893284Y-63433020D01*
X48172969Y-63690576D01*
X48445136Y-63941316D01*
X48708105Y-64183696D01*
X48960199Y-64416172D01*
X49199738Y-64637200D01*
X49425042Y-64845238D01*
X49634434Y-65038740D01*
X49826234Y-65216163D01*
X49998764Y-65375964D01*
X50150344Y-65516599D01*
X50279295Y-65636523D01*
X50383939Y-65734193D01*
X50462597Y-65808066D01*
X50513590Y-65856597D01*
X50535239Y-65878243D01*
X50535762Y-65878924D01*
X50543452Y-65904869D01*
X50558935Y-65970034D01*
X50581744Y-66072117D01*
X50611415Y-66208815D01*
X50647482Y-66377829D01*
X50689479Y-66576857D01*
X50736941Y-66803597D01*
X50789402Y-67055749D01*
X50846398Y-67331011D01*
X50907463Y-67627082D01*
X50972131Y-67941660D01*
X51039938Y-68272444D01*
X51110417Y-68617134D01*
X51183103Y-68973427D01*
X51257531Y-69339022D01*
X51333236Y-69711619D01*
X51409752Y-70088916D01*
X51486613Y-70468611D01*
X51563355Y-70848404D01*
X51639512Y-71225993D01*
X51714618Y-71599077D01*
X51788209Y-71965355D01*
X51859818Y-72322525D01*
X51928981Y-72668286D01*
X51995231Y-73000337D01*
X52058104Y-73316376D01*
X52117134Y-73614103D01*
X52171856Y-73891216D01*
X52221804Y-74145413D01*
X52266513Y-74374394D01*
X52305518Y-74575858D01*
X52338353Y-74747502D01*
X52364553Y-74887026D01*
X52383652Y-74992129D01*
X52395185Y-75060508D01*
X52398686Y-75089864D01*
X52398631Y-75090334D01*
X52374772Y-75149577D01*
X52332586Y-75205416D01*
X52329028Y-75208794D01*
X52307032Y-75225645D01*
X52251147Y-75266949D01*
X52161817Y-75332386D01*
X52039482Y-75421637D01*
X51884583Y-75534382D01*
X51697561Y-75670302D01*
X51478859Y-75829078D01*
X51228917Y-76010390D01*
X50948176Y-76213919D01*
X50637078Y-76439346D01*
X50296065Y-76686351D01*
X49925577Y-76954615D01*
X49526056Y-77243818D01*
X49097943Y-77553642D01*
X48641680Y-77883767D01*
X48157707Y-78233873D01*
X47646466Y-78603642D01*
X47108399Y-78992753D01*
X46543946Y-79400889D01*
X45953549Y-79827728D01*
X45337650Y-80272952D01*
X44696689Y-80736242D01*
X44031108Y-81217278D01*
X43341349Y-81715740D01*
X42627852Y-82231310D01*
X41891059Y-82763669D01*
X41131410Y-83312496D01*
X40481977Y-83781662D01*
X40367753Y-83863547D01*
X40281401Y-83923397D01*
X40216934Y-83964587D01*
X40168363Y-83990489D01*
X40129699Y-84004477D01*
X40094953Y-84009923D01*
X40075699Y-84010500D01*
X39989931Y-83997563D01*
X39932624Y-83962875D01*
X39916038Y-83941377D01*
X39876587Y-83886435D01*
X39815307Y-83799547D01*
X39733230Y-83682211D01*
X39631389Y-83535926D01*
X39510819Y-83362191D01*
X39372552Y-83162505D01*
X39217623Y-82938365D01*
X39047065Y-82691270D01*
X38861911Y-82422720D01*
X38663195Y-82134212D01*
X38451951Y-81827245D01*
X38229212Y-81503318D01*
X37996011Y-81163929D01*
X37753383Y-80810576D01*
X37502361Y-80444759D01*
X37243977Y-80067976D01*
X36979267Y-79681726D01*
X36877897Y-79533750D01*
X33876741Y-75152250D01*
X31733517Y-70618169D01*
X31537633Y-70203620D01*
X31346481Y-69798791D01*
X31160853Y-69405375D01*
X30981544Y-69025063D01*
X30809348Y-68659549D01*
X30645058Y-68310525D01*
X30598339Y-68211183D01*
X31103779Y-68211183D01*
X31115932Y-68242031D01*
X31120750Y-68251917D01*
X31133074Y-68277601D01*
X31162536Y-68339561D01*
X31208189Y-68435796D01*
X31269086Y-68564303D01*
X31344280Y-68723084D01*
X31432824Y-68910135D01*
X31533773Y-69123457D01*
X31646179Y-69361049D01*
X31769096Y-69620909D01*
X31901578Y-69901037D01*
X32042676Y-70199431D01*
X32191446Y-70514090D01*
X32346939Y-70843014D01*
X32508210Y-71184202D01*
X32674312Y-71535652D01*
X32712953Y-71617417D01*
X34273402Y-74919417D01*
X36561482Y-78258459D01*
X36793662Y-78597227D01*
X37019438Y-78926542D01*
X37237648Y-79244714D01*
X37447130Y-79550050D01*
X37646721Y-79840860D01*
X37835259Y-80115453D01*
X38011580Y-80372138D01*
X38174523Y-80609224D01*
X38322924Y-80825020D01*
X38455622Y-81017835D01*
X38571454Y-81185978D01*
X38669256Y-81327758D01*
X38747868Y-81441483D01*
X38806125Y-81525463D01*
X38842866Y-81578008D01*
X38856928Y-81597425D01*
X38857030Y-81597500D01*
X38855524Y-81583682D01*
X38851650Y-81576712D01*
X38841874Y-81555435D01*
X38815896Y-81497403D01*
X38774594Y-81404599D01*
X38718842Y-81279004D01*
X38649519Y-81122600D01*
X38567499Y-80937367D01*
X38473660Y-80725288D01*
X38368876Y-80488345D01*
X38254026Y-80228518D01*
X38129984Y-79947790D01*
X37997628Y-79648142D01*
X37857833Y-79331556D01*
X37711476Y-79000013D01*
X37559432Y-78655495D01*
X37402579Y-78299984D01*
X37351747Y-78184753D01*
X35864692Y-74813584D01*
X35850658Y-74794073D01*
X36367704Y-74794073D01*
X36375613Y-74813460D01*
X36399662Y-74869455D01*
X36438913Y-74959928D01*
X36492429Y-75082750D01*
X36559274Y-75235792D01*
X36638512Y-75416924D01*
X36729205Y-75624017D01*
X36830417Y-75854942D01*
X36941212Y-76107569D01*
X37060653Y-76379770D01*
X37187804Y-76669414D01*
X37321727Y-76974373D01*
X37461486Y-77292517D01*
X37606145Y-77621717D01*
X37754767Y-77959844D01*
X37906416Y-78304768D01*
X38060154Y-78654360D01*
X38215045Y-79006490D01*
X38370153Y-79359031D01*
X38524541Y-79709851D01*
X38677273Y-80056822D01*
X38827411Y-80397815D01*
X38974020Y-80730700D01*
X39116162Y-81053348D01*
X39252902Y-81363629D01*
X39383302Y-81659415D01*
X39506425Y-81938576D01*
X39621336Y-82198982D01*
X39727098Y-82438505D01*
X39822774Y-82655015D01*
X39907427Y-82846383D01*
X39980122Y-83010479D01*
X40039920Y-83145175D01*
X40085887Y-83248341D01*
X40112464Y-83307612D01*
X40172498Y-83440807D01*
X40316291Y-83336255D01*
X40344484Y-83315823D01*
X40405676Y-83271530D01*
X40498561Y-83204319D01*
X40621833Y-83115135D01*
X40774188Y-83004922D01*
X40954319Y-82874624D01*
X41160922Y-82725186D01*
X41392689Y-82557551D01*
X41648317Y-82372664D01*
X41926499Y-82171469D01*
X42225930Y-81954910D01*
X42545304Y-81723932D01*
X42883316Y-81479478D01*
X43238660Y-81222493D01*
X43610031Y-80953922D01*
X43996123Y-80674707D01*
X44395631Y-80385795D01*
X44807248Y-80088127D01*
X45229671Y-79782650D01*
X45661592Y-79470307D01*
X46101706Y-79152043D01*
X46134295Y-79128477D01*
X46573976Y-78810524D01*
X47005092Y-78498759D01*
X47426363Y-78194107D01*
X47836508Y-77897494D01*
X48234247Y-77609847D01*
X48618302Y-77332090D01*
X48987390Y-77065150D01*
X49340234Y-76809953D01*
X49675551Y-76567425D01*
X49992064Y-76338490D01*
X50288491Y-76124077D01*
X50563552Y-75925109D01*
X50815968Y-75742513D01*
X51044458Y-75577216D01*
X51247743Y-75430142D01*
X51424543Y-75302217D01*
X51573577Y-75194368D01*
X51693565Y-75107521D01*
X51783228Y-75042601D01*
X51841285Y-75000534D01*
X51866456Y-74982245D01*
X51867156Y-74981730D01*
X51925806Y-74938210D01*
X51063048Y-70674313D01*
X50978473Y-70256593D01*
X50896024Y-69849885D01*
X50816100Y-69456137D01*
X50739099Y-69077299D01*
X50665422Y-68715317D01*
X50595467Y-68372139D01*
X50529634Y-68049715D01*
X50468321Y-67749991D01*
X50411928Y-67474916D01*
X50360855Y-67226438D01*
X50315499Y-67006505D01*
X50276262Y-66817065D01*
X50243541Y-66660066D01*
X50217736Y-66537456D01*
X50199246Y-66451183D01*
X50188471Y-66403195D01*
X50185795Y-66393458D01*
X50167342Y-66403583D01*
X50114249Y-66434814D01*
X50028027Y-66486233D01*
X49910186Y-66556921D01*
X49762239Y-66645959D01*
X49585697Y-66752427D01*
X49382072Y-66875408D01*
X49152874Y-67013982D01*
X48899616Y-67167230D01*
X48623809Y-67334233D01*
X48326964Y-67514073D01*
X48010593Y-67705831D01*
X47676207Y-67908587D01*
X47325318Y-68121423D01*
X46959438Y-68343421D01*
X46580077Y-68573660D01*
X46188747Y-68811222D01*
X45786960Y-69055189D01*
X45376227Y-69304641D01*
X44958059Y-69558660D01*
X44533969Y-69816326D01*
X44105467Y-70076721D01*
X43674065Y-70338926D01*
X43241275Y-70602022D01*
X42808607Y-70865090D01*
X42377575Y-71127211D01*
X41949687Y-71387467D01*
X41526458Y-71644938D01*
X41109397Y-71898705D01*
X40700016Y-72147850D01*
X40299828Y-72391454D01*
X39910342Y-72628597D01*
X39533071Y-72858362D01*
X39169527Y-73079829D01*
X38821220Y-73292079D01*
X38489662Y-73494193D01*
X38176365Y-73685252D01*
X37882840Y-73864338D01*
X37610598Y-74030532D01*
X37361152Y-74182915D01*
X37136012Y-74320567D01*
X36936690Y-74442570D01*
X36764697Y-74548006D01*
X36621545Y-74635954D01*
X36508746Y-74705497D01*
X36427810Y-74755715D01*
X36380250Y-74785690D01*
X36367704Y-74794073D01*
X35850658Y-74794073D01*
X33497149Y-71522167D01*
X33256875Y-71188169D01*
X33023101Y-70863276D01*
X32797033Y-70549164D01*
X32579881Y-70247511D01*
X32372854Y-69959993D01*
X32177161Y-69688287D01*
X31994010Y-69434071D01*
X31824610Y-69199020D01*
X31670170Y-68984812D01*
X31531898Y-68793123D01*
X31411004Y-68625631D01*
X31308696Y-68484013D01*
X31226183Y-68369945D01*
X31164673Y-68285104D01*
X31125376Y-68231167D01*
X31109500Y-68209811D01*
X31109301Y-68209584D01*
X31103779Y-68211183D01*
X30598339Y-68211183D01*
X30489469Y-67979685D01*
X30343374Y-67668720D01*
X30207567Y-67379323D01*
X30082842Y-67113187D01*
X29969993Y-66872005D01*
X29869814Y-66657469D01*
X29783099Y-66471272D01*
X29710641Y-66315107D01*
X29653235Y-66190665D01*
X29611675Y-66099641D01*
X29603156Y-66080526D01*
X30177008Y-66080526D01*
X30187368Y-66099367D01*
X30221641Y-66151293D01*
X30278951Y-66235073D01*
X30358421Y-66349475D01*
X30459176Y-66493268D01*
X30580338Y-66665221D01*
X30721033Y-66864102D01*
X30880384Y-67088679D01*
X31057514Y-67337722D01*
X31251549Y-67609999D01*
X31461611Y-67904278D01*
X31686825Y-68219328D01*
X31926314Y-68553918D01*
X32179202Y-68906817D01*
X32444614Y-69276792D01*
X32721673Y-69662612D01*
X33009503Y-70063046D01*
X33094525Y-70181259D01*
X33362856Y-70554282D01*
X33625011Y-70918697D01*
X33879890Y-71272976D01*
X34126396Y-71615594D01*
X34363429Y-71945023D01*
X34589889Y-72259737D01*
X34804680Y-72558210D01*
X35006701Y-72838915D01*
X35194854Y-73100325D01*
X35368040Y-73340915D01*
X35525160Y-73559157D01*
X35665116Y-73753524D01*
X35786809Y-73922491D01*
X35889139Y-74064531D01*
X35971009Y-74178117D01*
X36031319Y-74261723D01*
X36068970Y-74313821D01*
X36082460Y-74332356D01*
X36125849Y-74378135D01*
X36158517Y-74386552D01*
X36161032Y-74385273D01*
X36180853Y-74373198D01*
X36235567Y-74339838D01*
X36323929Y-74285952D01*
X36444694Y-74212300D01*
X36596614Y-74119643D01*
X36778444Y-74008739D01*
X36988939Y-73880350D01*
X37226852Y-73735236D01*
X37490937Y-73574156D01*
X37779948Y-73397870D01*
X38092639Y-73207138D01*
X38427765Y-73002721D01*
X38784079Y-72785378D01*
X39160335Y-72555869D01*
X39555288Y-72314955D01*
X39967691Y-72063395D01*
X40396299Y-71801950D01*
X40839864Y-71531378D01*
X41297143Y-71252442D01*
X41766888Y-70965899D01*
X42247853Y-70672512D01*
X42738793Y-70373038D01*
X43071495Y-70170089D01*
X43568123Y-69867093D01*
X44055448Y-69569672D01*
X44532232Y-69278584D01*
X44997236Y-68994588D01*
X45449222Y-68718444D01*
X45886950Y-68450910D01*
X46309184Y-68192746D01*
X46714683Y-67944711D01*
X47102209Y-67707564D01*
X47470525Y-67482064D01*
X47818390Y-67268970D01*
X48144568Y-67069041D01*
X48447818Y-66883036D01*
X48726903Y-66711715D01*
X48980584Y-66555836D01*
X49207623Y-66416159D01*
X49406780Y-66293442D01*
X49576818Y-66188445D01*
X49716497Y-66101927D01*
X49824580Y-66034647D01*
X49899827Y-65987364D01*
X49941000Y-65960837D01*
X49948905Y-65955045D01*
X49932996Y-65939428D01*
X49887618Y-65896768D01*
X49814494Y-65828648D01*
X49715342Y-65736649D01*
X49591883Y-65622354D01*
X49445838Y-65487346D01*
X49278928Y-65333206D01*
X49092873Y-65161516D01*
X48889394Y-64973859D01*
X48670210Y-64771817D01*
X48437043Y-64556971D01*
X48191614Y-64330906D01*
X47935641Y-64095201D01*
X47670847Y-63851440D01*
X47398952Y-63601205D01*
X47121676Y-63346078D01*
X46840740Y-63087641D01*
X46557863Y-62827476D01*
X46274768Y-62567166D01*
X45993174Y-62308292D01*
X45714802Y-62052437D01*
X45441372Y-61801184D01*
X45174605Y-61556113D01*
X44916222Y-61318808D01*
X44667942Y-61090851D01*
X44431487Y-60873823D01*
X44208577Y-60669307D01*
X44000932Y-60478886D01*
X43810274Y-60304140D01*
X43638322Y-60146654D01*
X43486797Y-60008008D01*
X43357420Y-59889784D01*
X43251911Y-59793566D01*
X43171990Y-59720935D01*
X43119379Y-59673474D01*
X43095797Y-59652764D01*
X43094690Y-59651960D01*
X43074878Y-59660815D01*
X43018863Y-59687732D01*
X42928323Y-59731877D01*
X42804937Y-59792413D01*
X42650383Y-59868505D01*
X42466339Y-59959319D01*
X42254483Y-60064019D01*
X42016494Y-60181769D01*
X41754051Y-60311736D01*
X41468831Y-60453082D01*
X41162513Y-60604974D01*
X40836775Y-60766576D01*
X40493296Y-60937053D01*
X40133753Y-61115569D01*
X39759826Y-61301289D01*
X39373192Y-61493378D01*
X38975530Y-61691002D01*
X38568517Y-61893323D01*
X38153834Y-62099508D01*
X37733157Y-62308722D01*
X37308165Y-62520128D01*
X36880536Y-62732891D01*
X36451950Y-62946178D01*
X36024083Y-63159151D01*
X35598614Y-63370977D01*
X35177223Y-63580819D01*
X34761586Y-63787842D01*
X34353382Y-63991212D01*
X33954291Y-64190094D01*
X33565989Y-64383650D01*
X33190155Y-64571048D01*
X32828468Y-64751451D01*
X32482606Y-64924024D01*
X32154247Y-65087932D01*
X31845070Y-65242340D01*
X31556753Y-65386412D01*
X31290974Y-65519314D01*
X31049411Y-65640209D01*
X30833743Y-65748264D01*
X30645649Y-65842642D01*
X30486805Y-65922508D01*
X30358892Y-65987028D01*
X30263587Y-66035365D01*
X30202568Y-66066685D01*
X30177514Y-66080152D01*
X30177008Y-66080526D01*
X29603156Y-66080526D01*
X29586753Y-66043727D01*
X29579233Y-66025002D01*
X29582758Y-65957212D01*
X29606045Y-65893901D01*
X29611136Y-65886607D01*
X29620190Y-65877631D01*
X29634366Y-65866386D01*
X29654825Y-65852287D01*
X29682726Y-65834746D01*
X29719230Y-65813177D01*
X29765495Y-65786992D01*
X29822682Y-65755606D01*
X29891951Y-65718432D01*
X29974462Y-65674883D01*
X30071375Y-65624372D01*
X30183849Y-65566313D01*
X30313044Y-65500119D01*
X30460121Y-65425203D01*
X30626239Y-65340979D01*
X30812558Y-65246861D01*
X31020238Y-65142260D01*
X31250439Y-65026592D01*
X31504320Y-64899269D01*
X31783042Y-64759704D01*
X32087765Y-64607311D01*
X32419648Y-64441504D01*
X32779851Y-64261695D01*
X33169534Y-64067297D01*
X33589858Y-63857725D01*
X34041981Y-63632392D01*
X34527064Y-63390711D01*
X35046267Y-63132094D01*
X35600749Y-62855957D01*
X36191671Y-62561711D01*
X36353750Y-62481010D01*
X37045626Y-62136608D01*
X37699761Y-61811173D01*
X38316238Y-61504664D01*
X38895141Y-61217039D01*
X39436555Y-60948258D01*
X39940563Y-60698279D01*
X40407249Y-60467059D01*
X40836698Y-60254559D01*
X41228994Y-60060736D01*
X41584220Y-59885549D01*
X41902460Y-59728957D01*
X42183799Y-59590918D01*
X42428320Y-59471390D01*
X42636108Y-59370333D01*
X42807246Y-59287705D01*
X42941818Y-59223464D01*
X43039909Y-59177570D01*
X43101602Y-59149979D01*
X43126982Y-59140652D01*
X43127084Y-59140651D01*
X43190134Y-59149763D01*
D11*
G04 #@! TO.C,REF\002A\002A*
G36*
X22225000Y-9525000D02*
G01*
X23495000Y-12065000D01*
X24765000Y-9525000D01*
X22225000Y-9525000D01*
G37*
X22225000Y-9525000D02*
X23495000Y-12065000D01*
X24765000Y-9525000D01*
X22225000Y-9525000D01*
G36*
X19685000Y-9525000D02*
G01*
X22225000Y-14605000D01*
X23495000Y-14605000D01*
X20955000Y-9525000D01*
X19685000Y-9525000D01*
G37*
X19685000Y-9525000D02*
X22225000Y-14605000D01*
X23495000Y-14605000D01*
X20955000Y-9525000D01*
X19685000Y-9525000D01*
G36*
X17145000Y-9525000D02*
G01*
X18415000Y-12065000D01*
X19685000Y-14605000D01*
X20955000Y-14605000D01*
X18415000Y-9525000D01*
X17145000Y-9525000D01*
G37*
X17145000Y-9525000D02*
X18415000Y-12065000D01*
X19685000Y-14605000D01*
X20955000Y-14605000D01*
X18415000Y-9525000D01*
X17145000Y-9525000D01*
D13*
G04 #@! TO.C,SW2*
X18187500Y-39312500D02*
G75*
G03X18187500Y-39312500I-125000J0D01*
G01*
D10*
X14137500Y-27287500D02*
X14137500Y-23212500D01*
X14137500Y-37112500D02*
X14137500Y-33037500D01*
X24287500Y-37112500D02*
X27137500Y-37112500D01*
X14137500Y-37112500D02*
X16987500Y-37112500D01*
X27137500Y-27287500D02*
X27137500Y-23212500D01*
X27137500Y-37112500D02*
X27137500Y-33037500D01*
X24287500Y-23212500D02*
X27137500Y-23212500D01*
X19287500Y-23212500D02*
X21987500Y-23212500D01*
X14137500Y-23212500D02*
X16987500Y-23212500D01*
D13*
G04 #@! TO.C,SW1*
X18187500Y-58362500D02*
G75*
G03X18187500Y-58362500I-125000J0D01*
G01*
D10*
X14137500Y-46337500D02*
X14137500Y-42262500D01*
X14137500Y-56162500D02*
X14137500Y-52087500D01*
X24287500Y-56162500D02*
X27137500Y-56162500D01*
X14137500Y-56162500D02*
X16987500Y-56162500D01*
X27137500Y-46337500D02*
X27137500Y-42262500D01*
X27137500Y-56162500D02*
X27137500Y-52087500D01*
X24287500Y-42262500D02*
X27137500Y-42262500D01*
X19287500Y-42262500D02*
X21987500Y-42262500D01*
X14137500Y-42262500D02*
X16987500Y-42262500D01*
D14*
G04 #@! TO.C,J2*
X8315000Y-74420000D02*
X8315000Y-75440000D01*
X3115000Y-74420000D02*
X3115000Y-75440000D01*
X8315000Y-71880000D02*
X8315000Y-72900000D01*
X3115000Y-71880000D02*
X3115000Y-72900000D01*
X8315000Y-76960000D02*
X8315000Y-77530000D01*
X3115000Y-76960000D02*
X3115000Y-77530000D01*
X8315000Y-69790000D02*
X8315000Y-70360000D01*
X3115000Y-69790000D02*
X3115000Y-70360000D01*
X1675000Y-70360000D02*
X3115000Y-70360000D01*
X3115000Y-77530000D02*
X8315000Y-77530000D01*
X3115000Y-69790000D02*
X8315000Y-69790000D01*
D15*
G04 #@! TO.C,S1*
X12065000Y-81534000D02*
G75*
G03X12065000Y-81534000I-1270000J0D01*
G01*
X12334240Y-84074000D02*
X9255760Y-84074000D01*
X13335000Y-80294480D02*
X13335000Y-82773520D01*
X9255760Y-78994000D02*
X12334240Y-78994000D01*
X8255000Y-82773520D02*
X8255000Y-80264000D01*
D14*
G04 #@! TO.C,R4*
X4960252Y-79704000D02*
X4437748Y-79704000D01*
X4960252Y-78284000D02*
X4437748Y-78284000D01*
G04 #@! TO.C,J1*
X5659000Y-61032000D02*
X6109000Y-60632000D01*
X6109000Y-60632000D02*
X6109000Y-61432000D01*
X6109000Y-61432000D02*
X5659000Y-61032000D01*
X59000Y-66182000D02*
X2859000Y-66182000D01*
X2859000Y-66182000D02*
X2859000Y-66482000D01*
X2859000Y-66482000D02*
X4409000Y-66482000D01*
X59000Y-58482000D02*
X2859000Y-58482000D01*
X2859000Y-58182000D02*
X2859000Y-58482000D01*
X2859000Y-58182000D02*
X4409000Y-58182000D01*
D11*
G04 #@! TO.C,D8*
X6401000Y-62630000D02*
X6401000Y-62780000D01*
X6401000Y-62780000D02*
X6651000Y-63030000D01*
X6651000Y-63030000D02*
X6701000Y-63030000D01*
X6701000Y-63030000D02*
X6701000Y-63230000D01*
X9601000Y-62730000D02*
X9601000Y-63030000D01*
X9601000Y-63030000D02*
X9401000Y-63030000D01*
X9401000Y-61430000D02*
X9601000Y-61430000D01*
X9601000Y-61430000D02*
X9601000Y-61630000D01*
X6401000Y-61730000D02*
X6401000Y-61430000D01*
X6401000Y-61430000D02*
X6601000Y-61430000D01*
D14*
G04 #@! TO.C,F1*
X9038000Y-56547936D02*
X9038000Y-57752064D01*
X7218000Y-56547936D02*
X7218000Y-57752064D01*
G04 #@! TO.C,Y1*
X19127000Y-82247500D02*
X25377000Y-82247500D01*
X19127000Y-87297500D02*
X25377000Y-87297500D01*
X19127000Y-87297500D02*
G75*
G02X19127000Y-82247500I0J2525000D01*
G01*
X25377000Y-87297500D02*
G75*
G03X25377000Y-82247500I0J2525000D01*
G01*
D10*
G04 #@! TO.C,U1*
X17685000Y-67215000D02*
X17685000Y-67790000D01*
X28035000Y-67215000D02*
X28035000Y-67890000D01*
X28035000Y-77565000D02*
X28035000Y-76890000D01*
X17685000Y-77565000D02*
X17685000Y-76890000D01*
X17685000Y-67215000D02*
X18360000Y-67215000D01*
X17685000Y-77565000D02*
X18360000Y-77565000D01*
X28035000Y-77565000D02*
X27360000Y-77565000D01*
X28035000Y-67215000D02*
X27360000Y-67215000D01*
X17685000Y-67790000D02*
X16410000Y-67790000D01*
D14*
G04 #@! TO.C,R3*
X13398313Y-63829221D02*
X13767779Y-64198687D01*
X12394221Y-64833313D02*
X12763687Y-65202779D01*
G04 #@! TO.C,R2*
X12091097Y-65316005D02*
X12460563Y-65685471D01*
X11087005Y-66320097D02*
X11456471Y-66689563D01*
G04 #@! TO.C,C2*
X24249748Y-80252500D02*
X24772252Y-80252500D01*
X24249748Y-81672500D02*
X24772252Y-81672500D01*
G04 #@! TO.C,C1*
X20708252Y-81672500D02*
X20185748Y-81672500D01*
X20708252Y-80252500D02*
X20185748Y-80252500D01*
G04 #@! TO.C,H6*
D10*
X23483495Y-91062580D02*
X23483495Y-90062580D01*
X23483495Y-90538771D02*
X24054923Y-90538771D01*
X24054923Y-91062580D02*
X24054923Y-90062580D01*
X24959685Y-90062580D02*
X24769209Y-90062580D01*
X24673971Y-90110200D01*
X24626352Y-90157819D01*
X24531114Y-90300676D01*
X24483495Y-90491152D01*
X24483495Y-90872104D01*
X24531114Y-90967342D01*
X24578733Y-91014961D01*
X24673971Y-91062580D01*
X24864447Y-91062580D01*
X24959685Y-91014961D01*
X25007304Y-90967342D01*
X25054923Y-90872104D01*
X25054923Y-90634009D01*
X25007304Y-90538771D01*
X24959685Y-90491152D01*
X24864447Y-90443533D01*
X24673971Y-90443533D01*
X24578733Y-90491152D01*
X24531114Y-90538771D01*
X24483495Y-90634009D01*
G04 #@! TO.C,H5*
X23749095Y-8580380D02*
X23749095Y-7580380D01*
X23749095Y-8056571D02*
X24320523Y-8056571D01*
X24320523Y-8580380D02*
X24320523Y-7580380D01*
X25272904Y-7580380D02*
X24796714Y-7580380D01*
X24749095Y-8056571D01*
X24796714Y-8008952D01*
X24891952Y-7961333D01*
X25130047Y-7961333D01*
X25225285Y-8008952D01*
X25272904Y-8056571D01*
X25320523Y-8151809D01*
X25320523Y-8389904D01*
X25272904Y-8485142D01*
X25225285Y-8532761D01*
X25130047Y-8580380D01*
X24891952Y-8580380D01*
X24796714Y-8532761D01*
X24749095Y-8485142D01*
G04 #@! TO.C,H4*
X108483495Y-91062580D02*
X108483495Y-90062580D01*
X108483495Y-90538771D02*
X109054923Y-90538771D01*
X109054923Y-91062580D02*
X109054923Y-90062580D01*
X109959685Y-90395914D02*
X109959685Y-91062580D01*
X109721590Y-90014961D02*
X109483495Y-90729247D01*
X110102542Y-90729247D01*
G04 #@! TO.C,H3*
X108331095Y-9088380D02*
X108331095Y-8088380D01*
X108331095Y-8564571D02*
X108902523Y-8564571D01*
X108902523Y-9088380D02*
X108902523Y-8088380D01*
X109283476Y-8088380D02*
X109902523Y-8088380D01*
X109569190Y-8469333D01*
X109712047Y-8469333D01*
X109807285Y-8516952D01*
X109854904Y-8564571D01*
X109902523Y-8659809D01*
X109902523Y-8897904D01*
X109854904Y-8993142D01*
X109807285Y-9040761D01*
X109712047Y-9088380D01*
X109426333Y-9088380D01*
X109331095Y-9040761D01*
X109283476Y-8993142D01*
G04 #@! TO.C,H2*
X3483495Y-91062580D02*
X3483495Y-90062580D01*
X3483495Y-90538771D02*
X4054923Y-90538771D01*
X4054923Y-91062580D02*
X4054923Y-90062580D01*
X4483495Y-90157819D02*
X4531114Y-90110200D01*
X4626352Y-90062580D01*
X4864447Y-90062580D01*
X4959685Y-90110200D01*
X5007304Y-90157819D01*
X5054923Y-90253057D01*
X5054923Y-90348295D01*
X5007304Y-90491152D01*
X4435876Y-91062580D01*
X5054923Y-91062580D01*
G04 #@! TO.C,H1*
X3483495Y-8580380D02*
X3483495Y-7580380D01*
X3483495Y-8056571D02*
X4054923Y-8056571D01*
X4054923Y-8580380D02*
X4054923Y-7580380D01*
X5054923Y-8580380D02*
X4483495Y-8580380D01*
X4769209Y-8580380D02*
X4769209Y-7580380D01*
X4673971Y-7723238D01*
X4578733Y-7818476D01*
X4483495Y-7866095D01*
G04 #@! TO.C,SW2*
X13117261Y-37474523D02*
X13164880Y-37331666D01*
X13164880Y-37093571D01*
X13117261Y-36998333D01*
X13069642Y-36950714D01*
X12974404Y-36903095D01*
X12879166Y-36903095D01*
X12783928Y-36950714D01*
X12736309Y-36998333D01*
X12688690Y-37093571D01*
X12641071Y-37284047D01*
X12593452Y-37379285D01*
X12545833Y-37426904D01*
X12450595Y-37474523D01*
X12355357Y-37474523D01*
X12260119Y-37426904D01*
X12212500Y-37379285D01*
X12164880Y-37284047D01*
X12164880Y-37045952D01*
X12212500Y-36903095D01*
X12164880Y-36569761D02*
X13164880Y-36331666D01*
X12450595Y-36141190D01*
X13164880Y-35950714D01*
X12164880Y-35712619D01*
X12260119Y-35379285D02*
X12212500Y-35331666D01*
X12164880Y-35236428D01*
X12164880Y-34998333D01*
X12212500Y-34903095D01*
X12260119Y-34855476D01*
X12355357Y-34807857D01*
X12450595Y-34807857D01*
X12593452Y-34855476D01*
X13164880Y-35426904D01*
X13164880Y-34807857D01*
G04 #@! TO.C,SW1*
X13117261Y-56524523D02*
X13164880Y-56381666D01*
X13164880Y-56143571D01*
X13117261Y-56048333D01*
X13069642Y-56000714D01*
X12974404Y-55953095D01*
X12879166Y-55953095D01*
X12783928Y-56000714D01*
X12736309Y-56048333D01*
X12688690Y-56143571D01*
X12641071Y-56334047D01*
X12593452Y-56429285D01*
X12545833Y-56476904D01*
X12450595Y-56524523D01*
X12355357Y-56524523D01*
X12260119Y-56476904D01*
X12212500Y-56429285D01*
X12164880Y-56334047D01*
X12164880Y-56095952D01*
X12212500Y-55953095D01*
X12164880Y-55619761D02*
X13164880Y-55381666D01*
X12450595Y-55191190D01*
X13164880Y-55000714D01*
X12164880Y-54762619D01*
X13164880Y-53857857D02*
X13164880Y-54429285D01*
X13164880Y-54143571D02*
X12164880Y-54143571D01*
X12307738Y-54238809D01*
X12402976Y-54334047D01*
X12450595Y-54429285D01*
G04 #@! TO.C,J2*
X5381666Y-68242380D02*
X5381666Y-68956666D01*
X5334047Y-69099523D01*
X5238809Y-69194761D01*
X5095952Y-69242380D01*
X5000714Y-69242380D01*
X5810238Y-68337619D02*
X5857857Y-68290000D01*
X5953095Y-68242380D01*
X6191190Y-68242380D01*
X6286428Y-68290000D01*
X6334047Y-68337619D01*
X6381666Y-68432857D01*
X6381666Y-68528095D01*
X6334047Y-68670952D01*
X5762619Y-69242380D01*
X6381666Y-69242380D01*
G04 #@! TO.C,S1*
D16*
X9695542Y-78351742D02*
X9782628Y-78380771D01*
X9927771Y-78380771D01*
X9985828Y-78351742D01*
X10014857Y-78322714D01*
X10043885Y-78264657D01*
X10043885Y-78206600D01*
X10014857Y-78148542D01*
X9985828Y-78119514D01*
X9927771Y-78090485D01*
X9811657Y-78061457D01*
X9753600Y-78032428D01*
X9724571Y-78003400D01*
X9695542Y-77945342D01*
X9695542Y-77887285D01*
X9724571Y-77829228D01*
X9753600Y-77800200D01*
X9811657Y-77771171D01*
X9956800Y-77771171D01*
X10043885Y-77800200D01*
X10624457Y-78380771D02*
X10276114Y-78380771D01*
X10450285Y-78380771D02*
X10450285Y-77771171D01*
X10392228Y-77858257D01*
X10334171Y-77916314D01*
X10276114Y-77945342D01*
X8098971Y-84375171D02*
X8447314Y-84375171D01*
X8273142Y-84984771D02*
X8273142Y-84375171D01*
X8737600Y-84984771D02*
X8679542Y-84955742D01*
X8650514Y-84926714D01*
X8621485Y-84868657D01*
X8621485Y-84694485D01*
X8650514Y-84636428D01*
X8679542Y-84607400D01*
X8737600Y-84578371D01*
X8824685Y-84578371D01*
X8882742Y-84607400D01*
X8911771Y-84636428D01*
X8940800Y-84694485D01*
X8940800Y-84868657D01*
X8911771Y-84926714D01*
X8882742Y-84955742D01*
X8824685Y-84984771D01*
X8737600Y-84984771D01*
X9463314Y-84578371D02*
X9463314Y-85071857D01*
X9434285Y-85129914D01*
X9405257Y-85158942D01*
X9347200Y-85187971D01*
X9260114Y-85187971D01*
X9202057Y-85158942D01*
X9463314Y-84955742D02*
X9405257Y-84984771D01*
X9289142Y-84984771D01*
X9231085Y-84955742D01*
X9202057Y-84926714D01*
X9173028Y-84868657D01*
X9173028Y-84694485D01*
X9202057Y-84636428D01*
X9231085Y-84607400D01*
X9289142Y-84578371D01*
X9405257Y-84578371D01*
X9463314Y-84607400D01*
X10014857Y-84578371D02*
X10014857Y-85071857D01*
X9985828Y-85129914D01*
X9956800Y-85158942D01*
X9898742Y-85187971D01*
X9811657Y-85187971D01*
X9753600Y-85158942D01*
X10014857Y-84955742D02*
X9956800Y-84984771D01*
X9840685Y-84984771D01*
X9782628Y-84955742D01*
X9753600Y-84926714D01*
X9724571Y-84868657D01*
X9724571Y-84694485D01*
X9753600Y-84636428D01*
X9782628Y-84607400D01*
X9840685Y-84578371D01*
X9956800Y-84578371D01*
X10014857Y-84607400D01*
X10392228Y-84984771D02*
X10334171Y-84955742D01*
X10305142Y-84897685D01*
X10305142Y-84375171D01*
X10856685Y-84955742D02*
X10798628Y-84984771D01*
X10682514Y-84984771D01*
X10624457Y-84955742D01*
X10595428Y-84897685D01*
X10595428Y-84665457D01*
X10624457Y-84607400D01*
X10682514Y-84578371D01*
X10798628Y-84578371D01*
X10856685Y-84607400D01*
X10885714Y-84665457D01*
X10885714Y-84723514D01*
X10595428Y-84781571D01*
X11582400Y-84955742D02*
X11640457Y-84984771D01*
X11756571Y-84984771D01*
X11814628Y-84955742D01*
X11843657Y-84897685D01*
X11843657Y-84868657D01*
X11814628Y-84810600D01*
X11756571Y-84781571D01*
X11669485Y-84781571D01*
X11611428Y-84752542D01*
X11582400Y-84694485D01*
X11582400Y-84665457D01*
X11611428Y-84607400D01*
X11669485Y-84578371D01*
X11756571Y-84578371D01*
X11814628Y-84607400D01*
X12046857Y-84578371D02*
X12162971Y-84984771D01*
X12279085Y-84694485D01*
X12395200Y-84984771D01*
X12511314Y-84578371D01*
X12743542Y-84984771D02*
X12743542Y-84578371D01*
X12743542Y-84375171D02*
X12714514Y-84404200D01*
X12743542Y-84433228D01*
X12772571Y-84404200D01*
X12743542Y-84375171D01*
X12743542Y-84433228D01*
X12946742Y-84578371D02*
X13178971Y-84578371D01*
X13033828Y-84375171D02*
X13033828Y-84897685D01*
X13062857Y-84955742D01*
X13120914Y-84984771D01*
X13178971Y-84984771D01*
X13643428Y-84955742D02*
X13585371Y-84984771D01*
X13469257Y-84984771D01*
X13411200Y-84955742D01*
X13382171Y-84926714D01*
X13353142Y-84868657D01*
X13353142Y-84694485D01*
X13382171Y-84636428D01*
X13411200Y-84607400D01*
X13469257Y-84578371D01*
X13585371Y-84578371D01*
X13643428Y-84607400D01*
X13904685Y-84984771D02*
X13904685Y-84375171D01*
X14165942Y-84984771D02*
X14165942Y-84665457D01*
X14136914Y-84607400D01*
X14078857Y-84578371D01*
X13991771Y-84578371D01*
X13933714Y-84607400D01*
X13904685Y-84636428D01*
G04 #@! TO.C,R4*
D10*
X6106333Y-81342666D02*
X5873000Y-81009333D01*
X5706333Y-81342666D02*
X5706333Y-80642666D01*
X5973000Y-80642666D01*
X6039666Y-80676000D01*
X6073000Y-80709333D01*
X6106333Y-80776000D01*
X6106333Y-80876000D01*
X6073000Y-80942666D01*
X6039666Y-80976000D01*
X5973000Y-81009333D01*
X5706333Y-81009333D01*
X6706333Y-80876000D02*
X6706333Y-81342666D01*
X6539666Y-80609333D02*
X6373000Y-81109333D01*
X6806333Y-81109333D01*
X3774333Y-81342666D02*
X3374333Y-81342666D01*
X3574333Y-81342666D02*
X3574333Y-80642666D01*
X3507666Y-80742666D01*
X3441000Y-80809333D01*
X3374333Y-80842666D01*
X4207666Y-80642666D02*
X4274333Y-80642666D01*
X4341000Y-80676000D01*
X4374333Y-80709333D01*
X4407666Y-80776000D01*
X4441000Y-80909333D01*
X4441000Y-81076000D01*
X4407666Y-81209333D01*
X4374333Y-81276000D01*
X4341000Y-81309333D01*
X4274333Y-81342666D01*
X4207666Y-81342666D01*
X4141000Y-81309333D01*
X4107666Y-81276000D01*
X4074333Y-81209333D01*
X4041000Y-81076000D01*
X4041000Y-80909333D01*
X4074333Y-80776000D01*
X4107666Y-80709333D01*
X4141000Y-80676000D01*
X4207666Y-80642666D01*
X4741000Y-81342666D02*
X4741000Y-80642666D01*
X4807666Y-81076000D02*
X5007666Y-81342666D01*
X5007666Y-80876000D02*
X4741000Y-81142666D01*
G04 #@! TO.C,J1*
X5611380Y-64615333D02*
X6325666Y-64615333D01*
X6468523Y-64662952D01*
X6563761Y-64758190D01*
X6611380Y-64901047D01*
X6611380Y-64996285D01*
X6611380Y-63615333D02*
X6611380Y-64186761D01*
X6611380Y-63901047D02*
X5611380Y-63901047D01*
X5754238Y-63996285D01*
X5849476Y-64091523D01*
X5897095Y-64186761D01*
G04 #@! TO.C,D8*
X10603666Y-61730666D02*
X9903666Y-61730666D01*
X9903666Y-61564000D01*
X9937000Y-61464000D01*
X10003666Y-61397333D01*
X10070333Y-61364000D01*
X10203666Y-61330666D01*
X10303666Y-61330666D01*
X10437000Y-61364000D01*
X10503666Y-61397333D01*
X10570333Y-61464000D01*
X10603666Y-61564000D01*
X10603666Y-61730666D01*
X10203666Y-60930666D02*
X10170333Y-60997333D01*
X10137000Y-61030666D01*
X10070333Y-61064000D01*
X10037000Y-61064000D01*
X9970333Y-61030666D01*
X9937000Y-60997333D01*
X9903666Y-60930666D01*
X9903666Y-60797333D01*
X9937000Y-60730666D01*
X9970333Y-60697333D01*
X10037000Y-60664000D01*
X10070333Y-60664000D01*
X10137000Y-60697333D01*
X10170333Y-60730666D01*
X10203666Y-60797333D01*
X10203666Y-60930666D01*
X10237000Y-60997333D01*
X10270333Y-61030666D01*
X10337000Y-61064000D01*
X10470333Y-61064000D01*
X10537000Y-61030666D01*
X10570333Y-60997333D01*
X10603666Y-60930666D01*
X10603666Y-60797333D01*
X10570333Y-60730666D01*
X10537000Y-60697333D01*
X10470333Y-60664000D01*
X10337000Y-60664000D01*
X10270333Y-60697333D01*
X10237000Y-60730666D01*
X10203666Y-60797333D01*
G04 #@! TO.C,F1*
X8840000Y-54081333D02*
X8840000Y-54314666D01*
X9206666Y-54314666D02*
X8506666Y-54314666D01*
X8506666Y-53981333D01*
X9206666Y-53348000D02*
X9206666Y-53748000D01*
X9206666Y-53548000D02*
X8506666Y-53548000D01*
X8606666Y-53614666D01*
X8673333Y-53681333D01*
X8706666Y-53748000D01*
G04 #@! TO.C,Y1*
X17938809Y-88241190D02*
X17938809Y-88717380D01*
X17605476Y-87717380D02*
X17938809Y-88241190D01*
X18272142Y-87717380D01*
X19129285Y-88717380D02*
X18557857Y-88717380D01*
X18843571Y-88717380D02*
X18843571Y-87717380D01*
X18748333Y-87860238D01*
X18653095Y-87955476D01*
X18557857Y-88003095D01*
X23328571Y-88717380D02*
X22757142Y-88717380D01*
X23042857Y-88717380D02*
X23042857Y-87717380D01*
X22947619Y-87860238D01*
X22852380Y-87955476D01*
X22757142Y-88003095D01*
X24185714Y-87717380D02*
X23995238Y-87717380D01*
X23900000Y-87765000D01*
X23852380Y-87812619D01*
X23757142Y-87955476D01*
X23709523Y-88145952D01*
X23709523Y-88526904D01*
X23757142Y-88622142D01*
X23804761Y-88669761D01*
X23900000Y-88717380D01*
X24090476Y-88717380D01*
X24185714Y-88669761D01*
X24233333Y-88622142D01*
X24280952Y-88526904D01*
X24280952Y-88288809D01*
X24233333Y-88193571D01*
X24185714Y-88145952D01*
X24090476Y-88098333D01*
X23900000Y-88098333D01*
X23804761Y-88145952D01*
X23757142Y-88193571D01*
X23709523Y-88288809D01*
X25471428Y-88717380D02*
X25471428Y-87717380D01*
X25804761Y-88431666D01*
X26138095Y-87717380D01*
X26138095Y-88717380D01*
X26614285Y-88717380D02*
X26614285Y-87717380D01*
X26614285Y-88193571D02*
X27185714Y-88193571D01*
X27185714Y-88717380D02*
X27185714Y-87717380D01*
X27566666Y-88050714D02*
X28090476Y-88050714D01*
X27566666Y-88717380D01*
X28090476Y-88717380D01*
G04 #@! TO.C,U1*
X16357666Y-77594666D02*
X16357666Y-78161333D01*
X16391000Y-78228000D01*
X16424333Y-78261333D01*
X16491000Y-78294666D01*
X16624333Y-78294666D01*
X16691000Y-78261333D01*
X16724333Y-78228000D01*
X16757666Y-78161333D01*
X16757666Y-77594666D01*
X17457666Y-78294666D02*
X17057666Y-78294666D01*
X17257666Y-78294666D02*
X17257666Y-77594666D01*
X17191000Y-77694666D01*
X17124333Y-77761333D01*
X17057666Y-77794666D01*
X30773666Y-79199809D02*
X30773666Y-78723619D01*
X31059380Y-79295047D02*
X30059380Y-78961714D01*
X31059380Y-78628380D01*
X30059380Y-78437904D02*
X30059380Y-77866476D01*
X31059380Y-78152190D02*
X30059380Y-78152190D01*
X31059380Y-77533142D02*
X30059380Y-77533142D01*
X30773666Y-77199809D01*
X30059380Y-76866476D01*
X31059380Y-76866476D01*
X30535571Y-76390285D02*
X30535571Y-76056952D01*
X31059380Y-75914095D02*
X31059380Y-76390285D01*
X30059380Y-76390285D01*
X30059380Y-75914095D01*
X30107000Y-74961714D02*
X30059380Y-75056952D01*
X30059380Y-75199809D01*
X30107000Y-75342666D01*
X30202238Y-75437904D01*
X30297476Y-75485523D01*
X30487952Y-75533142D01*
X30630809Y-75533142D01*
X30821285Y-75485523D01*
X30916523Y-75437904D01*
X31011761Y-75342666D01*
X31059380Y-75199809D01*
X31059380Y-75104571D01*
X31011761Y-74961714D01*
X30964142Y-74914095D01*
X30630809Y-74914095D01*
X30630809Y-75104571D01*
X30773666Y-74533142D02*
X30773666Y-74056952D01*
X31059380Y-74628380D02*
X30059380Y-74295047D01*
X31059380Y-73961714D01*
X30059380Y-73723619D02*
X30059380Y-73104571D01*
X30440333Y-73437904D01*
X30440333Y-73295047D01*
X30487952Y-73199809D01*
X30535571Y-73152190D01*
X30630809Y-73104571D01*
X30868904Y-73104571D01*
X30964142Y-73152190D01*
X31011761Y-73199809D01*
X31059380Y-73295047D01*
X31059380Y-73580761D01*
X31011761Y-73676000D01*
X30964142Y-73723619D01*
X30154619Y-72723619D02*
X30107000Y-72676000D01*
X30059380Y-72580761D01*
X30059380Y-72342666D01*
X30107000Y-72247428D01*
X30154619Y-72199809D01*
X30249857Y-72152190D01*
X30345095Y-72152190D01*
X30487952Y-72199809D01*
X31059380Y-72771238D01*
X31059380Y-72152190D01*
X30059380Y-71723619D02*
X30868904Y-71723619D01*
X30964142Y-71676000D01*
X31011761Y-71628380D01*
X31059380Y-71533142D01*
X31059380Y-71342666D01*
X31011761Y-71247428D01*
X30964142Y-71199809D01*
X30868904Y-71152190D01*
X30059380Y-71152190D01*
X30392714Y-70247428D02*
X31059380Y-70247428D01*
X30011761Y-70485523D02*
X30726047Y-70723619D01*
X30726047Y-70104571D01*
G04 #@! TO.C,R3*
X14552587Y-66943421D02*
X14623297Y-66542727D01*
X14269744Y-66660578D02*
X14764719Y-66165603D01*
X14953280Y-66354165D01*
X14976851Y-66424876D01*
X14976851Y-66472016D01*
X14953280Y-66542727D01*
X14882570Y-66613438D01*
X14811859Y-66637008D01*
X14764719Y-66637008D01*
X14694008Y-66613438D01*
X14505446Y-66424876D01*
X15212553Y-66613438D02*
X15518966Y-66919851D01*
X15165412Y-66943421D01*
X15236123Y-67014132D01*
X15259693Y-67084842D01*
X15259693Y-67131983D01*
X15236123Y-67202693D01*
X15118272Y-67320544D01*
X15047561Y-67344115D01*
X15000421Y-67344115D01*
X14929710Y-67320544D01*
X14788289Y-67179123D01*
X14764719Y-67108412D01*
X14764719Y-67061272D01*
X13181793Y-62136959D02*
X13228933Y-62136959D01*
X13299644Y-62160529D01*
X13417495Y-62278380D01*
X13441066Y-62349091D01*
X13441066Y-62396231D01*
X13417495Y-62466942D01*
X13370355Y-62514082D01*
X13276074Y-62561223D01*
X12710389Y-62561223D01*
X13016801Y-62867636D01*
X13653198Y-62608363D02*
X13700338Y-62608363D01*
X13771049Y-62631933D01*
X13888900Y-62749785D01*
X13912470Y-62820495D01*
X13912470Y-62867636D01*
X13888900Y-62938346D01*
X13841759Y-62985487D01*
X13747478Y-63032627D01*
X13181793Y-63032627D01*
X13488206Y-63339040D01*
G04 #@! TO.C,R2*
X13790587Y-67705421D02*
X13861297Y-67304727D01*
X13507744Y-67422578D02*
X14002719Y-66927603D01*
X14191280Y-67116165D01*
X14214851Y-67186876D01*
X14214851Y-67234016D01*
X14191280Y-67304727D01*
X14120570Y-67375438D01*
X14049859Y-67399008D01*
X14002719Y-67399008D01*
X13932008Y-67375438D01*
X13743446Y-67186876D01*
X14426983Y-67446148D02*
X14474123Y-67446148D01*
X14544834Y-67469719D01*
X14662685Y-67587570D01*
X14686255Y-67658280D01*
X14686255Y-67705421D01*
X14662685Y-67776132D01*
X14615544Y-67823272D01*
X14521264Y-67870412D01*
X13955578Y-67870412D01*
X14261991Y-68176825D01*
X9625793Y-65692959D02*
X9672933Y-65692959D01*
X9743644Y-65716529D01*
X9861495Y-65834380D01*
X9885066Y-65905091D01*
X9885066Y-65952231D01*
X9861495Y-66022942D01*
X9814355Y-66070082D01*
X9720074Y-66117223D01*
X9154389Y-66117223D01*
X9460801Y-66423636D01*
X10097198Y-66164363D02*
X10144338Y-66164363D01*
X10215049Y-66187933D01*
X10332900Y-66305785D01*
X10356470Y-66376495D01*
X10356470Y-66423636D01*
X10332900Y-66494346D01*
X10285759Y-66541487D01*
X10191478Y-66588627D01*
X9625793Y-66588627D01*
X9932206Y-66895040D01*
G04 #@! TO.C,C2*
X29220333Y-80958500D02*
X29187000Y-80991833D01*
X29087000Y-81025166D01*
X29020333Y-81025166D01*
X28920333Y-80991833D01*
X28853666Y-80925166D01*
X28820333Y-80858500D01*
X28787000Y-80725166D01*
X28787000Y-80625166D01*
X28820333Y-80491833D01*
X28853666Y-80425166D01*
X28920333Y-80358500D01*
X29020333Y-80325166D01*
X29087000Y-80325166D01*
X29187000Y-80358500D01*
X29220333Y-80391833D01*
X29487000Y-80391833D02*
X29520333Y-80358500D01*
X29587000Y-80325166D01*
X29753666Y-80325166D01*
X29820333Y-80358500D01*
X29853666Y-80391833D01*
X29887000Y-80458500D01*
X29887000Y-80525166D01*
X29853666Y-80625166D01*
X29453666Y-81025166D01*
X29887000Y-81025166D01*
X26904333Y-81407833D02*
X26937666Y-81374500D01*
X27004333Y-81341166D01*
X27171000Y-81341166D01*
X27237666Y-81374500D01*
X27271000Y-81407833D01*
X27304333Y-81474500D01*
X27304333Y-81541166D01*
X27271000Y-81641166D01*
X26871000Y-82041166D01*
X27304333Y-82041166D01*
X27571000Y-81407833D02*
X27604333Y-81374500D01*
X27671000Y-81341166D01*
X27837666Y-81341166D01*
X27904333Y-81374500D01*
X27937666Y-81407833D01*
X27971000Y-81474500D01*
X27971000Y-81541166D01*
X27937666Y-81641166D01*
X27537666Y-82041166D01*
X27971000Y-82041166D01*
X28804333Y-81574500D02*
X28804333Y-82274500D01*
X28804333Y-81607833D02*
X28871000Y-81574500D01*
X29004333Y-81574500D01*
X29071000Y-81607833D01*
X29104333Y-81641166D01*
X29137666Y-81707833D01*
X29137666Y-81907833D01*
X29104333Y-81974500D01*
X29071000Y-82007833D01*
X29004333Y-82041166D01*
X28871000Y-82041166D01*
X28804333Y-82007833D01*
X29671000Y-81674500D02*
X29437666Y-81674500D01*
X29437666Y-82041166D02*
X29437666Y-81341166D01*
X29771000Y-81341166D01*
G04 #@! TO.C,C1*
X17672333Y-80450500D02*
X17639000Y-80483833D01*
X17539000Y-80517166D01*
X17472333Y-80517166D01*
X17372333Y-80483833D01*
X17305666Y-80417166D01*
X17272333Y-80350500D01*
X17239000Y-80217166D01*
X17239000Y-80117166D01*
X17272333Y-79983833D01*
X17305666Y-79917166D01*
X17372333Y-79850500D01*
X17472333Y-79817166D01*
X17539000Y-79817166D01*
X17639000Y-79850500D01*
X17672333Y-79883833D01*
X18339000Y-80517166D02*
X17939000Y-80517166D01*
X18139000Y-80517166D02*
X18139000Y-79817166D01*
X18072333Y-79917166D01*
X18005666Y-79983833D01*
X17939000Y-80017166D01*
X15356333Y-80899833D02*
X15389666Y-80866500D01*
X15456333Y-80833166D01*
X15623000Y-80833166D01*
X15689666Y-80866500D01*
X15723000Y-80899833D01*
X15756333Y-80966500D01*
X15756333Y-81033166D01*
X15723000Y-81133166D01*
X15323000Y-81533166D01*
X15756333Y-81533166D01*
X16023000Y-80899833D02*
X16056333Y-80866500D01*
X16123000Y-80833166D01*
X16289666Y-80833166D01*
X16356333Y-80866500D01*
X16389666Y-80899833D01*
X16423000Y-80966500D01*
X16423000Y-81033166D01*
X16389666Y-81133166D01*
X15989666Y-81533166D01*
X16423000Y-81533166D01*
X17256333Y-81066500D02*
X17256333Y-81766500D01*
X17256333Y-81099833D02*
X17323000Y-81066500D01*
X17456333Y-81066500D01*
X17523000Y-81099833D01*
X17556333Y-81133166D01*
X17589666Y-81199833D01*
X17589666Y-81399833D01*
X17556333Y-81466500D01*
X17523000Y-81499833D01*
X17456333Y-81533166D01*
X17323000Y-81533166D01*
X17256333Y-81499833D01*
X18123000Y-81166500D02*
X17889666Y-81166500D01*
X17889666Y-81533166D02*
X17889666Y-80833166D01*
X18223000Y-80833166D01*
G04 #@! TD*
M02*
